<svg width="433" height="468" viewBox="0 0 433 468" fill="none" xmlns="http://www.w3.org/2000/svg">
<path fill-rule="evenodd" clip-rule="evenodd" d="M132.358 70.6424C132.239 70.6424 132.458 70.9485 133.014 71.5607C133.882 72.1417 135.213 73.3911 136.987 75.3214C136.112 75.3214 135.225 75.1028 134.319 74.6655C130.065 73.1724 125.729 71.7044 121.3 70.2488C120.426 69.3742 119.114 68.7182 117.365 68.281C116.609 65.1574 116.665 61.9651 117.539 58.6979L118.458 58.0419C118.458 60.4346 120.219 62.721 123.749 64.9075C126.691 66.6567 130.215 67.7812 134.319 68.281C133.595 68.7182 133.101 69.0618 132.839 69.3242C132.401 69.7615 132.239 70.1988 132.358 70.6424ZM120.251 49.9519C120.251 50.0706 120.251 50.2018 120.251 50.3455L119.988 50.6079C120.157 50.2893 120.244 50.0706 120.251 49.9519ZM430.945 290.297C430.332 289.654 429.614 289.06 428.652 288.504L320.696 226.37C320.739 226.046 320.777 225.721 320.777 225.383C320.777 224.484 320.627 223.622 320.302 222.81C320.627 222.022 320.789 221.173 320.789 220.273C320.789 217.037 318.753 214.251 314.673 211.915C311.65 210.14 308.133 209.035 304.116 208.591C301.517 204.156 297.15 200.145 291.028 196.565C280.333 190.206 267.464 187.032 252.427 187.032C237.509 187.032 224.69 190.206 213.964 196.565C206.573 200.807 201.726 205.761 199.433 211.24C199.145 211.221 198.864 211.302 198.577 211.302H198.402C191.149 211.302 184.896 213.839 179.654 219.086C174.582 224.309 172.046 230.506 172.046 237.765L172.202 268.101L139.129 287.224C140.092 281.051 141.728 274.942 144.027 268.913C147.263 260.342 150.293 252.015 153.117 243.937C154.866 238.046 155.959 232.374 156.396 226.92C156.977 221.204 156.977 215.632 156.396 210.209C156.396 208.579 156.178 206.361 155.741 203.562C155.16 201.176 153.392 192.861 150.455 178.63C151.18 176.706 151.549 174.638 151.549 172.42C151.549 171.252 151.474 169.709 151.33 167.785C151.33 166.879 151.255 165.992 151.111 165.117C150.381 158.933 149.056 152.898 147.132 147.007C146.107 143.627 146.039 140.241 146.913 136.862C148.369 131.289 149.1 125.623 149.1 119.845C152.505 120.313 155.903 120.913 159.283 121.638C163.1 122.687 166.917 123.724 170.734 124.749C174.869 126.061 179.142 126.873 183.54 127.191C186.483 127.485 189.356 127.547 192.155 127.372C197.428 127.254 201.095 124.905 203.169 120.326C205.211 115.921 204.918 111.73 202.294 107.731C201.245 106.413 199.989 105.32 198.533 104.445C196.79 102.084 194.223 99.4353 190.843 96.4867C188.044 94.1565 183.846 90.9892 178.249 86.9973C178.518 86.4101 178.649 85.8166 178.649 85.2044C179.086 84.7671 179.386 84.4172 179.561 84.1549C179.711 83.9799 179.854 83.8175 179.998 83.6738C179.998 83.5551 180.073 83.4989 180.217 83.4989C182.872 83.1803 184.565 82.9617 185.289 82.843C185.877 82.843 186.47 82.6805 187.082 82.3619L194.341 86.3414C196.091 87.3909 197.484 87.016 198.533 85.2044L216.369 56.5551C217.418 54.9184 217.05 53.594 215.276 52.5757L202.294 45.2728C200.807 44.5107 199.552 44.7293 198.533 45.9288L198.315 45.7101L187.082 63.5956C185.452 63.8892 184.49 64.0329 184.196 64.0329C182.303 64.1828 180.804 64.4015 180.042 64.6889C179.605 65.0137 179.217 65.5197 177.468 66.2194V66.0882H177.593C176.55 66.9628 175.731 67.8624 175.15 68.4746C174.419 69.9302 173.838 71.342 173.401 73.9658H173.182C168.753 72.2166 164.337 72.4353 159.939 73.3099C159.645 73.3099 159.426 73.2849 159.283 73.4598C158.989 73.1412 158.683 72.8663 158.364 72.7476C154.691 69.8052 150.73 66.5255 146.476 62.9709C142.334 59.4413 140.21 57.7358 140.092 57.8795L139.873 58.3106C139.554 57.261 139.173 56.299 138.736 55.4244C138.299 54.5498 137.805 53.669 137.249 52.7944C135.125 49.0648 133.07 46.4785 131.089 45.0542C131.789 43.5361 132.139 42.118 132.139 40.8061C132.139 40.1377 131.639 40.0065 131.002 40.4126C131.902 37.9949 132.882 35.3524 132.882 32.4975V32.2788C132.882 32.1039 132.882 31.9602 132.882 31.8415C133.757 29.0116 133.638 26.7252 133.495 24.976C133.495 24.6886 133.651 24.4699 133.801 24.32C134.557 22.5708 135.038 21.2402 135.156 20.3406C135.331 19.466 135.731 18.5789 136.312 17.6731C136.924 16.9672 137.461 16.3112 137.899 15.7052C138.155 15.118 138.442 14.3059 138.73 13.2501L138.955 10.6263L135.675 10.4077L136.549 5.99723C136.699 4.24179 136.549 2.76747 136.112 1.57427C135.943 1.57427 135.85 1.50555 135.85 1.35562C134.719 1.50555 133.551 1.79292 132.358 2.23022C132.358 2.38015 131.177 3.0361 128.815 4.19806L126.848 0L126.629 0.262379C125.436 0.412309 124.093 0.849606 122.606 1.57427C121.182 2.33017 120.176 2.84244 119.595 3.10482H115.397C115.247 3.10482 115.091 3.10482 114.916 3.10482L113.385 2.88617C113.241 3.0361 113.098 3.10482 112.948 3.10482C112.629 3.10482 112.411 3.19227 112.292 3.36719C112.179 3.39843 112.048 3.42342 111.898 3.45465C109.806 2.98612 107.619 2.74248 105.345 2.71125C98.4045 2.62379 92.6822 4.6541 88.1655 8.79594C82.9804 13.575 80.3816 20.4281 80.3816 29.3489L80.3379 31.5354C80.4253 32.6162 80.6627 33.6782 81.0376 34.7277C81.2125 35.165 81.4186 35.6023 81.6498 36.0396C81.7372 36.1583 81.8122 36.2895 81.8684 36.4332C82.4806 37.3952 83.224 38.2698 84.0986 39.057C85.2606 42.4741 87.1597 45.504 89.7835 48.159C91.3828 51.3638 92.0387 54.7497 91.7514 58.3043C91.7514 58.448 91.6764 58.5854 91.5327 58.6979C88.1468 57.7108 84.6234 56.8362 80.9563 56.0741C74.047 54.6185 69.3367 55.137 66.8316 57.6484C64.3265 59.9785 62.6336 62.3275 61.759 64.6889C60.8906 66.9066 60.3846 70.3612 60.3846 75.0591C60.3846 78.2951 61.1967 81.0188 62.9459 83.2365C62.9459 83.9675 62.9459 84.7109 62.9459 85.4668C62.9459 90.1583 63.6831 95.0748 65.02 100.21C66.0695 103.034 68.0998 107.538 71.0422 113.722C73.666 119.439 75.5901 123.986 76.7833 127.372C76.7833 127.691 76.852 127.997 76.9644 128.284C77.5517 131.495 78.0202 134.788 78.4575 138.174C78.9198 141.291 79.5507 144.471 79.5507 147.707C79.5507 148.613 79.5507 149.5 79.5507 150.374C79.5507 154.023 79.5507 157.677 79.5507 161.35V161.881C79.5507 163.193 79.5507 164.486 78.6824 165.773C78.6824 166.386 78.6824 167.054 78.6824 167.785C77.8078 171.458 76.9957 176.312 76.3835 182.347C75.6838 189.406 76.0649 195.441 77.3767 200.457C78.6886 205.443 79.6007 208.91 80.038 210.865C80.6252 212.764 81.15 216.056 81.5873 220.754C82.0246 225.302 82.1246 229.425 81.8622 233.13C81.6873 236.953 81.0938 240.77 80.0755 244.593C79.026 249.166 77.7141 253.583 76.1398 257.843C74.9466 261.223 73.9721 264.753 73.2162 268.426C72.4853 272.711 72.3416 276.985 72.7789 281.245C73.3911 285.793 74.1345 290.353 75.0091 294.932C75.765 299.074 76.3647 303.272 76.802 307.533C77.3518 311.931 77.9202 316.279 78.5075 320.564C78.5824 321.095 78.6637 321.626 78.7449 322.157L4.06062 365.394C3.94817 365.456 3.84822 365.531 3.76076 365.612L3.32346 365.787C1.25567 366.987 0.143684 368.43 0 370.123V380.618C0 380.674 0 380.737 0 380.793V381.011H0.0437298C0.274873 382.761 1.44308 384.254 3.54211 385.453L141.928 465.485C144.233 466.822 147.001 467.546 150.237 467.578C151.749 467.578 153.16 467.465 154.472 467.203C155.116 467.053 155.716 466.891 156.265 466.684C157.052 466.422 157.783 466.097 158.452 465.685L429.676 308.97C431.688 307.833 432.781 306.483 432.956 304.909H432.738V304.422C432.738 304.366 432.738 304.309 432.738 304.247V293.708C432.738 292.452 432.082 291.315 430.945 290.297Z" fill="#D5D5D5"/>
<path fill-rule="evenodd" clip-rule="evenodd" d="M104.995 368.673C104.845 367.917 104.702 366.811 104.558 365.35C104.558 363.313 104.933 360.952 105.689 358.265C105.839 357.828 105.907 357.478 105.907 357.216C106.026 357.772 106.176 358.34 106.345 358.921C107.369 361.283 108.619 362.757 110.105 363.344L110.324 363.6H110.499C111.811 364.038 113.21 364.256 114.697 364.256C123.237 364.081 129.94 360.92 134.806 354.767C135.675 353.574 136.493 352.318 137.249 351.006L137.643 350.35C137.643 350.032 137.574 349.807 137.424 349.694C137.424 349.082 137.368 348.482 137.249 347.901L139.873 349.038C141.185 349.588 142.278 350.032 143.153 350.35C144.346 350.788 145.458 351.075 146.476 351.225L159.02 352.799H159.676C162.356 353.062 164.137 353.849 165.011 355.161C166.03 356.36 166.467 357.759 166.317 359.359C166.317 359.971 166.248 360.496 166.098 360.933C165.667 361.839 165.08 362.57 164.355 363.126C162.431 364.9 160.157 366.312 157.533 367.361C156.634 367.63 155.741 367.905 154.866 368.192C154.691 368.192 154.547 368.267 154.429 368.411C153.117 368.704 151.724 368.942 150.237 369.11H150.018C148.094 369.379 145.22 369.666 141.403 369.985C140.21 369.985 138.955 369.985 137.643 369.985C135.138 369.985 132.939 370.06 131.046 370.204C129.734 370.641 128.478 370.866 127.285 370.866L123.53 371.522C121.925 371.809 120.526 372.028 119.332 372.178C118.601 372.346 117.871 372.44 117.146 372.44C113.154 372.703 109.774 372.246 107.001 371.085C106.126 370.641 105.458 369.841 104.995 368.673ZM106.345 339.943C106.345 342.304 106.126 345.246 105.689 348.776C105.689 349.063 105.689 349.432 105.689 349.869C103.446 351.356 101.747 352.768 100.579 354.111C97.1988 357.609 93.7442 359.084 90.2208 358.528C88.1468 358.209 86.535 357.828 85.3668 357.391C84.1986 356.954 83.3115 356.448 82.6993 355.86C82.4057 355.717 82.187 355.485 82.0496 355.161L81.6123 354.767C81.4624 354.155 81.3312 353.718 81.2125 353.455C81.2125 352.262 81.3437 350.919 81.6123 349.432C81.8997 347.683 82.0496 346.208 82.0496 345.015C83.2365 346.821 84.9295 348.076 87.116 348.776C90.377 349.388 93.5443 348.876 96.5991 347.246C99.5415 345.609 102.34 343.697 104.995 341.511C105.607 340.898 106.057 340.38 106.345 339.943ZM160.769 278.402L138.605 291.215C138.748 289.872 138.923 288.541 139.129 287.211L172.202 268.076L172.22 271.574V271.793L160.769 278.402ZM3.76076 365.612C3.84822 365.531 3.94817 365.456 4.06062 365.393L78.7449 322.157C78.901 323.275 79.0572 324.4 79.2071 325.531L75.9711 327.386L29.9424 353.98L29.855 354.024L177.249 439.184L225.764 411.147L257.412 392.868L280.408 379.612L365.906 330.228L404.151 308.095L365.906 285.968L320.071 259.505L313.405 243.406V234.529C313.842 234.291 314.261 234.048 314.673 233.785C318.347 231.736 320.364 229.263 320.727 226.37L428.714 288.504C429.676 289.06 430.464 289.653 431.076 290.297C431.838 291.203 432.225 292.19 432.257 293.27C432.282 295.138 431.207 296.713 429.021 297.993L158.845 454.359C156.634 455.67 153.904 456.301 150.674 456.245C147.438 456.245 144.652 455.589 142.322 454.277L4.27927 374.976C1.98033 373.633 0.818371 372.028 0.787135 370.16C0.724663 368.386 1.71795 366.868 3.76076 365.612Z" fill="#E9EDF8"/>
<path fill-rule="evenodd" clip-rule="evenodd" d="M433 294.32V304.247C433 304.309 433 304.366 433 304.422V304.909H421.768V303.329L429.677 298.781C431.838 297.531 432.938 296.045 433 294.32Z" fill="#C2C3D0"/>
<path fill-rule="evenodd" clip-rule="evenodd" d="M75.9713 380.618V370.185C78.5014 373.858 82.4058 377.201 87.6847 380.224C89.0153 380.993 90.3834 381.711 91.7953 382.367V389.757L75.9713 380.618ZM110.499 400.558V387.946C114.853 388.608 119.445 388.939 124.268 388.926C138.511 388.926 150.674 386.04 160.77 380.268V429.608L110.499 400.558ZM138.605 291.215L160.77 278.402V338.169C153.648 334.114 145.52 331.49 136.381 330.297C136.468 322.994 136.762 315.679 137.249 308.364V308.189L138.299 294.495C138.38 293.395 138.48 292.302 138.605 291.215ZM81.1064 342.76C79.0137 344.516 77.3019 346.359 75.9713 348.295V327.386L79.2073 325.531C79.5259 328.011 79.8195 330.522 80.0819 333.071C80.3943 334.883 80.5567 336.663 80.5567 338.412C80.5567 340.024 80.7441 341.48 81.1064 342.76ZM257.412 392.868L225.765 411.147L224.453 411.847V331.365C228.22 328.854 230.7 326.024 231.906 322.882C237.178 323.95 242.782 324.537 248.735 324.656C249.803 329.241 252.696 333.414 257.412 337.163V392.868ZM280.408 379.612V347.614C286.143 348.914 292.334 349.563 298.981 349.563C312.968 349.532 324.913 346.677 334.827 340.992C344.766 335.307 349.732 328.467 349.732 320.477C349.757 313.186 345.665 306.852 337.469 301.473L320.071 259.505L365.906 285.968V330.228L280.408 379.612Z" fill="#06A5B4"/>
<path fill-rule="evenodd" clip-rule="evenodd" d="M110.499 387.946V400.559L91.7951 389.758V382.367C97.4425 385.054 103.677 386.915 110.499 387.946ZM139.13 287.211C138.923 288.542 138.748 289.873 138.605 291.216C138.48 292.303 138.38 293.396 138.299 294.495L137.249 308.189V308.364C136.762 315.679 136.468 322.995 136.381 330.298C136.35 332.122 136.331 333.952 136.331 335.789C136.331 340.043 136.643 344.079 137.249 347.902C137.368 348.483 137.424 349.083 137.424 349.695C137.574 349.807 137.643 350.032 137.643 350.351L137.249 351.007C136.493 352.319 135.675 353.574 134.807 354.768C129.94 360.921 123.237 364.082 114.697 364.257C113.21 364.257 111.811 364.038 110.499 363.601H110.324L110.105 363.345C110.98 357.891 111.636 352.375 112.073 346.809C112.223 346.222 112.292 345.628 112.292 345.016C112.586 341.805 112.804 338.569 112.948 335.308C113.085 333.527 113.154 331.822 113.167 330.185C113.167 330.054 113.167 329.923 113.167 329.792C113.316 329.036 113.385 328.305 113.385 327.605C113.66 320.596 113.216 313.58 112.055 306.546C111.98 306.053 111.898 305.572 111.811 305.078C111.686 304.453 111.586 303.829 111.505 303.204C110.718 297.219 111.855 291.303 114.916 285.443C117.133 281.183 118.308 276.71 118.458 272.012C119.039 260.93 118.964 249.879 118.239 238.859C118.239 238.103 118.164 237.447 118.021 236.891C117.258 224.671 116.096 212.614 114.522 200.72C114.204 198.646 114.204 196.491 114.522 194.248C113.91 194.129 113.223 193.998 112.467 193.854C111.33 193.673 110.093 193.373 108.75 192.936C105.37 192.061 102.134 191.024 99.048 189.831C98.2921 199.421 98.9481 205.986 101.016 209.51C103.227 213.477 104.789 215.838 105.689 216.6C106.713 217.475 107.732 218.349 108.75 219.224C109.337 220.099 109.699 221.129 109.843 222.323C109.406 232.474 109.712 242.544 110.761 252.552C112.223 261.823 111.767 270 109.406 277.085C107.194 284.113 105.807 290.354 105.251 295.807C104.895 300.043 104.902 303.71 105.276 306.808C105.389 307.677 105.526 308.495 105.689 309.282C105.739 309.551 105.782 309.838 105.826 310.132C106.351 313.499 106.819 318.291 107.219 324.5C107.269 326.874 107.263 329.079 107.201 331.128C107.101 334.033 106.888 336.62 106.563 338.887C106.563 339.15 106.495 339.506 106.345 339.943C106.057 340.38 105.608 340.899 104.995 341.511C102.34 343.698 99.5416 345.609 96.5992 347.246C93.5443 348.877 90.377 349.389 87.1161 348.777C86.7162 345.609 86.3477 342.43 86.0041 339.243C85.8729 338.007 85.7542 336.77 85.6292 335.526C85.4543 332.578 85.1482 329.635 84.7109 326.687C84.5985 325.3 84.4798 323.919 84.3611 322.532C84.3361 322.17 84.3049 321.802 84.2736 321.439C84.2236 320.646 84.1612 319.846 84.0987 319.059C83.8426 315.592 83.5365 312.193 83.1804 308.845C82.8618 304.584 82.5557 300.386 82.2683 296.245C81.9997 291.984 81.4874 287.642 80.7378 283.213C80.1505 278.515 80.4441 273.88 81.6123 269.301C82.9492 264.897 84.2924 260.349 85.6292 255.657C86.7662 251.659 87.7095 247.536 88.4717 243.282C88.909 241.089 89.1963 238.965 89.3463 236.891C89.6336 234.386 89.8523 231.949 90.0022 229.588C90.1459 224.865 90.2209 220.23 90.2209 215.676C90.3646 211.421 90.2209 207.092 89.7836 202.688C89.3463 198.865 88.9777 195.104 88.6903 191.406C88.3967 188.894 88.3967 186.402 88.6903 183.921C86.0415 181.854 83.8925 179.561 82.2683 177.056C80.3692 174.257 79.2759 171.165 78.9886 167.785C78.9886 167.054 78.9886 166.386 78.9886 165.774C79.2447 164.487 79.3946 163.194 79.4259 161.882C79.4259 162.144 79.4259 162.419 79.4259 162.713C79.2759 163.762 79.3509 164.78 79.6445 165.774C80.0818 168.166 80.9564 170.378 82.2683 172.421C85.0608 176.706 89.5649 180.379 95.7683 183.44C99.704 185.515 104.033 187.145 108.75 188.344C110.093 188.782 111.417 189.057 112.729 189.169C124.211 191.243 134.569 188.894 143.809 182.129C148.819 178.605 151.33 173.82 151.33 167.785C151.474 169.709 151.549 171.252 151.549 172.421C151.549 174.638 151.18 176.706 150.456 178.63C153.392 192.861 155.16 201.176 155.741 203.562C156.178 206.361 156.397 208.579 156.397 210.209C156.978 215.632 156.978 221.204 156.397 226.92C155.959 232.374 154.866 238.046 153.117 243.938C150.293 252.009 147.263 260.336 144.027 268.907C141.728 274.936 140.092 281.039 139.13 287.211ZM84.0987 39.0572C83.2241 38.27 82.4807 37.3955 81.8685 36.4334C81.8123 36.2897 81.7373 36.1585 81.6498 36.0398C81.4187 35.6025 81.2125 35.1652 81.0376 34.7279C80.9814 34.528 80.9252 34.3344 80.8627 34.1594C81.4749 33.9283 82.1746 33.6784 82.9617 33.416C83.5177 33.2161 84.1112 32.9975 84.7546 32.7601C86.2415 32.2353 87.9469 31.6356 89.871 30.9672C102.634 26.1881 112.204 20.7656 118.589 14.6997C119.051 14.2624 119.489 13.3566 119.895 11.9822C120.538 9.79571 120.919 8.51505 121.032 8.14022C121.125 7.90283 121.225 7.68418 121.344 7.47803C121.719 7.71542 122.1 7.9778 122.481 8.26516C127.635 12.1759 130.215 17.0174 130.215 22.7897C130.215 23.0208 130.171 23.3145 130.084 23.6643C129.846 24.5951 129.24 25.8508 128.247 27.4251C127.372 28.8556 126.354 30.2238 125.186 31.5357C124.374 32.529 123.468 33.491 122.481 34.4281C122.125 34.7467 121.781 35.0653 121.425 35.3839C119.882 36.7582 118.283 37.9514 116.621 38.976C113.966 40.6002 111.186 41.7997 108.275 42.5556C108.156 42.5868 108.038 42.618 107.919 42.6493C105.564 43.199 103.115 43.4739 100.579 43.4739C96.1806 43.4739 92.4948 42.9804 89.5212 41.9933C87.3347 41.2562 85.5293 40.2879 84.0987 39.0572ZM75.9712 370.185V380.618L29.9425 353.98L75.9712 327.386V348.296C73.641 351.669 72.4728 355.311 72.4728 359.228C72.4728 363.157 73.641 366.812 75.9712 370.185ZM257.412 392.869V337.163C259.087 338.488 261.004 339.762 263.141 340.993C268.345 343.985 274.098 346.19 280.408 347.615V379.612L257.412 392.869ZM224.453 411.847L177.293 439.141L160.77 429.608V380.268C160.801 380.256 160.826 380.237 160.857 380.225C170.996 374.421 176.069 367.424 176.069 359.228C176.069 351.063 171.015 344.066 160.901 338.231C160.857 338.206 160.813 338.188 160.77 338.169V278.403L172.22 271.793L172.439 302.767C172.439 303.091 172.445 303.423 172.458 303.747C165.624 307.727 162.213 312.531 162.213 318.159C162.213 323.819 165.649 328.642 172.527 332.634C179.405 336.601 187.726 338.588 197.484 338.588C207.248 338.588 215.582 336.588 222.491 332.59C223.178 332.197 223.834 331.784 224.453 331.366V411.847ZM365.906 285.968L404.151 308.095L365.906 330.229V285.968Z" fill="#008996"/>
<path fill-rule="evenodd" clip-rule="evenodd" d="M224.453 411.847L225.764 411.147L177.249 439.184L29.855 354.024L29.9424 353.98L75.9712 380.618L91.7951 389.757L110.499 400.558L160.769 429.608L177.293 439.141L224.453 411.847Z" fill="#303E48"/>
<path fill-rule="evenodd" clip-rule="evenodd" d="M11.2323 379.831V381.318H0V380.793C0 380.737 0 380.674 0 380.618V370.598C0.0562236 372.441 1.23693 374.027 3.54211 375.37L11.2323 379.831Z" fill="#EAE8ED"/>
<path fill-rule="evenodd" clip-rule="evenodd" d="M105.689 352.537C105.689 354.143 105.764 355.704 105.907 357.216C105.907 357.479 105.839 357.828 105.689 358.266C104.933 360.952 104.558 363.313 104.558 365.35C104.702 366.812 104.845 367.917 104.995 368.673L104.558 368.848C104.702 369.61 104.702 371.172 104.558 373.534C104.558 375.426 105.283 376.595 106.744 377.032C109.568 378.225 112.729 378.662 116.227 378.344C118.47 378.344 121.631 377.907 125.711 377.032L126.629 374.19C129.284 373.577 133.17 373.209 138.299 373.096C143.602 372.921 147.582 372.615 150.237 372.178C157.577 371.153 162.793 368.736 165.88 364.913C166.173 363.863 166.317 362.907 166.317 362.033C166.317 361.595 166.248 361.227 166.098 360.933C166.248 360.496 166.317 359.971 166.317 359.359C166.467 357.76 166.029 356.36 165.011 355.161C164.137 353.849 162.356 353.062 159.676 352.799H159.02L146.476 351.225C145.458 351.075 144.346 350.788 143.153 350.351C142.278 350.032 141.185 349.588 139.873 349.039L137.249 347.902C136.643 344.078 136.331 340.043 136.331 335.789C136.331 333.952 136.349 332.121 136.381 330.297C145.52 331.491 153.648 334.114 160.769 338.169C160.813 338.187 160.857 338.206 160.901 338.231C171.015 344.066 176.069 351.063 176.069 359.228C176.069 367.424 170.996 374.421 160.857 380.224C160.826 380.237 160.801 380.255 160.769 380.268C150.674 386.04 138.511 388.926 124.268 388.926C119.445 388.939 114.853 388.608 110.499 387.946C103.677 386.915 97.4424 385.053 91.795 382.367C90.3832 381.711 89.0151 380.993 87.6844 380.224C82.4056 377.201 78.5012 373.858 75.9711 370.185C73.6409 366.812 72.4727 363.157 72.4727 359.228C72.4727 355.311 73.6409 351.669 75.9711 348.295C77.3017 346.359 79.0134 344.516 81.1062 342.76C81.3436 343.579 81.656 344.335 82.0495 345.016C82.0495 346.209 81.8996 347.683 81.6122 349.432C81.3436 350.919 81.2124 352.262 81.2124 353.455C80.8938 354.011 80.6752 354.811 80.5565 355.861C80.5565 357.204 80.6127 358.747 80.7376 360.496C81.7559 361.695 83.1553 362.57 84.9295 363.126C85.9477 363.445 87.5657 363.819 89.7835 364.257C93.1632 364.813 96.9052 363.032 101.016 358.922C101.334 358.484 101.715 357.685 102.153 356.516C102.446 355.354 102.884 354.549 103.465 354.111C104.046 353.355 104.789 352.824 105.689 352.537ZM257.412 337.163C252.696 333.415 249.803 329.242 248.735 324.656C242.782 324.537 237.178 323.95 231.905 322.882C230.7 326.024 228.22 328.854 224.452 331.366C223.834 331.784 223.178 332.196 222.491 332.59C215.582 336.588 207.248 338.587 197.484 338.587C187.726 338.587 179.405 336.601 172.526 332.634C165.648 328.642 162.213 323.819 162.213 318.159C162.213 312.531 165.623 307.727 172.458 303.747C172.676 310.581 175.225 316.435 180.092 321.308C185.302 326.412 191.543 328.96 198.796 328.96H199.014C206.242 328.96 212.477 326.412 217.724 321.308C222.085 316.716 224.584 311.444 225.221 305.471C227.564 307.146 229.356 308.951 230.618 310.894C237.322 312.674 244.637 313.568 252.558 313.568C254.345 313.568 256.1 313.518 257.831 313.436L257.237 314.836C257.062 315.567 256.975 316.304 256.975 317.066C256.975 320.302 257.85 323.319 259.599 326.118C261.841 329.56 265.371 332.696 270.175 335.526C278.515 340.336 288.473 342.873 300.074 343.135C311.731 342.873 321.714 340.336 330.016 335.526C334.851 332.696 338.381 329.56 340.599 326.118C342.342 323.319 343.216 320.302 343.216 317.066C343.216 316.304 343.141 315.567 342.998 314.836L337.469 301.473C345.665 306.852 349.757 313.186 349.732 320.477C349.732 328.467 344.766 335.308 334.826 340.992C324.912 346.677 312.968 349.532 298.981 349.563C292.334 349.563 286.143 348.914 280.408 347.614C274.098 346.19 268.345 343.985 263.141 340.992C261.004 339.762 259.086 338.487 257.412 337.163Z" fill="#006670"/>
<path fill-rule="evenodd" clip-rule="evenodd" d="M112.948 3.10482C113.098 3.10482 113.241 3.0361 113.385 2.88617L114.916 3.10482C115.091 3.10482 115.247 3.10482 115.397 3.10482H119.595C119.42 3.27973 118.895 3.58584 118.02 4.02314C117.258 4.28552 116.665 4.34799 116.228 4.19806C115.091 3.91069 113.997 3.54211 112.948 3.10482ZM126.629 0.262379L126.848 0L128.815 4.19806C129.109 4.19806 129.034 4.27303 128.597 4.41671C128.303 4.73531 128.085 4.95396 127.941 5.07266C127.822 5.24757 127.166 5.34128 125.973 5.34128C126.554 4.90398 126.773 3.93568 126.629 2.44887C126.454 1.57427 126.454 0.849607 126.629 0.262379ZM135.85 1.35562C135.85 1.50555 135.943 1.57427 136.112 1.57427C136.549 2.76747 136.699 4.24179 136.549 5.99723L135.675 10.4077C134.775 10.5576 134.044 10.6263 133.495 10.6263L133.232 10.4077C133.232 10.264 133.232 10.1203 133.232 9.97039C133.526 8.95211 133.882 7.4778 134.319 5.55993C134.644 4.09811 135.156 2.69875 135.85 1.35562Z" fill="#471908"/>
<path fill-rule="evenodd" clip-rule="evenodd" d="M89.5211 41.9929C92.4948 42.98 96.1806 43.4735 100.579 43.4735C103.115 43.4735 105.564 43.1986 107.919 42.6489C105.214 43.6671 102.396 44.2544 99.4853 44.3981C98.6107 44.5417 97.7361 44.6167 96.8615 44.6167C94.3002 44.0357 91.8513 43.1611 89.5211 41.9929ZM127.023 41.1183C125.011 38.607 122.45 37.6449 119.332 38.2259C119.182 38.2259 118.964 38.2884 118.676 38.4008C118.064 38.5195 117.377 38.7069 116.621 38.9756C118.283 37.951 119.882 36.7578 121.425 35.3835C122.999 34.5401 124.43 33.6343 125.711 32.6722C126.323 33.5468 126.848 34.3652 127.285 35.1211C127.722 35.9957 127.885 36.8141 127.766 37.57C127.766 37.6887 127.766 37.8323 127.766 38.0073C127.591 39.0318 127.347 40.0688 127.023 41.1183ZM135.675 10.4075L138.955 10.6262C136.887 11.7944 135.287 13.706 134.151 16.361C133.538 17.523 133.014 18.56 132.576 19.4658C132.314 20.0468 131.933 20.7028 131.439 21.4337C130.971 22.252 130.521 22.9892 130.084 23.6639C130.171 23.3141 130.215 23.0204 130.215 22.7893C130.215 17.017 127.635 12.1755 122.481 8.26476C122.1 7.97739 121.719 7.71501 121.344 7.47762C118.458 5.55976 115.309 4.21663 111.898 3.45448C112.048 3.42325 112.179 3.39826 112.292 3.36702C112.411 3.1921 112.629 3.10464 112.948 3.10464C113.997 3.54194 115.091 3.91052 116.228 4.19789C116.665 4.34782 117.258 4.28535 118.02 4.02297C118.895 3.58567 119.42 3.27956 119.595 3.10464C120.176 2.84226 121.182 2.33 122.606 1.5741C124.093 0.849434 125.436 0.412138 126.629 0.262207C126.454 0.849435 126.454 1.5741 126.629 2.4487C126.773 3.93551 126.554 4.90381 125.973 5.34111C127.166 5.34111 127.822 5.2474 127.941 5.07248C128.085 4.95379 128.303 4.73514 128.597 4.41654C129.034 4.27285 129.109 4.19789 128.815 4.19789C131.177 3.03593 132.358 2.37998 132.358 2.23005C133.551 1.79275 134.719 1.50538 135.85 1.35545C135.156 2.69858 134.644 4.09793 134.319 5.55976C133.882 7.47762 133.526 8.95194 133.232 9.97022C133.232 10.1202 133.232 10.2638 133.232 10.4075L133.495 10.6262C134.044 10.6262 134.775 10.5574 135.675 10.4075Z" fill="#713D22"/>
<path fill-rule="evenodd" clip-rule="evenodd" d="M107.919 42.6492C108.038 42.6179 108.156 42.5867 108.275 42.5555C111.186 41.7996 113.966 40.6001 116.621 38.9759C117.377 38.7072 118.064 38.5198 118.676 38.4011C118.964 38.2887 119.182 38.2262 119.332 38.2262C122.45 37.6452 125.011 38.6073 127.023 41.1186L124.53 44.9231H124.486C123.293 45.5666 122.581 46.1038 122.343 46.5411C122.144 46.891 121.937 47.397 121.738 48.0717C121.444 47.8967 121.169 47.778 120.907 47.7218C121.05 46.3787 120.963 45.1293 120.644 43.9611C119.332 44.542 118.077 45.3604 116.884 46.4099C116.009 47.2845 115.515 48.2278 115.397 49.2524C114.347 50.4143 113.316 51.5263 112.292 52.5758C111.417 53.4504 110.461 54.0439 109.406 54.3688C108.506 54.4812 107.557 54.7623 106.563 55.1996C104.352 55.9618 102.065 55.8993 99.704 55.0247L97.0802 53.8877C96.7616 53.7128 96.4555 53.5691 96.1618 53.4504C95.2872 52.8694 94.4126 52.2135 93.5443 51.4826C92.5198 50.4643 91.414 49.4273 90.2208 48.3778C90.0709 48.2278 89.9272 48.1591 89.7835 48.1591C87.1597 45.5041 85.2606 42.4742 84.0987 39.0571C85.5293 40.2878 87.3347 41.2561 89.5212 41.9932C91.8513 43.1614 94.3002 44.036 96.8615 44.617C97.7361 44.617 98.6107 44.542 99.4853 44.3984C102.396 44.2547 105.214 43.6674 107.919 42.6492ZM125.711 32.6725C124.43 33.6346 122.999 34.5404 121.425 35.3838C121.781 35.0652 122.125 34.7466 122.481 34.428C123.468 33.4909 124.374 32.5288 125.186 31.5356C126.354 30.2237 127.372 28.8555 128.247 27.425C129.24 25.8507 129.846 24.595 130.084 23.6642C130.521 22.9895 130.971 22.2523 131.439 21.434C131.933 20.7031 132.314 20.0471 132.576 19.4661C133.014 18.5603 133.538 17.5233 134.151 16.3613C135.288 13.7063 136.887 11.7947 138.955 10.6265L138.736 13.2503C138.449 14.306 138.174 15.1181 137.905 15.7054C137.468 16.3113 136.943 16.9673 136.331 17.6732C135.75 18.579 135.375 19.4661 135.194 20.3407C135.081 21.2403 134.644 22.5709 133.882 24.3201C133.744 24.4701 133.67 24.6887 133.67 24.9761C133.114 26.288 132.62 27.325 132.183 28.0809C131.57 28.8118 130.446 29.6114 128.816 30.486C127.185 31.5043 126.148 32.2352 125.711 32.6725Z" fill="#452312"/>
<path fill-rule="evenodd" clip-rule="evenodd" d="M118.458 58.042L119.332 57.3861C119.389 57.3861 119.457 57.3861 119.551 57.3861C120.394 57.3861 122.462 56.3241 125.754 54.1938C126.279 55.3058 127.01 56.3678 127.941 57.3861C129.284 58.8729 131.189 60.7221 133.669 62.9398C134.863 63.8144 136.056 64.7764 137.249 65.8259C137.249 65.9696 137.162 66.1071 136.987 66.2195L136.331 67.1378C135.575 67.5751 134.906 67.9562 134.319 68.2811C130.215 67.7813 126.691 66.6568 123.749 64.9076C120.219 62.7211 118.458 60.4347 118.458 58.042ZM178.649 85.2045C178.967 83.8926 178.836 82.4245 178.249 80.7878C177.643 79.2135 176.987 77.608 176.287 75.9775C175.525 74.6656 174.569 73.8472 173.401 73.5286C173.838 71.6045 174.419 69.9053 175.15 68.4497C175.731 67.8438 176.55 67.1878 177.593 66.4819H177.812C177.668 66.7443 177.456 67.2565 177.156 68.0124C176.581 68.887 176.344 69.8553 176.462 70.9049C176.606 71.9231 177.555 73.5286 179.305 75.7151C179.48 75.7151 179.561 75.7963 179.561 75.9775C180.148 75.9775 180.585 75.9775 180.873 75.9775C181.198 75.9775 182.01 75.8151 183.322 75.4965C184.633 75.3778 186.014 75.0155 187.476 74.4032C188.525 73.816 189.431 73.4662 190.187 73.3537L189.925 73.5286C189.487 73.8472 188.888 74.2283 188.132 74.6656C188.013 74.7781 187.882 74.8405 187.738 74.8405C185.814 76.3273 184.196 77.3019 182.884 77.7704H182.666C182.228 77.8829 181.491 78.164 180.435 78.6013C180.729 78.745 181.035 78.9074 181.354 79.0823L187.082 82.3621C186.47 82.6807 185.877 82.8431 185.289 82.8431C184.565 82.9618 182.872 83.1804 180.217 83.499C180.073 83.499 179.998 83.5553 179.998 83.674C179.854 83.8176 179.711 83.9801 179.561 84.155C179.386 84.4174 179.086 84.7672 178.649 85.2045ZM133.232 32.2789C131.339 34.934 129.515 36.6957 127.766 37.5703C127.885 36.8144 127.722 35.996 127.285 35.1214C126.848 34.3655 126.323 33.5471 125.711 32.6725C126.148 32.2352 127.185 31.5043 128.815 30.486C130.446 29.6114 131.57 28.8118 132.183 28.0809C132.62 27.325 133.113 26.288 133.669 24.9761C133.813 26.7253 133.669 29.0117 133.232 31.8417C133.232 31.9603 133.232 32.104 133.232 32.2789Z" fill="#ED9870"/>
<path fill-rule="evenodd" clip-rule="evenodd" d="M120.251 50.3455C120.251 50.2018 120.251 50.0706 120.251 49.9519C120.244 50.0706 120.157 50.2892 119.988 50.6078L120.251 50.3455ZM116.053 70.4237C115.615 70.7423 114.947 70.9734 114.041 71.1234C112.554 71.5607 110.936 71.7043 109.187 71.5607C107.438 71.5607 105.608 71.467 103.683 71.2983C102.778 71.2983 101.89 71.2358 101.016 71.1234C100.466 70.7985 99.8102 70.5111 99.048 70.2488C96.4242 69.3742 93.9941 67.8998 91.7514 65.8258C91.0455 65.2136 90.7581 64.2515 90.8768 62.9396C90.8768 62.621 90.8768 62.3274 90.8768 62.065C90.8768 61.8901 90.8768 61.7464 90.8768 61.6277C90.908 61.5091 90.9455 61.3779 91.008 61.2342C91.0955 60.8531 91.2079 60.5345 91.3578 60.2721V60.0972C91.3578 59.6599 91.4141 59.1914 91.5328 58.6979C91.6764 58.5854 91.7514 58.448 91.7514 58.3043C95.306 59.0602 98.9918 59.9535 102.809 60.9718C107.207 61.9651 110.805 64.0891 113.604 67.3564C114.653 68.2309 115.465 69.2492 116.053 70.4237ZM119.114 51.7885C119.083 51.6698 119.026 51.5699 118.939 51.4824C118.939 51.1638 118.776 50.7078 118.458 50.1268C118.308 49.5396 118.308 49.0148 118.458 48.5525C118.601 48.2902 118.983 47.9403 119.595 47.503V47.2406C119.857 46.8033 119.988 46.4535 119.988 46.1911C119.114 45.8663 118.458 46.0849 118.021 46.8471C117.871 46.9908 117.714 47.2094 117.539 47.503C117.539 47.7654 117.477 48.1152 117.365 48.5525C117.04 49.4834 116.884 50.0831 116.884 50.3455C117.058 50.9577 117.508 51.5574 118.239 52.1384C118.352 52.1384 118.47 52.1259 118.589 52.0947C118.502 52.1509 118.414 52.2133 118.327 52.2696C117.421 52.8818 116.852 53.3878 116.621 53.8001C116.359 53.5377 116.171 53.2629 116.053 52.9692C115.734 52.4133 115.515 51.4699 115.397 50.1268C115.397 49.8332 115.397 49.5396 115.397 49.2522C115.515 48.2277 116.009 47.2844 116.884 46.4098C118.077 45.3603 119.332 44.5419 120.644 43.9609C120.963 45.1291 121.05 46.3785 120.907 47.7217C121.169 47.7779 121.444 47.8966 121.738 48.0715C121.675 48.2152 121.619 48.3589 121.563 48.5088C121.3 49.3522 121.019 49.9956 120.732 50.4329C120.551 50.6953 120.013 51.1451 119.114 51.7885ZM190.187 73.3536C189.431 73.466 188.525 73.8159 187.476 74.4031C186.014 75.0153 184.633 75.3776 183.322 75.4963C182.01 75.8149 181.198 75.9774 180.873 75.9774C180.585 75.9774 180.148 75.9774 179.561 75.9774C179.561 75.7962 179.48 75.715 179.305 75.715C177.556 73.5285 176.606 71.923 176.462 70.9047C176.344 69.8552 176.581 68.8869 177.156 68.0123C177.456 67.2564 177.668 66.7441 177.812 66.4818V66.2194C178.98 65.5197 179.779 65.0137 180.217 64.6888C180.979 64.4015 182.303 64.1828 184.196 64.0329C184.49 64.0329 185.452 63.8892 187.082 63.5956V63.858C186.326 64.2953 185.727 64.6451 185.289 64.9075C183.253 66.1069 182.072 67.5 181.747 69.1055L182.01 69.3242C182.272 69.7615 182.566 70.1238 182.884 70.4237C183.759 70.9984 184.721 71.2358 185.77 71.1234C186.47 70.9734 187.201 70.6861 187.957 70.2488C188.244 69.9239 189.5 69.5428 191.718 69.1055L194.997 68.4496V68.2809C195.285 68.8307 195.285 69.3242 194.997 69.7615C194.56 70.9609 193.829 71.6856 192.811 71.9542C192.08 72.2728 191.205 72.7351 190.187 73.3536ZM131.177 40.4126C131.002 40.5375 130.796 40.6749 130.565 40.8498C128.609 42.4866 127.535 43.3612 127.329 43.4736C126.866 43.7673 125.929 44.2545 124.53 44.923L127.023 41.1185C127.347 40.069 127.591 39.0319 127.766 38.0074C127.766 37.8325 127.766 37.6888 127.766 37.5701C129.515 36.6955 131.339 34.9338 133.232 32.2788V32.4975C132.764 35.3524 132.077 37.9949 131.177 40.4126ZM131.089 45.0542C133.07 46.4785 135.125 49.0648 137.249 52.7943C137.805 53.6689 138.299 54.5435 138.736 55.4181C139.173 56.2927 139.554 57.2548 139.873 58.3043C139.873 58.8853 139.498 59.9223 138.736 61.4091C138.186 63.5956 137.686 65.0699 137.249 65.8258C136.056 64.7763 134.863 63.8142 133.67 62.9396C131.189 60.7219 129.284 58.8728 127.941 57.386C127.01 56.3677 126.279 55.3057 125.754 54.1937C125.817 54.1624 125.873 54.1187 125.929 54.0625C126.629 53.419 127.229 52.6819 127.722 51.8323C127.897 51.5699 128.247 50.839 128.772 49.6458C129.846 47.5468 130.608 46.0287 131.046 45.0979L131.089 45.0542Z" fill="#FFAA83"/>
<path fill-rule="evenodd" clip-rule="evenodd" d="M105.907 357.216C105.764 355.705 105.689 354.143 105.689 352.537C105.689 351.663 105.689 350.776 105.689 349.87C105.689 349.433 105.689 349.064 105.689 348.777C106.126 345.247 106.345 342.305 106.345 339.943C106.495 339.506 106.563 339.15 106.563 338.887C106.888 336.62 107.101 334.033 107.201 331.128C107.263 329.079 107.269 326.874 107.219 324.5C106.819 318.291 106.351 313.499 105.826 310.132C105.782 309.838 105.739 309.551 105.689 309.282C105.526 308.495 105.389 307.677 105.276 306.808C104.902 303.71 104.895 300.043 105.251 295.807C105.807 290.354 107.194 284.113 109.406 277.085C111.767 270 112.223 261.823 110.761 252.552C109.712 242.544 109.406 232.474 109.843 222.322C109.699 221.129 109.337 220.099 108.75 219.224C107.732 218.349 106.713 217.475 105.689 216.6C104.789 215.838 103.227 213.477 101.016 209.51C98.9481 205.986 98.2921 199.421 99.048 189.831C102.134 191.024 105.37 192.061 108.75 192.936C110.093 193.373 111.33 193.673 112.467 193.854C113.223 193.998 113.91 194.129 114.522 194.248C114.204 196.491 114.204 198.646 114.522 200.72C116.096 212.614 117.258 224.671 118.021 236.891C118.164 237.447 118.239 238.103 118.239 238.859C118.964 249.879 119.039 260.93 118.458 272.012C118.308 276.71 117.133 281.183 114.916 285.443C111.855 291.303 110.718 297.219 111.505 303.204C111.586 303.829 111.686 304.453 111.811 305.078C111.898 305.572 111.98 306.053 112.055 306.546C113.216 313.58 113.66 320.596 113.385 327.605C113.385 328.305 113.316 329.036 113.166 329.792C113.166 329.923 113.166 330.054 113.166 330.185C113.154 331.822 113.085 333.527 112.948 335.308C112.804 338.569 112.586 341.805 112.292 345.016C112.292 345.628 112.223 346.222 112.073 346.809C111.636 352.375 110.98 357.891 110.105 363.345C108.619 362.758 107.369 361.283 106.345 358.922C106.176 358.341 106.026 357.772 105.907 357.216ZM131.177 40.4128C131.814 40.0067 132.139 40.1379 132.139 40.8064C132.139 42.1183 131.789 43.5364 131.089 45.0544L131.046 45.0981C130.608 46.029 129.846 47.547 128.772 49.646C128.247 50.8392 127.897 51.5701 127.722 51.8325C127.229 52.6821 126.629 53.4193 125.929 54.0627C125.873 54.119 125.817 54.1627 125.754 54.1939C122.462 56.3242 120.394 57.3862 119.551 57.3862C119.457 57.3862 119.389 57.3862 119.332 57.3862C119.07 57.3237 118.808 57.2113 118.545 57.0364C118.164 56.774 117.789 56.3804 117.408 55.8557C116.821 55.0373 116.515 54.5 116.49 54.2377V54.1939C116.49 54.0752 116.534 53.944 116.621 53.8004C116.852 53.3881 117.421 52.882 118.327 52.2698C118.414 52.2136 118.502 52.1511 118.589 52.0949C118.764 51.9762 118.939 51.8763 119.114 51.7888C120.013 51.1453 120.551 50.6955 120.732 50.4332C121.019 49.9959 121.3 49.3524 121.563 48.5091C121.619 48.3591 121.675 48.2154 121.738 48.0718C121.937 47.3971 122.144 46.8911 122.344 46.5412C122.581 46.1039 123.293 45.5667 124.486 44.9232H124.53C125.929 44.2548 126.866 43.7675 127.329 43.4739C127.535 43.3614 128.609 42.4868 130.565 40.8501C130.796 40.6752 131.002 40.5377 131.177 40.4128ZM87.116 348.777C84.9295 348.077 83.2366 346.821 82.0496 345.016C81.6561 344.335 81.3437 343.579 81.1063 342.761C80.744 341.48 80.5566 340.024 80.5566 338.413C80.5566 336.663 80.3941 334.883 80.0818 333.071C79.8194 330.523 79.5258 328.011 79.2072 325.531C79.0573 324.4 78.9011 323.276 78.7449 322.158C78.6637 321.627 78.5825 321.096 78.5075 320.565C77.9203 316.279 77.3518 311.931 76.8021 307.533C76.3648 303.273 75.765 299.075 75.0091 294.933C74.1345 290.354 73.3911 285.793 72.7789 281.245C72.3416 276.985 72.4853 272.712 73.2162 268.426C73.9721 264.753 74.9529 261.223 76.1461 257.844C77.7141 253.583 79.026 249.166 80.0818 244.593C81.1001 240.77 81.6935 236.953 81.8685 233.13C82.1308 229.425 82.0496 225.302 81.6123 220.754C81.175 216.057 80.6628 212.764 80.0818 210.865C79.6445 208.91 78.7699 205.443 77.458 200.458C76.1461 195.441 75.84 189.406 76.5397 182.347C77.1519 176.313 77.964 171.458 78.9885 167.785C79.2759 171.165 80.3692 174.257 82.2683 177.056C83.8925 179.561 86.0415 181.854 88.6903 183.921C88.3967 186.402 88.3967 188.894 88.6903 191.406C88.9777 195.104 89.3463 198.865 89.7836 202.688C90.2209 207.092 90.3645 211.421 90.2209 215.676C90.2209 220.23 90.1459 224.865 90.0022 229.588C89.8523 231.949 89.6336 234.386 89.3463 236.891C89.1963 238.965 88.909 241.089 88.4717 243.282C87.7095 247.536 86.7662 251.659 85.6292 255.657C84.2923 260.349 82.9492 264.897 81.6123 269.301C80.4441 273.88 80.1505 278.515 80.7377 283.213C81.4874 287.642 81.9997 291.984 82.2683 296.245C82.5556 300.386 82.8618 304.584 83.1804 308.845C83.5364 312.193 83.8425 315.592 84.0987 319.059C84.1611 319.846 84.2236 320.646 84.2736 321.439C84.3048 321.802 84.3361 322.17 84.3611 322.532C84.4798 323.919 84.5984 325.3 84.7109 326.687C85.1482 329.635 85.4543 332.578 85.6292 335.526C85.7542 336.77 85.8729 338.007 86.0041 339.243C86.3476 342.43 86.7162 345.609 87.116 348.777Z" fill="#00C6B4"/>
<path fill-rule="evenodd" clip-rule="evenodd" d="M112.729 189.169C111.417 189.056 110.093 188.781 108.75 188.344C104.033 187.145 99.704 185.514 95.7683 183.44C89.5649 180.379 85.0608 176.706 82.2683 172.42C80.9564 170.377 80.0818 168.166 79.6445 165.773C79.3509 164.78 79.2759 163.762 79.4259 162.712C79.4259 162.419 79.4259 162.144 79.4259 161.881V161.35C79.5695 157.677 79.6445 154.023 79.6445 150.374C79.6445 149.5 79.6445 148.613 79.6445 147.707C79.3509 144.471 78.9698 141.291 78.5075 138.174C78.0702 134.788 77.558 131.495 76.977 128.284C76.8583 127.997 76.8021 127.691 76.8021 127.372C75.6089 123.986 73.6973 119.439 71.0735 113.722C68.1311 107.538 66.132 103.034 65.0825 100.21C63.7456 95.0748 63.0709 90.1583 63.0709 85.4667C63.0709 84.7108 63.0709 83.9674 63.0709 83.2365C63.3958 64.8637 70.1676 56.1178 83.399 56.9924C84.7109 57.4297 86.3289 58.1606 88.253 59.1789L88.909 59.6162C89.6337 59.6162 90.452 59.7786 91.3579 60.0972V60.2721C91.2079 60.5345 91.0955 60.8531 91.008 61.2342C91.0642 60.8843 91.0955 60.5032 91.0955 60.0972C89.3463 60.5345 88.0219 60.9718 87.1161 61.4091C86.6788 61.559 86.2415 61.8464 85.8042 62.2837C85.5106 62.5773 85.3669 62.8522 85.3669 63.1145C85.2232 64.1703 85.4418 65.2011 86.0228 66.2194C86.635 67.094 87.3035 67.9123 88.0344 68.6682C89.49 69.8427 91.0955 70.8735 92.8384 71.7793C94.4752 72.8288 96.2556 73.6284 98.1735 74.1844C99.1917 74.503 100.304 74.7966 101.497 75.059C103.39 75.3464 105.301 75.4963 107.219 75.4963C108.094 75.4963 109.056 75.4963 110.105 75.4963C112.005 75.4963 113.91 75.4963 115.834 75.4963C116.852 75.4963 117.946 75.4963 119.114 75.4963C120.888 75.64 122.656 75.9336 124.399 76.3709C124.692 76.5458 124.911 76.6333 125.055 76.6333C126.254 76.9207 127.372 77.3017 128.422 77.7703C129.559 78.4699 130.346 78.9635 130.783 79.2571C132.152 80.2754 133.407 81.8184 134.538 83.8924C134.394 83.8924 134.263 83.8924 134.151 83.8924C134.263 84.0674 134.394 84.211 134.538 84.3297C134.863 84.6483 135.244 84.942 135.675 85.2043C125.829 85.6729 118.908 89.8709 114.916 97.8048C113.891 99.8726 113.079 102.147 112.467 104.627C109.993 115.384 110.736 125.911 114.697 136.206C115.453 138.13 116.053 140.129 116.49 142.197C118.12 147.476 119.07 152.842 119.332 158.289C119.507 159.339 119.507 160.363 119.332 161.35C119.507 168.291 117.902 175 114.522 181.472C113.329 183.834 112.729 186.401 112.729 189.169ZM159.283 73.3536C166.773 78.6261 173.095 83.1803 178.249 86.9973C183.846 90.9892 188.044 94.1564 190.843 96.4866C194.223 99.4353 196.79 102.084 198.533 104.445C199.989 105.32 201.245 106.413 202.294 107.731C204.918 111.73 205.212 115.921 203.169 120.326C201.095 124.905 197.428 127.254 192.155 127.372C189.356 127.547 186.483 127.485 183.54 127.191C179.142 126.873 174.869 126.06 170.734 124.749C166.917 123.724 163.1 122.687 159.283 121.637C155.903 120.913 152.505 120.313 149.1 119.845C148.513 119.732 147.95 119.67 147.394 119.67C141.622 121.275 136.831 121.8 133.014 121.244C127.01 120.194 123.412 117.539 122.219 113.285C121.05 109 120.688 105.164 121.125 101.784C121.413 99.8538 121.906 97.7298 122.606 95.3934C125.555 87.4658 134.757 85.9915 150.237 90.9767C149.65 90.252 149.056 89.5023 148.444 88.7464C145.789 85.3668 142.278 81.1812 137.905 76.196C137.586 75.8711 137.28 75.5775 136.987 75.3214C135.213 73.391 133.882 72.1416 133.014 71.5606C132.458 70.9484 132.239 70.6423 132.358 70.6423C132.239 70.1988 132.401 69.7615 132.839 69.3242C133.101 69.0618 133.595 68.7182 134.319 68.2809C134.906 67.9561 135.575 67.575 136.331 67.1377L136.987 66.2194C137.162 66.1069 137.249 65.9695 137.249 65.8258C137.686 65.0699 138.186 63.5956 138.736 61.4091C139.498 59.9223 139.873 58.8852 139.873 58.3043L140.092 57.867C140.21 57.7233 142.334 59.41 146.476 62.9396C150.73 66.5005 154.691 69.749 158.364 72.6976C158.683 72.8101 158.989 73.0287 159.283 73.3536ZM81.0376 34.7277C80.6628 33.6781 80.4254 32.6161 80.3379 31.5354L80.3817 29.3489C80.3817 20.428 82.9805 13.5749 88.1656 8.79589C92.6822 4.65406 98.4046 2.62375 105.345 2.71121C107.619 2.74244 109.806 2.98608 111.898 3.45461C115.309 4.21676 118.458 5.55989 121.344 7.47775C121.225 7.68391 121.125 7.90256 121.032 8.13995C120.919 8.51477 120.538 9.79543 119.895 11.9819C119.489 13.3563 119.051 14.2621 118.589 14.6994C112.204 20.7654 102.634 26.1879 89.871 30.9669C87.9469 31.6353 86.2415 32.2351 84.7547 32.7598C84.1112 32.9972 83.5177 33.2159 82.9617 33.4158C82.1746 33.6781 81.4749 33.928 80.8627 34.1592C80.9252 34.3341 80.9814 34.5278 81.0376 34.7277Z" fill="#27E0C0"/>
<path fill-rule="evenodd" clip-rule="evenodd" d="M63.0709 83.2365C61.328 81.0188 60.4534 78.295 60.4534 75.059C60.4534 70.3612 60.8907 66.9065 61.759 64.6888C62.6336 62.3274 64.3266 59.9785 66.8317 57.6483C69.3368 55.137 74.0471 54.6184 80.9564 56.074C84.6235 56.8362 88.1469 57.7108 91.5328 58.6978C91.4141 59.1913 91.3579 59.6599 91.3579 60.0972C90.452 59.7786 89.6337 59.6161 88.909 59.6161L88.2531 59.1788C86.3289 58.1606 84.7109 57.4297 83.399 56.9924C70.1677 56.1178 63.3958 64.8637 63.0709 83.2365ZM116.884 69.7615C117.058 69.7615 116.996 69.1805 116.709 68.0123C116.996 68.0123 117.215 68.106 117.365 68.2809C119.114 68.7182 120.426 69.3741 121.3 70.2487C125.729 71.7043 130.065 73.1724 134.319 74.6654C135.225 75.1027 136.112 75.3214 136.987 75.3214C137.28 75.5775 137.587 75.8711 137.905 76.196C142.278 81.1812 145.789 85.3667 148.444 88.7464C149.056 89.5023 149.65 90.252 150.237 90.9767C134.757 85.9915 125.555 87.4658 122.606 95.3934C121.906 97.7298 121.413 99.8538 121.125 101.784C120.688 105.164 121.05 109 122.219 113.285C123.412 117.539 127.01 120.194 133.014 121.244C136.831 121.8 141.622 121.275 147.394 119.67C147.95 119.67 148.513 119.732 149.1 119.845C149.1 125.623 148.369 131.289 146.913 136.862C146.039 140.241 146.108 143.627 147.132 147.007C149.056 152.898 150.381 158.933 151.112 165.117C151.255 165.992 151.33 166.879 151.33 167.785C151.33 173.82 148.819 178.605 143.809 182.128C134.569 188.894 124.211 191.243 112.729 189.169C112.729 186.401 113.329 183.834 114.522 181.472C117.902 175 119.507 168.291 119.332 161.35C119.507 160.363 119.507 159.339 119.332 158.289C119.07 152.842 118.121 147.476 116.49 142.197C116.053 140.129 115.453 138.13 114.697 136.206C110.736 125.911 109.993 115.384 112.467 104.627C113.079 102.146 113.891 99.8725 114.916 97.8047C118.908 89.8709 125.829 85.6729 135.675 85.2043C135.244 84.9419 134.863 84.6483 134.538 84.3297C134.394 84.211 134.263 84.0673 134.151 83.8924C134.263 83.8924 134.394 83.8924 134.538 83.8924C133.407 81.8184 132.152 80.2753 130.783 79.2571C130.346 78.9635 129.559 78.4699 128.422 77.7703C127.372 77.3017 126.254 76.9206 125.055 76.6333C124.911 76.6333 124.692 76.5458 124.399 76.3709L122.437 71.5606L116.884 69.7615ZM178.249 86.9972C173.095 83.1803 166.773 78.6261 159.283 73.3535C159.426 73.1724 159.645 73.0912 159.939 73.0912C164.337 72.2166 168.753 72.3603 173.183 73.5285H173.401C174.569 73.8471 175.525 74.6654 176.287 75.9773C176.987 77.6078 177.643 79.2133 178.249 80.7876C178.836 82.4244 178.967 83.8924 178.649 85.2043C178.649 85.8165 178.518 86.41 178.249 86.9972ZM274.567 272.955C267.801 274.779 260.424 275.685 252.427 275.685C242.382 275.685 233.292 274.242 225.177 271.356L225.152 268.12L225.134 265.871C233.311 268.713 242.451 270.131 252.558 270.131C261.511 270.131 269.7 269.007 277.128 266.764L274.567 272.955Z" fill="#0AA98E"/>
<path fill-rule="evenodd" clip-rule="evenodd" d="M116.053 70.4238C116.49 70.3051 116.765 70.0864 116.884 69.7616L122.437 71.5607L124.399 76.371C122.656 75.9337 120.888 75.6401 119.114 75.4964C117.946 75.4964 116.852 75.4964 115.834 75.4964C113.91 75.4964 112.005 75.4964 110.105 75.4964C109.056 75.4964 108.094 75.4964 107.219 75.4964C105.301 75.4964 103.39 75.3465 101.497 75.0591C100.304 74.7967 99.1917 74.5031 98.1734 74.1845C96.2556 73.6285 94.4752 72.8289 92.8384 71.7794C91.0955 70.8736 89.49 69.8428 88.0344 68.6683C87.3035 67.9124 86.635 67.0941 86.0228 66.2195C85.4418 65.2012 85.2232 64.1704 85.3669 63.1146C85.3669 62.8523 85.5105 62.5774 85.8042 62.2838C86.2415 61.8465 86.6788 61.5591 87.1161 61.4092C87.2597 61.5591 87.4222 61.7778 87.5971 62.0651C87.7095 62.2151 87.8595 62.34 88.0344 62.4587C88.4717 63.0709 88.909 63.7581 89.3463 64.514C89.3463 64.7764 89.49 65.0575 89.7836 65.3449C90.0709 65.6697 90.4395 66.0445 90.8768 66.4818C91.3141 67.0628 92.1262 67.7188 93.3257 68.4497C94.6313 69.2118 96.2556 69.8678 98.1734 70.4238C99.1917 70.7424 100.141 70.9735 101.016 71.1234C101.89 71.2359 102.778 71.2984 103.683 71.2984C105.608 71.467 107.438 71.5607 109.187 71.5607C110.936 71.7044 112.554 71.5607 114.041 71.1234C114.947 70.9735 115.615 70.7424 116.053 70.4238Z" fill="#86FFEA"/>
<path fill-rule="evenodd" clip-rule="evenodd" d="M198.533 45.9291L216.369 55.8558L197.615 86.123L182.666 77.7706H182.884C184.196 77.3021 185.814 76.3276 187.738 74.8407C187.882 74.8407 188.013 74.7783 188.132 74.6658C188.888 74.2285 189.487 73.8475 189.925 73.5288L190.187 73.3539C191.205 72.7355 192.08 72.2732 192.811 71.9546C193.829 71.6859 194.56 70.9613 194.997 69.7618C195.285 69.3245 195.285 68.831 194.997 68.2813C194.997 67.9564 194.779 67.6503 194.341 67.3567C193.142 66.9194 191.674 67.138 189.925 68.0126C188.176 69.0622 186.795 69.3745 185.77 68.9372C185.158 68.9372 184.783 68.7186 184.633 68.2813C184.633 68.1064 184.546 67.9377 184.371 67.794L187.082 63.8583V63.5959L198.315 45.7104L198.533 45.9291Z" fill="#A9CBF3"/>
<path fill-rule="evenodd" clip-rule="evenodd" d="M118.545 57.036C117.583 57.0673 116.677 56.8361 115.834 56.3363C115.834 55.6679 116.053 54.9682 116.49 54.2373C116.515 54.4997 116.821 55.0369 117.408 55.8553C117.789 56.3801 118.164 56.7736 118.545 57.036ZM194.997 68.2808V68.4495L191.718 69.1054C189.5 69.5427 188.244 69.9238 187.957 70.2487C187.201 70.686 186.47 70.9733 185.77 71.1233C184.721 71.2357 183.759 70.9983 182.884 70.4236C182.566 70.1237 182.272 69.7614 182.01 69.3241L181.747 69.1054C182.072 67.4999 183.253 66.1068 185.289 64.9074C185.727 64.645 186.326 64.2952 187.082 63.8579L184.371 67.7935C184.546 67.9372 184.634 68.1059 184.634 68.2808C184.783 68.7181 185.158 68.9368 185.77 68.9368C186.795 69.3741 188.176 69.0617 189.925 68.0122C191.674 67.1376 193.142 66.919 194.342 67.3563C194.779 67.6499 194.997 67.956 194.997 68.2808ZM119.114 51.7884C118.939 51.8759 118.764 51.9759 118.589 52.0946C118.47 52.1258 118.352 52.1383 118.239 52.1383C117.508 51.5573 117.058 50.9576 116.884 50.3454C116.884 50.083 117.04 49.4833 117.365 48.5524C117.477 48.1151 117.54 47.7653 117.54 47.5029C117.714 47.2093 117.871 46.9907 118.021 46.847C118.458 46.0848 119.114 45.8662 119.988 46.191C119.988 46.4534 119.857 46.8033 119.595 47.2405V47.5029C118.983 47.9402 118.602 48.2901 118.458 48.5524C118.308 49.0147 118.308 49.5395 118.458 50.1267C118.776 50.7077 118.939 51.1637 118.939 51.4823C119.026 51.5698 119.083 51.6697 119.114 51.7884Z" fill="#DDA274"/>
<path fill-rule="evenodd" clip-rule="evenodd" d="M187.082 82.3619L181.354 79.0822C181.035 78.9073 180.729 78.7448 180.435 78.6011C181.491 78.1638 182.228 77.8827 182.666 77.7703L197.615 86.1227L216.369 55.8554L198.533 45.9287C199.552 44.7293 200.807 44.5106 202.294 45.2728L215.276 52.5757C217.05 53.594 217.418 54.9183 216.369 56.5551L198.533 85.2043C197.484 87.016 196.091 87.3908 194.341 86.3413L187.082 82.3619Z" fill="#262626"/>
<path fill-rule="evenodd" clip-rule="evenodd" d="M116.884 69.7617C116.765 70.0865 116.49 70.3052 116.053 70.4239C115.465 69.2494 114.653 68.2312 113.604 67.3566C110.805 64.0893 107.207 61.9653 102.809 60.972C98.9918 59.9537 95.306 59.0604 91.7514 58.3045C92.0388 54.7499 91.3828 51.3639 89.7836 48.1592C89.9273 48.1592 90.0709 48.2279 90.2209 48.3778C91.4141 49.4273 92.5198 50.4644 93.5443 51.4826C94.4127 52.2136 95.2873 52.8695 96.1619 53.4505C96.4555 53.5692 96.7616 53.7129 97.0802 53.8878L99.704 55.0248C102.065 55.8994 104.352 55.9618 106.563 55.1997C107.557 54.7624 108.506 54.4813 109.406 54.3688C110.462 54.044 111.417 53.4505 112.292 52.5759C113.316 51.5264 114.347 50.4144 115.397 49.2524C115.397 49.5398 115.397 49.8334 115.397 50.127C115.515 51.4701 115.734 52.4135 116.053 52.9695C116.171 53.2631 116.359 53.5379 116.621 53.8003C116.534 53.944 116.49 54.0752 116.49 54.1939V54.2376C116.053 54.9685 115.834 55.6682 115.834 56.3367C116.677 56.8364 117.583 57.0676 118.545 57.0363C118.808 57.2112 119.07 57.3237 119.332 57.3862L118.458 58.0421L117.539 58.6981C116.665 61.9653 116.609 65.1576 117.365 68.2811C117.215 68.1062 116.996 68.0125 116.709 68.0125C116.996 69.1807 117.058 69.7617 116.884 69.7617Z" fill="#CE7C56"/>
<path fill-rule="evenodd" clip-rule="evenodd" d="M87.1161 61.4091C88.0219 60.9718 89.3463 60.5345 91.0955 60.0972C91.0955 60.5032 91.0642 60.8843 91.008 61.2341C90.9455 61.3778 90.9081 61.509 90.8768 61.6277C90.8768 61.7464 90.8768 61.8901 90.8768 62.065C90.8768 62.3274 90.8768 62.621 90.8768 62.9396C90.7581 64.2515 91.0455 65.2136 91.7514 65.8258C93.9941 67.8998 96.4243 69.3741 99.048 70.2487C99.8102 70.5111 100.466 70.7985 101.016 71.1233C100.141 70.9734 99.1917 70.7422 98.1734 70.4236C96.2556 69.8677 94.6313 69.2117 93.3257 68.4496C92.1262 67.7186 91.3141 67.0627 90.8768 66.4817C90.4395 66.0444 90.0709 65.6696 89.7836 65.3447C89.49 65.0574 89.3463 64.7763 89.3463 64.5139C88.909 63.758 88.4717 63.0708 88.0344 62.4586C87.8595 62.3399 87.7095 62.2149 87.5971 62.065C87.4222 61.7776 87.2597 61.559 87.1161 61.4091Z" fill="#9AA0DD"/>
<path fill-rule="evenodd" clip-rule="evenodd" d="M105.689 349.87C105.689 350.775 105.689 351.663 105.689 352.537C104.789 352.825 104.046 353.356 103.465 354.111C102.884 354.549 102.446 355.355 102.153 356.517C101.716 357.685 101.334 358.484 101.016 358.922C96.9053 363.032 93.1633 364.813 89.7836 364.257C87.5658 363.819 85.9478 363.445 84.9296 363.126C83.1554 362.57 81.756 361.695 80.7377 360.496C80.6128 358.747 80.5566 357.204 80.5566 355.861C80.6753 354.811 80.8939 354.011 81.2125 353.455C81.3312 353.718 81.4624 354.155 81.6123 354.767L82.0496 355.161C82.1871 355.486 82.4057 355.717 82.6993 355.861C83.3116 356.448 84.1986 356.954 85.3669 357.391C86.5351 357.828 88.1468 358.21 90.2209 358.528C93.7442 359.084 97.1989 357.61 100.579 354.111C101.747 352.768 103.446 351.356 105.689 349.87ZM104.995 368.673C105.458 369.842 106.126 370.641 107.001 371.085C109.774 372.247 113.154 372.703 117.146 372.44C117.871 372.44 118.601 372.347 119.332 372.178C120.526 372.028 121.925 371.809 123.53 371.522L127.285 370.866C128.478 370.866 129.734 370.641 131.046 370.204C132.939 370.06 135.138 369.985 137.643 369.985C138.955 369.985 140.21 369.985 141.403 369.985C145.22 369.667 148.094 369.379 150.018 369.111H150.237C151.724 368.942 153.117 368.705 154.429 368.411C154.547 368.267 154.691 368.192 154.866 368.192C155.741 367.905 156.634 367.63 157.534 367.362C160.157 366.312 162.431 364.9 164.355 363.126C165.08 362.57 165.667 361.839 166.098 360.933C166.248 361.227 166.317 361.595 166.317 362.033C166.317 362.907 166.173 363.863 165.88 364.913C162.794 368.736 157.577 371.154 150.237 372.178C147.582 372.615 143.602 372.921 138.299 373.096C133.17 373.209 129.284 373.577 126.629 374.19L125.711 377.032C121.631 377.907 118.47 378.344 116.228 378.344C112.729 378.663 109.568 378.225 106.744 377.032C105.283 376.595 104.558 375.427 104.558 373.534C104.702 371.172 104.702 369.611 104.558 368.848L104.995 368.673Z" fill="#3E6074"/>
<path fill-rule="evenodd" clip-rule="evenodd" d="M290.635 236.104C289.291 235.698 288.011 235.198 286.786 234.617C286.68 234.554 286.574 234.486 286.461 234.423C286.105 234.198 285.743 233.986 285.387 233.786C282.551 232.168 280.72 230.288 279.902 228.145C279.602 227.358 279.433 226.533 279.402 225.671C279.402 225.577 279.402 225.484 279.402 225.384C279.402 225.065 279.427 224.715 279.49 224.34L279.971 223.247C280.752 225.284 282.563 227.108 285.387 228.713C285.849 228.976 286.318 229.238 286.786 229.5C287.992 230.075 289.248 230.575 290.566 231.006C290.591 231.012 290.61 231.025 290.635 231.031C293.489 231.874 296.607 232.299 299.986 232.299C300.824 232.299 301.642 232.274 302.435 232.237C304.028 232.137 305.546 231.949 306.977 231.662C307.889 231.493 308.764 231.281 309.601 231.031C310.913 230.531 312.187 229.994 313.405 229.413C313.843 229.207 314.261 228.976 314.673 228.713C316.498 227.707 317.909 226.577 318.915 225.321C319.546 224.534 320.008 223.697 320.315 222.81C320.633 223.622 320.796 224.484 320.796 225.384C320.796 225.721 320.771 226.046 320.727 226.371C320.365 229.263 318.347 231.737 314.673 233.786C314.261 234.048 313.843 234.292 313.405 234.529C312.187 235.11 310.913 235.635 309.601 236.104C308.764 236.353 307.889 236.566 306.977 236.741C304.828 237.159 302.492 237.372 299.986 237.372C299.106 237.372 298.237 237.341 297.388 237.284C294.995 237.122 292.746 236.728 290.635 236.104ZM303.266 213.62C304.397 213.776 305.471 214.039 306.477 214.414C307.202 214.688 307.889 215.02 308.551 215.413C310.944 216.7 312.137 218.318 312.137 220.273C312.137 220.636 312.093 220.998 312.006 221.342C311.644 222.816 310.488 224.103 308.551 225.215C308.239 225.415 307.902 225.608 307.552 225.783C307.364 225.871 307.171 225.946 306.977 226.021C306.59 226.183 306.19 226.333 305.778 226.458C304.085 227.002 302.21 227.27 300.161 227.27C297.925 227.27 295.895 226.964 294.064 226.352C293.564 226.183 293.077 225.996 292.602 225.783C292.284 225.608 291.928 225.415 291.553 225.215C289.223 223.841 288.054 222.198 288.054 220.273C288.054 220.123 288.111 219.917 288.229 219.661L289.017 217.65C289.598 216.744 290.472 216 291.64 215.413C292.734 214.801 293.902 214.32 295.157 213.976C295.795 213.789 296.457 213.645 297.144 213.539C298.081 213.477 299.024 213.445 299.986 213.445C301.148 213.445 302.242 213.508 303.266 213.62Z" fill="#4D8CAF"/>
<path fill-rule="evenodd" clip-rule="evenodd" d="M279.271 274.023L261.523 315.317C261.404 315.842 261.348 316.423 261.348 317.066C261.348 320.365 262.466 323.382 264.715 326.118C266.464 328.192 268.838 330.098 271.837 331.853C278.484 335.67 287.705 337.575 299.505 337.575C312.125 337.575 321.739 335.67 328.355 331.853C331.384 330.098 333.746 328.192 335.439 326.118C337.713 323.382 338.85 320.365 338.85 317.066C338.85 316.423 338.787 315.842 338.669 315.317L320.883 274.023L309.601 247.736V236.103C310.913 235.635 312.187 235.11 313.405 234.529V243.406L320.071 259.505L337.469 301.473L342.998 314.836C343.142 315.567 343.217 316.304 343.217 317.066C343.217 320.302 342.342 323.319 340.599 326.118C338.381 329.56 334.852 332.696 330.016 335.526C321.714 340.337 311.731 342.873 300.074 343.135C288.473 342.873 278.515 340.337 270.175 335.526C265.371 332.696 261.842 329.56 259.599 326.118C257.85 323.319 256.975 320.302 256.975 317.066C256.975 316.304 257.063 315.567 257.238 314.836L257.831 313.437L274.567 272.955L277.128 266.764L286.524 244.019L286.786 243.406V234.617C288.011 235.198 289.291 235.697 290.635 236.103V247.736L279.271 274.023ZM320.315 222.81C320.009 223.697 319.546 224.534 318.915 225.321C317.909 226.577 316.498 227.707 314.673 228.713C314.261 228.976 313.843 229.207 313.405 229.413C312.187 229.994 310.913 230.531 309.601 231.031C308.764 231.281 307.889 231.493 306.977 231.662C305.546 231.949 304.028 232.137 302.435 232.237C301.642 232.274 300.824 232.299 299.987 232.299C296.607 232.299 293.49 231.874 290.635 231.031C290.61 231.025 290.591 231.012 290.566 231.006C289.248 230.575 287.992 230.075 286.786 229.5C286.318 229.238 285.849 228.976 285.387 228.713C282.563 227.108 280.752 225.283 279.971 223.247C279.59 222.285 279.402 221.292 279.402 220.273C279.402 219.948 279.427 219.617 279.49 219.261L280.933 215.763C281.982 214.339 283.482 213.052 285.431 211.915C287.592 210.653 289.985 209.728 292.602 209.141C294.889 208.629 297.356 208.373 299.987 208.373C301.417 208.373 302.798 208.448 304.116 208.591C308.133 209.035 311.65 210.14 314.673 211.915C318.753 214.251 320.796 217.037 320.796 220.273C320.796 221.173 320.633 222.023 320.315 222.81ZM297.144 213.539C296.457 213.645 295.795 213.789 295.157 213.976C293.902 214.32 292.734 214.801 291.64 215.413C290.472 216 289.598 216.744 289.017 217.65L288.229 219.661C288.111 219.917 288.055 220.123 288.055 220.273C288.055 222.197 289.223 223.84 291.553 225.215C291.928 225.415 292.284 225.608 292.602 225.783C293.077 225.996 293.564 226.183 294.064 226.352C295.895 226.964 297.925 227.27 300.161 227.27C302.21 227.27 304.085 227.001 305.778 226.458C306.19 226.333 306.59 226.183 306.977 226.021C307.171 225.946 307.364 225.871 307.552 225.783C307.902 225.608 308.239 225.415 308.551 225.215C310.488 224.103 311.644 222.816 312.006 221.342C312.093 220.998 312.137 220.636 312.137 220.273C312.137 218.318 310.944 216.7 308.551 215.413C307.889 215.019 307.202 214.688 306.477 214.414C305.471 214.039 304.397 213.776 303.266 213.62C302.304 213.445 301.273 213.358 300.161 213.358C299.143 213.358 298.137 213.42 297.144 213.539Z" fill="#D7F1FF"/>
<path fill-rule="evenodd" clip-rule="evenodd" d="M309.601 236.104V247.736L320.883 274.023C315.735 269.913 310.725 267.208 305.846 265.915C296.482 263.422 287.623 266.127 279.271 274.023L290.635 247.736V236.104C292.746 236.728 294.995 237.122 297.388 237.284C298.237 237.34 299.106 237.372 299.986 237.372C302.492 237.372 304.828 237.159 306.977 236.741C307.889 236.566 308.764 236.353 309.601 236.104Z" fill="#9ADBFF"/>
<path fill-rule="evenodd" clip-rule="evenodd" d="M299.024 294.539C289.379 294.539 281.151 296.507 274.329 300.442C268.201 303.941 264.815 308.083 264.165 312.862C264.097 313.424 264.059 313.992 264.059 314.573C264.059 320.115 267.483 324.837 274.329 328.742C281.151 332.678 289.379 334.652 299.024 334.652C308.676 334.652 316.916 332.678 323.769 328.742C330.585 324.837 333.996 320.115 333.996 314.573C333.996 309.063 330.585 304.353 323.769 300.442C317.578 296.888 310.25 294.939 301.779 294.601C300.873 294.564 299.955 294.539 299.024 294.539ZM279.271 274.023C278.715 279.127 280.639 282.844 285.037 285.181C288.392 286.811 293.052 287.792 299.024 288.111C301.23 288.192 303.26 288.154 305.121 288.004C305.584 287.961 306.04 287.911 306.477 287.848C309.969 287.423 312.818 286.53 315.023 285.181C318.784 282.844 320.733 279.127 320.883 274.023L338.668 315.317C338.787 315.842 338.85 316.423 338.85 317.066C338.85 320.365 337.713 323.382 335.439 326.118C333.746 328.192 331.384 330.098 328.354 331.853C321.739 335.67 312.124 337.575 299.505 337.575C287.705 337.575 278.484 335.67 271.837 331.853C268.838 330.098 266.464 328.192 264.715 326.118C262.466 323.382 261.348 320.365 261.348 317.066C261.348 316.423 261.404 315.842 261.523 315.317L279.271 274.023Z" fill="#E23A00"/>
<path fill-rule="evenodd" clip-rule="evenodd" d="M220.13 271.968L219.736 293.315C219.78 296.451 219.624 299.362 219.274 302.042C218.643 306.827 217.381 310.9 215.494 314.267C212.552 319.365 207.729 322.645 201.026 324.107C194.298 325.593 188.713 323.863 184.284 318.903C183.615 318.228 183.022 317.491 182.491 316.673C187.451 319.877 191.337 320.958 194.167 319.909C196.99 318.828 198.939 317.81 200.02 316.848C201.07 315.91 202.669 313.23 204.83 308.801C206.224 305.634 207.111 302.198 207.473 298.5C207.642 296.882 207.704 295.214 207.673 293.49C207.379 287.717 207.173 283.094 207.061 279.621C212.421 278.284 216.775 275.729 220.13 271.968ZM292.296 318.028C292.296 318.959 292.627 319.802 293.302 320.565C294.058 321.239 294.92 321.57 295.876 321.57C296.813 321.57 297.656 321.239 298.418 320.565C299.087 319.802 299.418 318.959 299.418 318.028C299.418 317.066 299.087 316.204 298.418 315.448C297.656 314.717 296.813 314.355 295.876 314.355C294.92 314.355 294.058 314.717 293.302 315.448C292.627 316.204 292.296 317.066 292.296 318.028ZM293.302 299.743C292.134 298.725 290.703 298.212 289.016 298.212C287.324 298.212 285.999 298.725 285.037 299.743C283.813 300.911 283.2 302.342 283.2 304.028C283.2 305.365 283.582 306.471 284.337 307.358C284.544 307.589 284.781 307.808 285.037 308.014C285.999 309.207 287.324 309.801 289.016 309.801C290.703 309.801 292.134 309.207 293.302 308.014C294.264 307.046 294.739 305.721 294.739 304.028C294.739 303.173 294.62 302.385 294.37 301.673C294.127 300.961 293.771 300.318 293.302 299.743ZM299.024 294.539C299.955 294.539 300.874 294.564 301.779 294.602C310.25 294.939 317.578 296.888 323.769 300.443C330.585 304.353 333.996 309.064 333.996 314.574C333.996 320.115 330.585 324.838 323.769 328.742C316.916 332.678 308.676 334.652 299.024 334.652C289.379 334.652 281.151 332.678 274.33 328.742C267.483 324.838 264.059 320.115 264.059 314.574C264.059 313.993 264.097 313.424 264.165 312.862C264.815 308.083 268.201 303.941 274.33 300.443C281.151 296.507 289.379 294.539 299.024 294.539Z" fill="#C53300"/>
<path fill-rule="evenodd" clip-rule="evenodd" d="M286.524 244.019L277.128 266.764C269.7 269.007 261.51 270.131 252.558 270.131C242.451 270.131 233.311 268.713 225.134 265.871L225.021 246.755C233.224 249.653 242.401 251.109 252.558 251.109C254.201 251.109 255.819 251.072 257.412 250.997C265.79 250.591 273.455 249.122 280.408 246.599C282.513 245.843 284.55 244.981 286.524 244.019Z" fill="#B7C5C5"/>
<path fill-rule="evenodd" clip-rule="evenodd" d="M286.461 234.423C286.574 234.485 286.68 234.554 286.786 234.616V243.406L286.524 244.018C284.55 244.98 282.513 245.843 280.408 246.598C273.455 249.122 265.79 250.59 257.412 250.996C255.819 251.071 254.201 251.109 252.558 251.109C242.401 251.109 233.224 249.653 225.021 246.755L225.134 265.871L225.152 268.12C224.178 268.807 223.222 269.513 222.291 270.244C221.554 270.806 220.829 271.381 220.13 271.968C220.061 271.15 220.005 270.238 219.973 269.232C219.923 267.657 219.917 265.852 219.955 263.809C219.986 262.235 220.042 260.523 220.13 258.674C220.236 254.357 220.336 249.778 220.429 244.937C220.461 243.306 220.492 241.644 220.523 239.952C220.523 237.952 220.323 236.028 219.93 234.179C218.999 229.719 216.925 225.727 213.701 222.197C212.758 221.323 211.721 220.567 210.596 219.942C208.985 219.042 207.192 218.393 205.224 217.993C202.663 217.506 200.233 217.399 197.921 217.668C193.198 218.212 188.988 220.329 185.289 224.034C188.263 223.884 191.087 224.015 193.767 224.427C195.197 224.659 196.584 225.171 197.921 225.958C198.084 226.058 198.24 226.158 198.402 226.264C198.771 226.489 199.127 226.726 199.477 226.964C203.094 229.5 205.48 232.674 206.642 236.472C207.111 237.996 207.379 239.627 207.454 241.351C207.648 246.342 207.66 251.303 207.473 256.225C207.41 257.775 207.329 259.318 207.236 260.861C207.223 260.967 207.217 261.079 207.211 261.185C206.711 267.514 206.655 273.661 207.061 279.621C202.681 280.127 199.97 280.389 198.927 280.414C198.883 280.414 198.839 280.414 198.796 280.414C198.758 280.414 198.721 280.414 198.689 280.414C193.092 280.383 186.889 278.634 180.092 275.167C177.106 273.611 174.551 272.449 172.439 271.662C172.364 271.631 172.295 271.606 172.22 271.574L172.202 268.076L172.046 237.721C172.046 230.462 174.582 224.221 179.655 219.005C184.896 213.757 191.149 211.127 198.402 211.127H198.577C198.864 211.127 199.146 211.14 199.433 211.152C201.726 205.667 206.573 200.807 213.964 196.565C224.69 190.206 237.509 187.032 252.427 187.032C267.464 187.032 280.333 190.206 291.028 196.565C297.15 200.145 301.517 204.156 304.116 208.591C302.798 208.447 301.417 208.372 299.986 208.372C297.356 208.372 294.889 208.628 292.602 209.141C290.497 206.317 287.411 203.725 283.338 201.376C274.967 196.565 264.934 194.16 253.214 194.16C241.476 194.16 231.431 196.565 223.097 201.376C216.7 205.093 212.752 209.416 211.252 214.345C213.408 215.55 215.432 217.106 217.331 219.005C222.404 223.934 224.952 230.006 224.984 237.222C225.065 237.265 225.152 237.303 225.24 237.353C226.433 237.959 227.657 238.521 228.913 239.033C236.003 241.969 244.143 243.469 253.352 243.537C254.726 243.537 256.082 243.512 257.412 243.45C266.102 243.013 273.767 241.176 280.408 237.94C280.82 237.74 281.226 237.54 281.626 237.328C282.251 237.009 282.863 236.672 283.463 236.322C284.531 235.703 285.531 235.073 286.461 234.423ZM279.902 228.144L267.508 235.272L253.214 227.051L239.052 235.404L224.721 227.182L238.927 218.824L224.503 210.471L238.79 202.25L253.214 210.603L267.639 202.381L281.932 210.603L267.508 218.824L279.402 225.671C279.433 226.533 279.602 227.357 279.902 228.144ZM303.266 213.62C302.242 213.507 301.148 213.445 299.986 213.445C299.024 213.445 298.081 213.476 297.144 213.539C298.137 213.42 299.143 213.358 300.161 213.358C301.273 213.358 302.304 213.445 303.266 213.62Z" fill="white"/>
<path fill-rule="evenodd" clip-rule="evenodd" d="M172.458 303.747C172.445 303.422 172.439 303.091 172.439 302.766L172.22 271.793V271.574C172.295 271.606 172.364 271.631 172.439 271.662C174.551 272.449 177.106 273.611 180.092 275.166C186.889 278.634 193.092 280.383 198.689 280.414C198.721 280.414 198.758 280.414 198.796 280.414C198.839 280.414 198.883 280.414 198.927 280.414C199.97 280.389 202.681 280.127 207.061 279.621C207.173 283.094 207.379 287.717 207.673 293.489C207.704 295.213 207.642 296.881 207.473 298.499C207.111 302.198 206.224 305.634 204.83 308.801C202.669 313.23 201.07 315.91 200.02 316.847C198.939 317.809 196.99 318.828 194.167 319.908C191.337 320.958 187.451 319.877 182.491 316.672C183.022 317.491 183.615 318.228 184.284 318.903C188.713 323.863 194.298 325.593 201.026 324.106C207.729 322.645 212.552 319.365 215.494 314.267C217.381 310.9 218.643 306.827 219.274 302.042C219.624 299.362 219.78 296.45 219.736 293.314L220.13 271.968C220.829 271.381 221.554 270.806 222.291 270.244C223.222 269.513 224.178 268.807 225.152 268.12L225.177 271.356L225.371 302.366C225.371 303.422 225.321 304.453 225.221 305.471C224.584 311.443 222.085 316.716 217.724 321.308C212.477 326.412 206.242 328.96 199.014 328.96H198.796C191.543 328.96 185.302 326.412 180.092 321.308C175.225 316.435 172.676 310.581 172.458 303.747ZM293.302 299.743C293.771 300.317 294.127 300.961 294.37 301.673C294.62 302.385 294.739 303.172 294.739 304.028C294.739 305.721 294.264 307.045 293.302 308.014C292.134 309.207 290.703 309.8 289.017 309.8C287.324 309.8 285.999 309.207 285.037 308.014C284.781 307.808 284.544 307.589 284.337 307.358C283.582 306.471 283.2 305.365 283.2 304.028C283.2 302.341 283.813 300.911 285.037 299.743C285.999 298.724 287.324 298.212 289.017 298.212C290.703 298.212 292.134 298.724 293.302 299.743ZM292.296 318.028C292.296 317.066 292.627 316.204 293.302 315.448C294.058 314.717 294.92 314.355 295.876 314.355C296.813 314.355 297.656 314.717 298.418 315.448C299.087 316.204 299.418 317.066 299.418 318.028C299.418 318.959 299.087 319.802 298.418 320.564C297.656 321.239 296.813 321.57 295.876 321.57C294.92 321.57 294.058 321.239 293.302 320.564C292.627 319.802 292.296 318.959 292.296 318.028ZM320.883 274.023C320.733 279.127 318.784 282.844 315.023 285.181C312.818 286.53 309.969 287.423 306.477 287.848C306.04 287.911 305.584 287.961 305.122 288.004C303.26 288.154 301.23 288.192 299.024 288.11C293.052 287.792 288.392 286.811 285.037 285.181C280.639 282.844 278.715 279.127 279.271 274.023C287.623 266.127 296.482 263.422 305.846 265.915C310.725 267.208 315.735 269.913 320.883 274.023ZM279.971 223.247L279.49 224.34C279.427 224.715 279.402 225.065 279.402 225.383C279.402 225.483 279.402 225.577 279.402 225.671L267.508 218.824L281.932 210.603L267.639 202.381L253.214 210.603L238.79 202.25L224.503 210.471L238.927 218.824L224.721 227.182L239.052 235.404L253.214 227.051L267.508 235.272L279.902 228.144C280.72 230.287 282.551 232.168 285.387 233.786C285.743 233.986 286.105 234.198 286.461 234.423C285.531 235.073 284.531 235.703 283.463 236.322C282.863 236.672 282.251 237.009 281.626 237.328C281.226 237.54 280.82 237.74 280.408 237.94C273.767 241.176 266.102 243.013 257.412 243.45C256.082 243.512 254.726 243.537 253.352 243.537C244.143 243.469 236.003 241.969 228.913 239.033C227.657 238.521 226.433 237.959 225.24 237.353C225.152 237.303 225.065 237.265 224.984 237.222C224.952 230.006 222.404 223.934 217.331 219.005C215.432 217.106 213.408 215.55 211.252 214.345C212.752 209.416 216.7 205.093 223.097 201.376C231.431 196.565 241.476 194.16 253.214 194.16C264.934 194.16 274.967 196.565 283.338 201.376C287.411 203.724 290.497 206.317 292.602 209.141C289.985 209.728 287.592 210.653 285.431 211.914C283.482 213.051 281.982 214.338 280.933 215.763L279.49 219.261C279.427 219.617 279.402 219.948 279.402 220.273C279.402 221.291 279.59 222.285 279.971 223.247Z" fill="#FF4F11"/>
<path fill-rule="evenodd" clip-rule="evenodd" d="M225.221 305.471C225.321 304.453 225.371 303.422 225.371 302.367L225.177 271.356C233.292 274.242 242.382 275.685 252.427 275.685C260.423 275.685 267.801 274.779 274.567 272.955L257.831 313.437C256.1 313.518 254.345 313.568 252.558 313.568C244.637 313.568 237.322 312.674 230.618 310.894C229.357 308.951 227.564 307.146 225.221 305.471Z" fill="#16E7B3"/>
<path fill-rule="evenodd" clip-rule="evenodd" d="M220.13 271.968C216.775 275.729 212.421 278.284 207.061 279.621C206.655 273.661 206.711 267.514 207.211 261.185C207.217 261.079 207.223 260.967 207.236 260.861C207.329 259.318 207.41 257.774 207.473 256.225C207.66 251.302 207.648 246.342 207.454 241.351C207.379 239.627 207.111 237.996 206.642 236.472C205.48 232.674 203.094 229.5 199.477 226.964C199.127 226.726 198.771 226.489 198.402 226.264C198.24 226.158 198.084 226.058 197.921 225.958C196.584 225.171 195.197 224.659 193.767 224.427C191.087 224.015 188.263 223.884 185.289 224.034C188.988 220.329 193.198 218.212 197.921 217.668C200.233 217.399 202.663 217.506 205.224 217.993C207.192 218.393 208.985 219.042 210.596 219.942C211.721 220.567 212.758 221.323 213.701 222.197C216.925 225.727 218.999 229.719 219.93 234.179C220.323 236.028 220.523 237.952 220.523 239.951C220.492 241.644 220.461 243.306 220.429 244.937C220.336 249.778 220.236 254.357 220.13 258.674C220.042 260.523 219.986 262.235 219.955 263.809C219.917 265.852 219.923 267.657 219.973 269.232C220.005 270.237 220.061 271.15 220.13 271.968Z" fill="#CDDFDF"/>
</svg>
