<svg width="73" height="501" viewBox="0 0 73 501" fill="none" xmlns="http://www.w3.org/2000/svg">
<path d="M1.8 400.009L72 418.309V439.009L25.8 450.209L72 461.809V482.509L1.8 500.309V482.009L52.9 471.909L1.8 459.409V440.609L52.9 428.609L1.8 418.409V400.009ZM15.5 374.333H29.7V351.433H42.9V374.333H58.3V348.433H72V391.433H1.8L1.8 348.433H15.5V374.333ZM58.8 320.231V297.831H72V337.331H1.8V320.231H58.8ZM36.8 292.575C29.8667 292.575 23.7 291.075 18.3 288.075C12.8333 285.075 8.6 280.908 5.6 275.575C2.53333 270.175 0.999996 264.075 0.999996 257.275C0.999996 248.942 3.2 241.808 7.59999 235.875C12 229.942 18 225.975 25.6 223.975V242.775C22.6667 244.175 20.4333 246.175 18.9 248.775C17.3667 251.308 16.6 254.208 16.6 257.475C16.6 262.742 18.4333 267.008 22.1 270.275C25.7667 273.542 30.6667 275.175 36.8 275.175C42.9333 275.175 47.8333 273.542 51.5 270.275C55.1667 267.008 57 262.742 57 257.475C57 254.208 56.2333 251.308 54.7 248.775C53.1667 246.175 50.9333 244.175 48 242.775V223.975C55.6 225.975 61.6 229.942 66 235.875C70.3333 241.808 72.5 248.942 72.5 257.275C72.5 264.075 71 270.175 68 275.575C64.9333 280.908 60.7 285.075 55.3 288.075C49.9 291.075 43.7333 292.575 36.8 292.575ZM72.7 180.303C72.7 186.903 71.1667 192.97 68.1 198.503C65.0333 203.97 60.7667 208.336 55.3 211.603C49.7667 214.803 43.5667 216.403 36.7 216.403C29.8333 216.403 23.6667 214.803 18.2 211.603C12.7333 208.336 8.46667 203.97 5.4 198.503C2.33333 192.97 0.799999 186.903 0.799999 180.303C0.799999 173.703 2.33333 167.67 5.4 162.203C8.46667 156.67 12.7333 152.336 18.2 149.203C23.6667 146.003 29.8333 144.403 36.7 144.403C43.5667 144.403 49.7667 146.003 55.3 149.203C60.7667 152.403 65.0333 156.736 68.1 162.203C71.1667 167.67 72.7 173.703 72.7 180.303ZM57.1 180.303C57.1 174.703 55.2333 170.236 51.5 166.903C47.7667 163.503 42.8333 161.803 36.7 161.803C30.5 161.803 25.5667 163.503 21.9 166.903C18.1667 170.236 16.3 174.703 16.3 180.303C16.3 185.97 18.1333 190.503 21.8 193.903C25.4667 197.236 30.4333 198.903 36.7 198.903C42.9 198.903 47.8667 197.236 51.6 193.903C55.2667 190.503 57.1 185.97 57.1 180.303ZM1.8 55.3898H72V72.4898H29.9L72 88.1898V101.99L29.8 117.79H72V134.89H1.8L1.8 114.69L50.4 94.9898L1.8 75.4898V55.3898ZM15.5 25.993H29.7V3.09297H42.9V25.993H58.3V0.0929674H72V43.093H1.8V0.0929674H15.5V25.993Z" fill="#ECECEC"/>
</svg>
