<svg width="353" height="220" viewBox="0 0 353 220" fill="none" xmlns="http://www.w3.org/2000/svg">
<g id="REGISTRASI 1" clip-path="url(#clip0_4_12285)">
<g id="Background Complete">
<path id="Vector" d="M36.7946 122.776C39.0885 123.326 41.4745 123.369 43.7867 122.903C46.0989 122.436 48.2819 121.472 50.1839 120.076C47.9413 118.935 45.3686 118.622 42.9184 119.193C40.5312 119.712 38.2996 120.803 36.7946 122.776" fill="#E0E0E0"/>
<path id="Vector_2" d="M43.4893 121.374C42.9773 121.498 42.457 121.585 41.9324 121.634C40.6817 121.743 39.4464 121.987 38.2478 122.361C37.0665 122.737 35.96 123.317 34.9783 124.075C34.5708 124.39 34.189 124.737 33.8366 125.113C33.7847 125.113 33.8885 124.957 34.0441 124.75C34.2796 124.434 34.5593 124.154 34.8745 123.919C35.8532 123.103 36.9813 122.485 38.1959 122.101C39.412 121.736 40.6655 121.509 41.9324 121.426L43.4893 121.374Z" fill="#E0E0E0"/>
<path id="Vector_3" d="M34.2517 124.542C34.1998 124.49 34.8745 123.451 35.4453 121.997C36.0162 120.543 36.0681 119.245 36.1719 119.296C36.2757 119.348 36.1719 119.608 36.12 120.127C36.06 120.804 35.9027 121.469 35.6529 122.101C35.4227 122.719 35.1269 123.311 34.7707 123.867C34.5112 124.334 34.3036 124.594 34.2517 124.542Z" fill="#E0E0E0"/>
<path id="Vector_4" d="M16.9183 134.617C17.3334 141.421 19.3574 148.329 22.5231 155.34H36.1719C39.1819 148.432 41.102 141.525 41.4134 134.617H16.9183Z" fill="#E0E0E0"/>
<path id="Vector_5" d="M39.2337 145.628C39.2337 145.68 34.7187 145.784 29.1658 145.784C23.6129 145.784 19.0979 145.68 19.0979 145.628C19.0979 145.576 23.6129 145.524 29.1658 145.524C34.7187 145.524 39.2337 145.576 39.2337 145.628Z" fill="#FAFAFA"/>
<path id="Vector_6" d="M38.9224 148.069C38.9224 148.173 34.6669 148.225 29.4772 148.225C24.2876 148.225 20.032 148.173 20.032 148.069C20.032 147.965 24.2876 147.965 29.4772 147.965C34.6669 147.965 38.9224 148.017 38.9224 148.069Z" fill="#FAFAFA"/>
<path id="Vector_7" d="M22.7307 139.084C22.8636 140.134 22.9156 141.194 22.8864 142.252C22.9181 143.311 22.8661 144.37 22.7307 145.42C22.6298 144.367 22.5951 143.309 22.6269 142.252C22.5968 141.195 22.6315 140.137 22.7307 139.084V139.084Z" fill="#FAFAFA"/>
<path id="Vector_8" d="M30.0481 139.084C30.1519 139.084 30.2038 140.538 30.2038 142.356C30.2038 144.174 30.1519 145.628 30.0481 145.628C29.9097 143.449 29.9097 141.263 30.0481 139.084V139.084Z" fill="#FAFAFA"/>
<path id="Vector_9" d="M36.9503 139.032C37.0501 140.137 37.0847 141.247 37.0541 142.356C37.0855 143.482 37.0508 144.609 36.9503 145.732C36.8154 144.612 36.7634 143.484 36.7946 142.356C36.7644 141.246 36.8165 140.135 36.9503 139.032V139.032Z" fill="#FAFAFA"/>
<path id="Vector_10" d="M40.9982 139.084C40.9982 139.188 35.7048 139.24 29.2177 139.24C22.7307 139.24 17.3853 139.188 17.3853 139.084C17.3853 138.98 22.6788 138.98 29.2177 138.98C35.7567 138.98 40.9982 139.032 40.9982 139.084Z" fill="#FAFAFA"/>
<path id="Vector_11" d="M224.919 198.602V215.014H248.948H275.415V198.602H224.919Z" fill="#B0D0DF"/>
<path id="Vector_12" d="M222.792 194.032V198.602H277.179V194.032H248.948H222.792Z" fill="#455A64"/>
<path id="Vector_13" d="M249.985 215.014H275.415V198.602H277.179V194.032H248.948V198.187L249.985 215.014Z" fill="#455A64"/>
<path id="Vector_14" d="M242.201 201.251H231.977V203.723H242.201V201.251Z" fill="#E0E0E0"/>
<path id="Vector_15" d="M243.81 206.808H230.68V212.028H243.81V206.808Z" fill="#2B2B2B"/>
<path id="Vector_16" d="M232.704 177.62V194.032H256.732H283.199V177.62H232.704Z" fill="#B0D0DF"/>
<path id="Vector_17" d="M230.576 172.998V177.62H284.964V172.998H256.732H230.576Z" fill="#455A64"/>
<path id="Vector_18" d="M257.77 194.032H283.199V177.62H284.964V172.998H256.732V177.153L257.77 194.032Z" fill="#455A64"/>
<path id="Vector_19" d="M249.985 180.269H239.762V182.741H249.985V180.269Z" fill="#E0E0E0"/>
<path id="Vector_20" d="M251.594 185.826H238.464V191.046H251.594V185.826Z" fill="#2B2B2B"/>
</g>
<g id="Floor">
<path id="Vector_21" d="M347.291 155.963C347.291 156.015 270.277 156.067 175.306 156.067C80.3358 156.067 3.32135 156.015 3.32135 155.963C3.32135 155.911 80.2839 155.807 175.306 155.807C270.329 155.807 347.291 155.859 347.291 155.963Z" fill="#263238"/>
<path id="Vector_22" d="M339.922 215.222C339.922 215.274 266.229 215.378 175.306 215.378C84.3837 215.378 10.6907 215.274 10.6907 215.222C10.6907 215.17 84.3837 215.066 175.306 215.066C266.229 215.066 339.922 215.17 339.922 215.222Z" fill="#263238"/>
</g>
<g id="Device">
<path id="Vector_23" d="M289.946 0.155823H74.9385C70.7539 0.155823 67.3616 3.55068 67.3616 7.73845V144.89C67.3616 149.078 70.7539 152.473 74.9385 152.473H289.946C294.13 152.473 297.523 149.078 297.523 144.89V7.73845C297.523 3.55068 294.13 0.155823 289.946 0.155823Z" fill="#E0E0E0"/>
<path id="Vector_24" d="M289.946 152.483H291.036L291.866 152.328C292.635 152.101 293.368 151.769 294.046 151.341C294.967 150.737 295.747 149.94 296.329 149.004C296.688 148.457 296.967 147.863 297.159 147.238C297.372 146.531 297.477 145.795 297.471 145.057V127.243C297.471 108.182 297.419 80.6563 297.419 46.5864V9.2965C297.489 8.11298 297.402 6.92532 297.159 5.76487C296.842 4.59752 296.247 3.52457 295.424 2.63809C294.602 1.7516 293.577 1.07804 292.437 0.675165L291.555 0.415486L290.62 0.311614H74.9385C73.3316 0.292745 71.7632 0.80378 70.4754 1.76582C69.2007 2.72635 68.2719 4.075 67.8287 5.60906C67.5948 6.36514 67.4895 7.15518 67.5173 7.94617V71.6195C67.4654 96.1331 67.4654 119.764 67.4654 142.252V144.381C67.4656 145.06 67.5177 145.737 67.6211 146.407C68.1038 148.424 69.3505 150.174 71.0982 151.289L72.0323 151.756L72.9664 152.068C74.3157 152.483 75.6651 152.328 77.0663 152.328H74.9904C74.2894 152.344 73.5899 152.256 72.9145 152.068L71.9285 151.704C71.6071 151.57 71.295 151.413 70.9944 151.237C70.3974 150.863 69.8408 150.428 69.3337 149.939C68.8607 149.424 68.4592 148.847 68.1401 148.225C67.7912 147.593 67.5459 146.909 67.4135 146.199C67.2585 145.518 67.2061 144.818 67.2578 144.122V141.992C67.2578 119.504 67.2059 95.8735 67.2059 71.3598V7.94617C67.2211 7.12022 67.3432 6.29972 67.5692 5.50519C68.0501 3.93354 69.0122 2.55281 70.3197 1.55807C71.6628 0.576225 73.2755 0.0322052 74.9385 0H290.672L291.606 0.155807L292.489 0.415486C293.658 0.826487 294.712 1.51285 295.561 2.41672C296.41 3.32058 297.029 4.41546 297.367 5.60906L297.471 6.07649C297.471 6.23229 297.523 6.3881 297.523 6.54391C297.583 6.83466 297.617 7.13007 297.626 7.42682V46.5345C297.574 80.6043 297.574 108.13 297.574 127.191V144.901C297.538 145.64 297.416 146.372 297.211 147.082C297.03 147.727 296.75 148.34 296.381 148.9C295.781 149.839 294.984 150.637 294.046 151.237C293.379 151.673 292.641 151.989 291.866 152.172L291.036 152.328H289.946V152.483Z" fill="#263238"/>
<path id="Vector_25" d="M298.509 155.963H67.6211C65.1712 155.963 62.8215 154.989 61.0892 153.255C59.3568 151.522 58.3835 149.17 58.3835 146.719V142.616H307.746V146.719C307.746 147.933 307.507 149.135 307.043 150.256C306.579 151.378 305.898 152.397 305.041 153.255C304.183 154.114 303.164 154.795 302.044 155.259C300.923 155.724 299.722 155.963 298.509 155.963V155.963Z" fill="#E0E0E0"/>
<path id="Vector_26" d="M298.509 155.963H299.65L300.325 155.859L301.103 155.652C301.42 155.563 301.732 155.459 302.038 155.34L303.024 154.873C303.759 154.417 304.439 153.877 305.048 153.263C305.815 152.503 306.432 151.604 306.864 150.614C307.37 149.484 307.652 148.267 307.694 147.03V142.72H307.746L67.6211 142.823H58.3836L58.4874 142.668V145.94C58.4598 147.004 58.5644 148.069 58.7987 149.108C59.3606 151.171 60.6277 152.972 62.3796 154.197C64.1222 155.415 66.2273 156.001 68.3477 155.859C66.1685 156.027 64.0001 155.42 62.2239 154.145C60.3997 152.903 59.0899 151.038 58.5392 148.9C58.3074 147.843 58.2028 146.762 58.2279 145.68V142.304H307.798C307.746 143.862 307.798 145.264 307.746 146.615C307.696 148.97 306.75 151.218 305.1 152.899C304.486 153.516 303.787 154.04 303.024 154.457L302.038 154.976L301.155 155.288L300.325 155.496L299.702 155.6H298.509V155.963Z" fill="#263238"/>
<path id="Vector_27" d="M159.737 142.616L162.851 147.55H206.392L209.247 142.616H159.737Z" fill="#263238"/>
<path id="Vector_28" d="M282.265 10.543H82.4116C79.9754 10.543 78.0004 12.5194 78.0004 14.9575V129.99C78.0004 132.428 79.9754 134.405 82.4116 134.405H282.265C284.701 134.405 286.676 132.428 286.676 129.99V14.9575C286.676 12.5194 284.701 10.543 282.265 10.543Z" fill="#455A64"/>
<path id="Vector_29" d="M282.161 134.41C282.732 134.446 283.303 134.339 283.822 134.098C284.476 133.834 285.061 133.426 285.535 132.904C286.15 132.167 286.53 131.262 286.624 130.307C286.676 125.944 286.624 119.452 286.624 111.143C286.624 94.5231 286.572 70.4249 286.572 40.6657V15.7885C286.589 15.2842 286.555 14.7795 286.469 14.2823C286.314 13.2839 285.797 12.3778 285.016 11.7375C284.229 11.0713 283.243 10.6874 282.213 10.6468H82.5155C81.8255 10.6487 81.1458 10.8145 80.5323 11.1305C79.9188 11.4465 79.389 11.9037 78.9865 12.4646C78.571 13.0106 78.3029 13.6545 78.208 14.3343C78.1388 15.0245 78.1215 15.7189 78.1561 16.4117V128.541C78.1561 129.164 78.1042 129.839 78.1561 130.411C78.2115 131.019 78.4069 131.605 78.727 132.125C79.0332 132.64 79.4386 133.088 79.9197 133.445C80.4008 133.802 80.948 134.059 81.5294 134.202C82.1307 134.29 82.7385 134.325 83.3458 134.306C82.7198 134.306 82.0949 134.253 81.4775 134.15C80.8592 134.014 80.2763 133.75 79.7667 133.374C79.2571 132.998 78.8321 132.52 78.5194 131.969C78.2045 131.424 77.9933 130.825 77.8967 130.203C77.8448 129.528 77.8967 128.905 77.8967 128.281V16.4636C77.8621 15.7535 77.8795 15.0418 77.9486 14.3343C78.0466 13.5988 78.3326 12.9012 78.7789 12.3088C79.2167 11.7312 79.7814 11.2622 80.4294 10.938C81.0773 10.6138 81.7911 10.4431 82.5155 10.4391H282.265C283.34 10.4573 284.372 10.863 285.171 11.5817C285.978 12.2518 286.514 13.1936 286.676 14.2304C286.763 14.745 286.797 15.267 286.78 15.7885V40.6657C286.728 70.4249 286.728 94.5231 286.728 111.143C286.728 119.452 286.728 125.944 286.676 130.307C286.599 131.277 286.197 132.192 285.535 132.904C285.061 133.426 284.476 133.834 283.822 134.098C283.436 134.244 283.036 134.349 282.628 134.41H282.161Z" fill="#263238"/>
<path id="Vector_30" d="M155.378 41.237V42.3796H150.448V35.9915H155.274V37.186H151.901V38.5883H154.859V39.7309H151.901V41.237H155.378Z" fill="white"/>
<path id="Vector_31" d="M161.502 39.5751V42.3796H160.049V39.7828C160.049 39.0038 159.686 38.6402 159.063 38.6402C158.44 38.6402 157.869 39.0557 157.869 39.9905V42.3796H156.468V37.4976H157.817V38.0689C158.023 37.849 158.272 37.6751 158.549 37.5587C158.827 37.4424 159.125 37.3861 159.426 37.3937C160.62 37.3937 161.502 38.0689 161.502 39.5751Z" fill="white"/>
<path id="Vector_32" d="M165.965 42.1719C165.607 42.3914 165.191 42.4998 164.771 42.4835C163.63 42.4835 162.955 41.8602 162.955 40.7177V38.6922H162.177V37.6015H162.955V36.407H164.356V37.6015H165.602V38.6922H164.356V40.7177C164.348 40.8015 164.359 40.8861 164.387 40.9653C164.416 41.0446 164.461 41.1166 164.521 41.1762C164.58 41.2357 164.652 41.2814 164.731 41.3098C164.811 41.3383 164.895 41.3489 164.979 41.3409C165.18 41.3455 165.379 41.2913 165.55 41.1851L165.965 42.1719Z" fill="white"/>
<path id="Vector_33" d="M171.362 40.3541H167.678C167.781 40.9774 168.3 41.3409 169.079 41.3409C169.539 41.3537 169.986 41.1859 170.324 40.8735L171.051 41.7045C170.79 41.9727 170.473 42.1812 170.124 42.3157C169.775 42.4502 169.4 42.5074 169.027 42.4835C167.314 42.4835 166.224 41.3928 166.224 39.9386C166.224 39.5955 166.293 39.2559 166.427 38.9402C166.562 38.6244 166.758 38.3391 167.006 38.1014C167.253 37.8637 167.546 37.6785 167.866 37.5569C168.187 37.4353 168.529 37.3798 168.871 37.3938C169.209 37.3791 169.546 37.4348 169.861 37.5575C170.177 37.6802 170.463 37.8671 170.702 38.1064C170.941 38.3457 171.128 38.6322 171.251 38.9476C171.373 39.263 171.429 39.6005 171.414 39.9386C171.414 40.0945 171.362 40.2503 171.362 40.3541ZM167.626 39.5232H170.065C170.027 39.2341 169.884 38.9689 169.665 38.7775C169.445 38.5862 169.163 38.482 168.871 38.4844C168.571 38.4689 168.276 38.5671 168.045 38.7597C167.814 38.9523 167.664 39.2249 167.626 39.5232V39.5232Z" fill="white"/>
<path id="Vector_34" d="M175.41 37.3938V38.7441H175.099C174.917 38.735 174.735 38.766 174.567 38.8348C174.398 38.9035 174.247 39.0085 174.123 39.1422C173.999 39.2758 173.906 39.435 173.851 39.6085C173.795 39.782 173.778 39.9656 173.801 40.1464V42.4315H172.348V37.5496H173.698V38.1728C173.899 37.9139 174.16 37.7078 174.458 37.5721C174.756 37.4364 175.083 37.3752 175.41 37.3938Z" fill="white"/>
<path id="Vector_35" d="M182.053 40.1464V42.3796H180.548V40.0944L178.109 35.9915H179.666L181.378 38.848L183.091 35.9915H184.544L182.053 40.1464Z" fill="white"/>
<path id="Vector_36" d="M184.129 39.9386C184.128 39.5909 184.199 39.2467 184.336 38.9274C184.474 38.608 184.675 38.3202 184.928 38.0817C185.181 37.8432 185.48 37.6592 185.806 37.5409C186.133 37.4225 186.481 37.3725 186.827 37.3938C187.174 37.3725 187.522 37.4225 187.848 37.5409C188.175 37.6592 188.474 37.8432 188.727 38.0817C188.98 38.3202 189.181 38.608 189.319 38.9274C189.456 39.2467 189.527 39.5909 189.526 39.9386C189.526 41.4447 188.436 42.4835 186.827 42.4835C186.481 42.5047 186.133 42.4547 185.806 42.3364C185.48 42.218 185.181 42.034 184.928 41.7955C184.675 41.557 184.474 41.2692 184.336 40.9499C184.199 40.6305 184.128 40.2863 184.129 39.9386V39.9386ZM188.125 39.9386C188.115 39.6843 188.03 39.4385 187.881 39.232C187.733 39.0254 187.527 38.8671 187.289 38.7767C187.051 38.6864 186.792 38.6679 186.544 38.7237C186.296 38.7796 186.07 38.9071 185.893 39.0906C185.717 39.2741 185.598 39.5054 185.552 39.7557C185.506 40.0061 185.535 40.2644 185.635 40.4987C185.734 40.7329 185.9 40.9327 186.112 41.0732C186.324 41.2137 186.573 41.2887 186.827 41.2889C187.004 41.297 187.181 41.2671 187.346 41.2014C187.51 41.1356 187.659 41.0355 187.782 40.9077C187.904 40.7799 187.998 40.6273 188.058 40.4602C188.117 40.2931 188.14 40.1153 188.125 39.9386V39.9386Z" fill="white"/>
<path id="Vector_37" d="M195.442 37.4976V42.3796H194.093V41.8083C193.903 42.0203 193.672 42.1899 193.412 42.3062C193.153 42.4226 192.872 42.483 192.588 42.4835C191.342 42.4835 190.46 41.8083 190.46 40.2502V37.4976H191.913V40.0425C191.913 40.8734 192.277 41.237 192.899 41.237C193.522 41.237 194.041 40.8215 194.041 39.9386V37.4976H195.442Z" fill="white"/>
<path id="Vector_38" d="M199.853 37.3938V38.7441H199.49C199.308 38.735 199.127 38.766 198.958 38.8348C198.79 38.9035 198.638 39.0085 198.514 39.1422C198.391 39.2758 198.298 39.435 198.242 39.6085C198.187 39.782 198.17 39.9656 198.193 40.1464V42.4315H196.792V37.5496H198.141V38.1728C198.342 37.9139 198.603 37.7078 198.901 37.5721C199.199 37.4364 199.526 37.3752 199.853 37.3938V37.3938Z" fill="white"/>
<path id="Vector_39" d="M203.019 39.2115C203.011 38.7594 203.097 38.3106 203.271 37.8933C203.445 37.476 203.703 37.0993 204.03 36.787C204.356 36.4746 204.744 36.2335 205.169 36.0787C205.593 35.9239 206.045 35.8588 206.496 35.8876C208.52 35.8876 210.025 37.2899 210.025 39.2115C210.025 41.1331 208.52 42.5354 206.496 42.5354C206.047 42.5565 205.598 42.4861 205.177 42.3285C204.756 42.171 204.371 41.9295 204.046 41.6187C203.721 41.3079 203.463 40.9343 203.286 40.5205C203.109 40.1068 203.019 39.6614 203.019 39.2115V39.2115ZM208.52 39.2115C208.535 38.9393 208.492 38.667 208.397 38.4119C208.301 38.1568 208.153 37.9243 207.963 37.7291C207.773 37.534 207.544 37.3803 207.292 37.2779C207.039 37.1755 206.768 37.1265 206.496 37.1341C206.008 37.212 205.565 37.4613 205.244 37.8373C204.924 38.2133 204.747 38.6913 204.747 39.1855C204.747 39.6798 204.924 40.1578 205.244 40.5338C205.565 40.9098 206.008 41.1591 206.496 41.237C206.764 41.2441 207.03 41.1966 207.279 41.0974C207.528 40.9981 207.754 40.8492 207.943 40.6597C208.133 40.4701 208.281 40.244 208.381 39.995C208.48 39.746 208.527 39.4794 208.52 39.2115V39.2115Z" fill="white"/>
<path id="Vector_40" d="M212.36 37.186H210.285V35.9915H215.889V37.186H213.814V42.3796H212.36V37.186Z" fill="white"/>
<path id="Vector_41" d="M222.221 38.3286C222.221 39.7309 221.131 40.6657 219.418 40.6657H218.173V42.3796H216.668V35.9915H219.418C221.131 35.9915 222.221 36.8744 222.221 38.3286ZM220.716 38.3286C220.716 37.6015 220.249 37.186 219.367 37.186H218.173V39.4193H219.367C220.249 39.4193 220.716 39.0038 220.716 38.3286V38.3286Z" fill="white"/>
<g id="Group" opacity="0.2">
<path id="Vector_42" d="M139.965 55.5713H129.43C127.853 55.5713 126.576 56.8502 126.576 58.4278V74.855C126.576 76.4326 127.853 77.7115 129.43 77.7115H139.965C141.541 77.7115 142.819 76.4326 142.819 74.855V58.4278C142.819 56.8502 141.541 55.5713 139.965 55.5713Z" fill="white"/>
</g>
<g id="Group_2" opacity="0.2">
<path id="Vector_43" d="M160.36 55.5713H149.825C148.249 55.5713 146.971 56.8502 146.971 58.4278V74.855C146.971 76.4326 148.249 77.7115 149.825 77.7115H160.36C161.937 77.7115 163.214 76.4326 163.214 74.855V58.4278C163.214 56.8502 161.937 55.5713 160.36 55.5713Z" fill="white"/>
</g>
<g id="Group_3" opacity="0.2">
<path id="Vector_44" d="M180.807 55.5713H170.272C168.696 55.5713 167.418 56.8502 167.418 58.4278V74.855C167.418 76.4326 168.696 77.7115 170.272 77.7115H180.807C182.384 77.7115 183.662 76.4326 183.662 74.855V58.4278C183.662 56.8502 182.384 55.5713 180.807 55.5713Z" fill="white"/>
</g>
<g id="Group_4" opacity="0.2">
<path id="Vector_45" d="M201.255 55.5713H190.72C189.143 55.5713 187.865 56.8502 187.865 58.4278V74.855C187.865 76.4326 189.143 77.7115 190.72 77.7115H201.255C202.831 77.7115 204.109 76.4326 204.109 74.855V58.4278C204.109 56.8502 202.831 55.5713 201.255 55.5713Z" fill="white"/>
</g>
<g id="Group_5" opacity="0.2">
<path id="Vector_46" d="M221.65 55.5713H211.115C209.539 55.5713 208.261 56.8502 208.261 58.4278V74.855C208.261 76.4326 209.539 77.7115 211.115 77.7115H221.65C223.226 77.7115 224.504 76.4326 224.504 74.855V58.4278C224.504 56.8502 223.226 55.5713 221.65 55.5713Z" fill="white"/>
</g>
<g id="Group_6" opacity="0.2">
<path id="Vector_47" d="M242.097 55.5713H231.562C229.986 55.5713 228.708 56.8502 228.708 58.4278V74.855C228.708 76.4326 229.986 77.7115 231.562 77.7115H242.097C243.674 77.7115 244.951 76.4326 244.951 74.855V58.4278C244.951 56.8502 243.674 55.5713 242.097 55.5713Z" fill="white"/>
</g>
<path id="Vector_48" d="M136.384 66.7894L138.304 67.8282L137.422 69.2824L135.45 68.1398V70.2691H133.841V68.0878L131.869 69.2824L131.039 67.8282L132.959 66.7894L131.039 65.6988L131.869 64.2446L133.841 65.4391V63.2578H135.502V65.4391L137.474 64.2446L138.356 65.6988L136.384 66.7894Z" fill="#263238"/>
<path id="Vector_49" d="M204.576 91.3031H166.951C163.225 91.3031 160.204 94.3259 160.204 98.0548V99.4622C160.204 103.191 163.225 106.214 166.951 106.214H204.576C208.302 106.214 211.323 103.191 211.323 99.4622V98.0548C211.323 94.3259 208.302 91.3031 204.576 91.3031Z" fill="#5271FF"/>
<path id="Vector_50" d="M171.466 98.4703C171.466 98.1749 171.525 97.8825 171.641 97.6108C171.757 97.3392 171.927 97.0939 172.141 96.89C172.354 96.686 172.607 96.5275 172.883 96.4242C173.16 96.3209 173.455 96.2749 173.749 96.289C174.071 96.2725 174.393 96.3293 174.689 96.4553C174.986 96.5813 175.25 96.773 175.462 97.0161L174.839 97.5874C174.713 97.4356 174.554 97.3147 174.374 97.2337C174.194 97.1527 173.998 97.1138 173.801 97.12C173.606 97.081 173.404 97.0859 173.21 97.1344C173.017 97.1829 172.836 97.2738 172.682 97.4005C172.528 97.5271 172.404 97.6864 172.318 97.8669C172.233 98.0475 172.189 98.2446 172.189 98.4443C172.189 98.644 172.233 98.8412 172.318 99.0217C172.404 99.2022 172.528 99.3615 172.682 99.4882C172.836 99.6148 173.017 99.7057 173.21 99.7542C173.404 99.8027 173.606 99.8077 173.801 99.7687C173.998 99.7748 174.194 99.7359 174.374 99.655C174.554 99.574 174.713 99.453 174.839 99.3013L175.462 99.8726C175.25 100.116 174.986 100.307 174.689 100.433C174.393 100.559 174.071 100.616 173.749 100.6C173.457 100.621 173.164 100.582 172.887 100.485C172.611 100.387 172.358 100.234 172.143 100.034C171.929 99.8339 171.758 99.5919 171.642 99.3228C171.525 99.0538 171.465 98.7635 171.466 98.4703Z" fill="white"/>
<path id="Vector_51" d="M175.722 98.9377C175.701 98.5847 175.786 98.2337 175.967 97.93C176.148 97.6263 176.416 97.3839 176.736 97.2341C177.056 97.0844 177.413 97.0343 177.762 97.0902C178.111 97.1462 178.435 97.3056 178.692 97.5479C178.95 97.7902 179.128 98.1043 179.205 98.4493C179.282 98.7944 179.254 99.1546 179.124 99.4834C178.994 99.8121 178.768 100.094 178.476 100.293C178.184 100.492 177.839 100.599 177.486 100.6C177.259 100.614 177.032 100.581 176.819 100.504C176.605 100.427 176.409 100.307 176.244 100.151C176.079 99.9954 175.947 99.8073 175.857 99.5986C175.767 99.3899 175.721 99.1649 175.722 98.9377V98.9377ZM178.316 98.9377C178.306 98.7759 178.249 98.6207 178.152 98.491C178.055 98.3614 177.922 98.263 177.769 98.208C177.617 98.153 177.452 98.1437 177.295 98.1814C177.137 98.2191 176.994 98.3021 176.883 98.4201C176.772 98.5381 176.698 98.686 176.67 98.8457C176.642 99.0053 176.661 99.1696 176.725 99.3185C176.789 99.4673 176.895 99.5941 177.031 99.6833C177.166 99.7726 177.324 99.8203 177.486 99.8206C177.6 99.8208 177.712 99.7977 177.816 99.7528C177.921 99.7078 178.014 99.6419 178.092 99.5591C178.17 99.4764 178.23 99.3785 178.269 99.2717C178.307 99.1648 178.323 99.0511 178.316 98.9377V98.9377Z" fill="white"/>
<path id="Vector_52" d="M183.195 98.678V100.548H182.261V98.8338C182.261 98.3145 182.001 98.1067 181.586 98.1067C181.477 98.0977 181.367 98.1135 181.265 98.1529C181.163 98.1922 181.071 98.2542 180.996 98.3341C180.921 98.414 180.865 98.5098 180.833 98.6143C180.8 98.7188 180.791 98.8294 180.807 98.9377V100.548H179.873V97.3277H180.756V97.6912C180.9 97.5529 181.071 97.4449 181.259 97.3736C181.446 97.3022 181.645 97.269 181.845 97.2758C182.031 97.2586 182.219 97.2836 182.394 97.3488C182.569 97.4139 182.727 97.5177 182.857 97.6524C182.986 97.787 183.084 97.9491 183.142 98.1267C183.201 98.3042 183.219 98.4927 183.195 98.678V98.678Z" fill="white"/>
<path id="Vector_53" d="M186.101 100.392C185.872 100.546 185.598 100.619 185.322 100.6C185.166 100.615 185.009 100.596 184.861 100.545C184.712 100.493 184.577 100.411 184.464 100.302C184.35 100.194 184.262 100.062 184.204 99.9163C184.146 99.7704 184.121 99.6138 184.129 99.4571V98.1067H183.662V97.3796H184.129V96.6006H185.063V97.3796H185.893V98.1067H185.063V99.4051C185.063 99.7167 185.219 99.8725 185.478 99.8725C185.546 99.8747 185.614 99.8619 185.677 99.835C185.74 99.8081 185.796 99.7677 185.841 99.7167L186.101 100.392Z" fill="white"/>
<path id="Vector_54" d="M186.516 96.3409C186.516 96.2681 186.531 96.196 186.56 96.1294C186.589 96.0627 186.632 96.0029 186.686 95.954C186.74 95.905 186.803 95.8679 186.872 95.8451C186.941 95.8223 187.015 95.8142 187.087 95.8215C187.45 95.8215 187.71 96.0293 187.71 96.3409C187.71 96.6525 187.45 96.8602 187.087 96.8602C187.015 96.8675 186.941 96.8595 186.872 96.8367C186.803 96.8138 186.74 96.7767 186.686 96.7278C186.632 96.6788 186.589 96.619 186.56 96.5524C186.531 96.4857 186.516 96.4137 186.516 96.3409ZM186.62 97.3277H187.554V100.548H186.62V97.3277Z" fill="white"/>
<path id="Vector_55" d="M191.758 98.678V100.548H190.823V98.8338C190.823 98.3145 190.564 98.1067 190.149 98.1067C190.04 98.0977 189.93 98.1135 189.828 98.1529C189.726 98.1922 189.634 98.2542 189.559 98.3341C189.484 98.414 189.428 98.5098 189.396 98.6143C189.363 98.7188 189.354 98.8294 189.37 98.9377V100.548H188.436V97.3277H189.318V97.6912C189.463 97.5529 189.634 97.4449 189.821 97.3736C190.009 97.3022 190.208 97.269 190.408 97.2758C190.594 97.2586 190.782 97.2836 190.957 97.3488C191.132 97.4139 191.29 97.5177 191.42 97.6524C191.549 97.787 191.647 97.9491 191.705 98.1267C191.764 98.3042 191.782 98.4927 191.758 98.678V98.678Z" fill="white"/>
<path id="Vector_56" d="M195.857 97.3276V100.548H194.975V100.184C194.838 100.319 194.676 100.424 194.498 100.496C194.32 100.567 194.129 100.602 193.937 100.6C193.749 100.609 193.56 100.576 193.386 100.505C193.211 100.433 193.054 100.325 192.925 100.186C192.797 100.048 192.7 99.8828 192.642 99.703C192.583 99.5233 192.565 99.333 192.588 99.1454V97.3276H193.522V98.9896C193.522 99.5609 193.73 99.7686 194.145 99.7686C194.254 99.7776 194.364 99.7618 194.466 99.7225C194.568 99.6831 194.66 99.6212 194.735 99.5413C194.809 99.4614 194.865 99.3656 194.898 99.2611C194.931 99.1565 194.939 99.046 194.923 98.9376V97.3276H195.857Z" fill="white"/>
<path id="Vector_57" d="M199.853 99.1974H197.414C197.463 99.4033 197.585 99.5847 197.756 99.7087C197.927 99.8326 198.138 99.8907 198.348 99.8725C198.498 99.8787 198.646 99.8489 198.782 99.7856C198.917 99.7224 199.036 99.6275 199.127 99.509L199.646 100.08C199.477 100.266 199.267 100.41 199.033 100.5C198.798 100.59 198.546 100.624 198.297 100.6C198.066 100.621 197.833 100.595 197.613 100.521C197.393 100.447 197.191 100.328 197.02 100.172C196.849 100.015 196.713 99.8244 196.62 99.6119C196.527 99.3993 196.479 99.1697 196.48 98.9377C196.472 98.7129 196.512 98.489 196.596 98.2804C196.68 98.0718 196.807 97.8831 196.968 97.7265C197.129 97.5699 197.322 97.4489 197.533 97.3713C197.744 97.2937 197.968 97.2611 198.193 97.2758C198.415 97.2604 198.638 97.2928 198.846 97.3709C199.054 97.449 199.244 97.5709 199.401 97.7284C199.559 97.8859 199.68 98.0753 199.758 98.2839C199.836 98.4926 199.869 98.7155 199.853 98.9377V99.1974ZM197.414 98.6261H198.971C198.971 98.4195 198.889 98.2213 198.743 98.0752C198.597 97.9291 198.399 97.847 198.193 97.847C197.986 97.847 197.788 97.9291 197.642 98.0752C197.496 98.2213 197.414 98.4195 197.414 98.6261V98.6261Z" fill="white"/>
<path id="Vector_58" d="M187.035 5.40134C187.045 5.86784 186.916 6.32673 186.663 6.71893C186.41 7.11112 186.046 7.41867 185.618 7.60196C185.189 7.78525 184.715 7.8359 184.257 7.74738C183.799 7.65887 183.379 7.43524 183.049 7.1053C182.719 6.77535 182.496 6.3542 182.407 5.89605C182.319 5.43791 182.369 4.96377 182.553 4.53466C182.736 4.10555 183.043 3.74114 183.435 3.48833C183.827 3.23553 184.285 3.10591 184.752 3.11617C185.357 3.11617 185.938 3.35692 186.366 3.78548C186.794 4.21403 187.035 4.79527 187.035 5.40134Z" fill="#263238"/>
<path id="Vector_59" d="M271.211 18.0217V15.8404C271.21 15.7249 271.252 15.6133 271.329 15.527C271.406 15.4407 271.512 15.3858 271.626 15.373H274.948C275.007 15.3725 275.065 15.3847 275.12 15.4088C275.174 15.4328 275.222 15.4682 275.261 15.5124C275.301 15.5567 275.33 15.6089 275.347 15.6654C275.365 15.722 275.37 15.7817 275.363 15.8404V18.0217C275.37 18.0832 275.365 18.1454 275.348 18.2049C275.331 18.2644 275.302 18.3199 275.264 18.3682C275.225 18.4165 275.177 18.4567 275.123 18.4863C275.069 18.516 275.009 18.5346 274.948 18.5411H271.626C271.507 18.5168 271.401 18.4515 271.325 18.3566C271.249 18.2617 271.209 18.1432 271.211 18.0217V18.0217Z" fill="#263238"/>
<path id="Vector_60" d="M277.491 19.2682H270.952C270.877 19.2682 270.802 19.2534 270.733 19.2247C270.664 19.196 270.601 19.1539 270.548 19.1009C270.495 19.0478 270.453 18.9848 270.424 18.9155C270.396 18.8462 270.381 18.7719 270.381 18.6969V15.0614C270.381 14.9864 270.396 14.9121 270.424 14.8428C270.453 14.7735 270.495 14.7105 270.548 14.6574C270.601 14.6044 270.664 14.5623 270.733 14.5336C270.802 14.5049 270.877 14.4901 270.952 14.4901H277.387C277.524 14.4901 277.656 14.5448 277.754 14.6422C277.851 14.7396 277.906 14.8717 277.906 15.0095V15.6846L278.01 15.7885H278.684C278.772 15.7876 278.858 15.8187 278.924 15.876C278.991 15.9333 279.035 16.013 279.047 16.1001V17.2946C279.036 17.401 278.989 17.5002 278.913 17.5758C278.838 17.6514 278.739 17.6988 278.632 17.7101H278.113C278.086 17.7101 278.059 17.7211 278.04 17.7406C278.021 17.76 278.01 17.7865 278.01 17.814V18.7488C277.998 18.8827 277.939 19.0081 277.845 19.1031C277.75 19.198 277.624 19.2565 277.491 19.2682ZM270.952 14.7498C270.869 14.7498 270.79 14.7826 270.731 14.8411C270.673 14.8995 270.64 14.9788 270.64 15.0614V18.6969C270.64 18.7796 270.673 18.8588 270.731 18.9173C270.79 18.9757 270.869 19.0085 270.952 19.0085H277.491C277.559 19.0085 277.625 18.9812 277.674 18.9325C277.723 18.8838 277.75 18.8177 277.75 18.7488V17.814C277.75 17.7663 277.759 17.719 277.778 17.6749C277.796 17.6308 277.823 17.5907 277.856 17.5569C277.89 17.5232 277.93 17.4964 277.974 17.4781C278.018 17.4599 278.066 17.4505 278.113 17.4505H278.632C278.674 17.4505 278.713 17.434 278.742 17.4048C278.772 17.3756 278.788 17.336 278.788 17.2946V16.1001C278.788 16.0482 278.736 16.0482 278.684 16.0482H278.01C277.913 16.0482 277.821 16.0099 277.753 15.9417C277.685 15.8735 277.646 15.7811 277.646 15.6846V15.0095C277.646 14.9406 277.619 14.8745 277.57 14.8258C277.522 14.7771 277.456 14.7498 277.387 14.7498H270.952Z" fill="#263238"/>
</g>
<g id="Character">
<path id="Vector_61" d="M71.9285 80.5524C71.6465 79.7182 71.1188 78.989 70.4148 78.4606C69.7108 77.9322 68.8636 77.6294 67.9844 77.592C68.3996 76.2936 67.5692 74.8394 66.3237 74.2681C65.6799 74.0478 64.9977 73.9618 64.3194 74.0153C63.6411 74.0689 62.9809 74.261 62.3796 74.5798C61.4973 74.9952 60.7189 75.5665 59.7847 75.7743C58.8506 75.982 57.2418 75.6704 55.9963 75.6185C54.7048 75.5945 53.4315 75.9256 52.3151 76.5758C51.1987 77.226 50.2821 78.1703 49.6649 79.3059C49.2498 80.085 48.9903 80.9679 48.5232 81.7469C48.0561 82.5259 47.6929 82.8895 47.3296 83.5127C46.8046 84.4204 46.5636 85.4647 46.6376 86.5108C46.7116 87.5569 47.0973 88.5569 47.7448 89.3815L65.4415 85.3305C66.1706 85.8376 67.04 86.1038 67.9278 86.0917C68.8156 86.0797 69.6775 85.79 70.3926 85.2633C71.1077 84.7366 71.6403 83.9992 71.9157 83.1544C72.1911 82.3096 72.1956 81.3998 71.9285 80.5524V80.5524Z" fill="#263238"/>
<path id="Vector_62" d="M112.667 145.732L95.5933 144.018L94.6073 152.899L113.913 152.224L112.667 145.732Z" fill="#FFBF9D"/>
<path id="Vector_63" d="M125.641 150.925C125.527 151.074 125.376 151.19 125.203 151.263C125.03 151.335 124.842 151.362 124.655 151.341L124.396 151.237C123.929 150.977 124.136 149.887 124.136 149.887L121.645 149.056C121.645 149.056 117.961 150.718 116.56 151.964C115.158 153.211 112.304 151.549 112.304 151.549L112.096 145.888L117.494 142.356C117.494 142.356 117.182 142.564 117.597 141.837C118.013 141.109 119.518 141.629 119.518 141.629L120.763 141.265L124.863 142.408C125.277 142.532 125.658 142.745 125.981 143.032C126.304 143.319 126.56 143.673 126.731 144.07L128.029 147.082C128.029 147.082 128.651 149.263 128.444 149.679C128.344 149.869 128.178 150.016 127.977 150.093C127.777 150.169 127.555 150.17 127.354 150.094C127.354 150.094 126.939 151.341 126.627 151.341C126.274 151.272 125.938 151.131 125.641 150.925V150.925Z" fill="#FFBF9D"/>
<path id="Vector_64" d="M117.597 151.185L117.857 151.029L118.635 150.614C119.609 150.069 120.614 149.584 121.645 149.16H121.593L124.084 149.991V149.887C124.042 150.091 124.024 150.301 124.033 150.51C124.029 150.751 124.101 150.988 124.24 151.185C124.292 151.289 124.448 151.341 124.552 151.393H124.915C125.156 151.397 125.392 151.324 125.589 151.185L125.693 151.029H125.797C125.797 150.977 125.486 151.081 125.589 151.029H125.693L126.005 151.185C126.108 151.289 126.212 151.289 126.368 151.341H126.783C126.939 151.289 126.991 151.133 127.094 151.029L127.25 150.718L127.562 149.991L127.354 150.094C127.525 150.163 127.712 150.185 127.894 150.157C128.076 150.13 128.248 150.055 128.392 149.939C128.509 149.783 128.597 149.607 128.651 149.419V148.9C128.548 148.277 128.392 147.601 128.236 146.978C127.977 146.459 127.769 145.94 127.51 145.368L127.043 144.33C126.93 143.982 126.773 143.65 126.576 143.343C126.338 143.044 126.059 142.781 125.745 142.564C125.418 142.381 125.07 142.242 124.707 142.148L120.867 141.109H120.14C119.883 141.157 119.647 141.284 119.466 141.473H119.621C119.424 141.343 119.196 141.265 118.96 141.247C118.724 141.229 118.487 141.271 118.272 141.369C118.078 141.462 117.905 141.592 117.762 141.753C117.62 141.913 117.511 142.101 117.442 142.304H117.494L113.757 144.693L112.771 145.368L112.408 145.628L112.823 145.42L113.809 144.797L117.597 142.46H117.649C117.708 142.279 117.803 142.113 117.927 141.97C118.052 141.827 118.205 141.711 118.376 141.629C118.557 141.565 118.75 141.546 118.94 141.574C119.13 141.601 119.31 141.673 119.466 141.785H119.569V141.681L120.14 141.473H120.763L124.603 142.512L125.538 142.875C125.845 143.061 126.11 143.309 126.316 143.602C126.502 143.898 126.659 144.211 126.783 144.537L127.198 145.576C127.458 146.147 127.665 146.667 127.925 147.186C128.081 147.809 128.236 148.484 128.34 149.108V149.575C128.34 149.679 128.236 149.783 128.132 149.887C128.038 149.979 127.917 150.038 127.786 150.057C127.655 150.076 127.522 150.052 127.406 149.991H127.302V150.094C127.239 150.328 127.152 150.554 127.043 150.77C126.964 150.969 126.84 151.147 126.679 151.289H126.42L126.108 151.133L125.797 150.977H125.538L125.434 151.081C125.365 151.148 125.284 151.201 125.195 151.237C125.106 151.273 125.011 151.29 124.915 151.289H124.603L124.396 151.133C124.23 150.794 124.194 150.407 124.292 150.042V149.939H124.188L121.697 149.16H121.645C120.611 149.598 119.606 150.101 118.635 150.666L117.909 151.185H117.597Z" fill="#FF9A6C"/>
<path id="Vector_65" d="M119.985 143.187C120.356 143.472 120.779 143.683 121.23 143.81C122.32 144.201 123.452 144.463 124.603 144.589L124.5 144.485C124.552 144.693 124.552 144.901 124.603 145.16C124.921 146.442 125.466 147.656 126.212 148.744L126.939 149.679C127.146 149.887 127.302 149.99 127.302 149.939C126.958 149.53 126.646 149.096 126.368 148.64C125.687 147.554 125.196 146.36 124.915 145.109L124.759 144.433V144.329H124.655C123.513 144.206 122.384 143.98 121.282 143.654L119.985 143.187Z" fill="#FF9A6C"/>
<path id="Vector_66" d="M123.514 146.251C123.554 147.121 123.784 147.972 124.188 148.744C124.521 149.544 125.058 150.243 125.745 150.77C125.261 150.075 124.827 149.346 124.448 148.588C123.825 147.342 123.617 146.199 123.514 146.251Z" fill="#FF9A6C"/>
<path id="Vector_67" d="M111.733 149.731L111.837 149.835C111.964 149.925 112.104 149.995 112.252 150.042C112.727 150.319 113.26 150.479 113.809 150.51C114.667 150.595 115.531 150.433 116.3 150.042C117.273 149.537 118.043 148.712 118.48 147.705H118.324C119.268 148.077 120.268 148.288 121.282 148.329C121.661 148.381 122.045 148.381 122.424 148.329C122.811 148.353 123.199 148.3 123.566 148.173C123.753 148.1 123.915 147.973 124.033 147.809C124.083 147.713 124.109 147.606 124.109 147.498C124.109 147.389 124.083 147.282 124.033 147.186C124.003 147.082 123.95 146.986 123.878 146.905C123.806 146.824 123.717 146.761 123.617 146.719L123.202 146.563L119.933 145.316L117.649 144.693L116.819 144.485C116.819 144.537 117.13 144.641 117.649 144.797L119.829 145.576C120.763 145.888 121.905 146.303 123.098 146.822L123.514 147.03C123.587 147.053 123.654 147.093 123.708 147.147C123.763 147.201 123.803 147.268 123.825 147.342C123.833 147.465 123.816 147.589 123.773 147.705C123.721 147.861 123.617 147.913 123.462 147.965C123.126 148.072 122.776 148.124 122.424 148.121H121.334C120.343 148.071 119.364 147.879 118.428 147.55H118.324V147.653C117.904 148.611 117.173 149.399 116.248 149.887C115.539 150.288 114.726 150.469 113.913 150.406C113.36 150.376 112.816 150.253 112.304 150.042L111.733 149.731Z" fill="#FF9A6C"/>
<path id="Vector_68" d="M57.3456 123.815C55.3219 123.774 53.3948 122.941 51.9782 121.494C50.5616 120.047 49.7683 118.102 49.7687 116.076L49.4573 90.3682C49.146 83.4608 52.7787 77.4881 59.5253 77.3843H60.148C63.2015 77.5412 66.0822 78.85 68.2102 81.0471C70.3382 83.2442 71.5556 86.1664 71.6171 89.2256C71.8766 95.1983 72.0842 101.015 71.9285 104.183C71.6171 110.831 65.0263 111.454 65.0263 111.454V115.869C65.0263 120.283 61.6011 123.815 57.3456 123.763V123.815Z" fill="#FFBF9D"/>
<path id="Vector_69" d="M65.0263 111.558C62.0523 111.409 59.1855 110.399 56.7748 108.65C56.7748 108.65 58.5912 113.739 65.0263 113.376V111.558Z" fill="#FF9A6C"/>
<path id="Vector_70" d="M69.2818 95.1463C69.2818 95.2691 69.2576 95.3907 69.2107 95.5041C69.1637 95.6175 69.0949 95.7206 69.0082 95.8074C68.9214 95.8942 68.8185 95.963 68.7051 96.01C68.5918 96.057 68.4703 96.0812 68.3477 96.0812C68.1086 96.0816 67.8786 95.9902 67.7048 95.826C67.531 95.6618 67.4268 95.4371 67.4135 95.1983C67.4135 95.0755 67.4377 94.9539 67.4846 94.8405C67.5316 94.7271 67.6004 94.624 67.6871 94.5372C67.7739 94.4504 67.8768 94.3816 67.9902 94.3346C68.1035 94.2876 68.225 94.2634 68.3477 94.2634C68.5867 94.2631 68.8167 94.3544 68.9905 94.5186C69.1643 94.6829 69.2685 94.9075 69.2818 95.1463Z" fill="#263238"/>
<path id="Vector_71" d="M70.164 92.1341C70.0083 92.2379 69.3337 91.7186 68.3476 91.6666C67.3616 91.6147 66.6351 92.0821 66.5313 91.9782C66.4275 91.8744 66.5832 91.7186 66.9464 91.4589C67.3778 91.1813 67.8884 91.0536 68.3995 91.0953C68.9148 91.0884 69.4143 91.2735 69.8007 91.6147C70.1121 91.8744 70.2159 92.0821 70.164 92.1341Z" fill="#263238"/>
<path id="Vector_72" d="M60.3037 95.1463C60.2912 95.3902 60.1887 95.6208 60.0162 95.7935C59.8437 95.9661 59.6133 96.0687 59.3696 96.0812C59.1305 96.0816 58.9005 95.9902 58.7267 95.826C58.553 95.6618 58.4487 95.4371 58.4354 95.1983C58.4354 94.9503 58.5338 94.7126 58.709 94.5372C58.8842 94.3619 59.1218 94.2634 59.3696 94.2634C59.6086 94.2631 59.8386 94.3544 60.0124 94.5186C60.1862 94.6829 60.2904 94.9075 60.3037 95.1463V95.1463Z" fill="#263238"/>
<path id="Vector_73" d="M60.4594 91.9783C60.3037 92.0821 59.6291 91.5108 58.643 91.4589C57.657 91.407 56.9305 91.9263 56.8267 91.7705C56.7229 91.6147 56.8786 91.5108 57.2418 91.3031C57.6768 91.0289 58.1809 90.8848 58.6949 90.8876C59.2009 90.928 59.6859 91.1078 60.0961 91.407C60.4075 91.6667 60.5113 91.9263 60.4594 91.9783Z" fill="#263238"/>
<path id="Vector_74" d="M63.677 99.9245L65.2857 99.7167C65.5452 99.7167 65.8047 99.6648 65.8566 99.457C65.8664 99.1887 65.8131 98.9219 65.7009 98.678C65.4933 98.0548 65.2857 97.3796 65.0263 96.7044C64.0921 93.848 63.4694 91.4589 63.5732 91.4589C63.677 91.4589 64.5073 93.6922 65.4414 96.5486C65.649 97.2757 65.8566 97.9509 66.0642 98.5741C66.2311 98.8941 66.2683 99.2661 66.168 99.6128C66.0827 99.7839 65.9336 99.9145 65.7528 99.9764H65.2857C64.7496 100.032 64.2084 100.014 63.677 99.9245Z" fill="#263238"/>
<path id="Vector_75" d="M60.8746 88.8102C60.7189 89.0698 59.7847 88.7582 58.643 88.6543C57.5013 88.5505 56.4633 88.7063 56.3596 88.4466C56.2558 88.1869 56.5152 88.0831 56.9304 87.9272C57.4827 87.6754 58.0899 87.5682 58.6949 87.6156C59.3043 87.661 59.8928 87.8573 60.4075 88.1869C60.7708 88.3947 60.9783 88.6543 60.8746 88.8102Z" fill="#263238"/>
<path id="Vector_76" d="M70.3197 89.1737C70.1122 89.3815 69.2818 89.1218 68.3477 89.0699C67.4135 89.0179 66.5313 89.1737 66.3756 88.914C66.2199 88.6544 66.4275 88.6024 66.7908 88.3947C67.2887 88.1421 67.8415 88.0172 68.3996 88.0311C68.9576 88.051 69.4981 88.2313 69.9565 88.5505C70.3197 88.8102 70.4235 89.0179 70.3197 89.1737Z" fill="#263238"/>
<path id="Vector_77" d="M49.7687 95.2502C49.6649 95.1983 45.4094 93.7441 45.3575 98.2625C45.3056 102.781 49.7687 101.898 49.7687 101.794V95.2502Z" fill="#FFBF9D"/>
<path id="Vector_78" d="M48.4194 100.08L48.2118 100.184C48.1224 100.226 48.025 100.248 47.9264 100.248C47.8277 100.248 47.7303 100.226 47.6409 100.184C47.1739 99.9764 46.8106 99.2493 46.8106 98.4183C46.7699 98.0254 46.8419 97.6291 47.0182 97.2757C47.1739 96.9641 47.3815 96.7044 47.5891 96.7044C47.7966 96.7044 48.0042 96.7564 48.0561 96.9122C48.108 97.068 48.0561 97.1199 48.108 97.1199C48.1599 97.1199 48.2118 97.068 48.1599 96.8602C48.1644 96.8061 48.1517 96.7519 48.1238 96.7053C48.0959 96.6587 48.0541 96.6221 48.0042 96.6005C47.9489 96.5482 47.8837 96.5074 47.8124 96.4806C47.7411 96.4539 47.6651 96.4417 47.5891 96.4447C47.4005 96.4858 47.2255 96.5741 47.0803 96.7012C46.9351 96.8284 46.8244 96.9903 46.7587 97.1718C46.5636 97.557 46.474 97.9872 46.4992 98.4183C46.4992 99.3531 46.9663 100.184 47.5891 100.392C47.7006 100.436 47.8219 100.45 47.9405 100.432C48.0591 100.413 48.1706 100.364 48.2637 100.288C48.4194 100.184 48.4713 100.08 48.4194 100.08Z" fill="#FF9A6C"/>
<path id="Vector_79" d="M52.9344 83.9282C53.0482 83.3582 53.3094 82.8281 53.6918 82.3906C54.0743 81.9532 54.5647 81.6238 55.1141 81.4353C56.0951 81.1157 57.1547 81.134 58.1241 81.4872C60.6151 82.3701 64.8187 83.7204 65.9604 82.8375C66.7335 82.2858 67.4015 81.5998 67.9325 80.812L68.7629 81.7469C69.4894 81.3314 67.3617 78.9943 65.5972 78.1633C62.9504 76.9168 58.9025 76.1378 56.4634 76.8649C54.0242 77.592 51.0661 79.202 49.613 81.9546C48.1599 84.7072 47.5891 87.9272 47.641 91.0953C47.6929 92.0302 47.4853 94.7828 48.4194 94.9905C49.3536 95.1982 50.0801 95.5099 50.0282 96.8602C50.0097 97.1132 50.0415 97.3674 50.1216 97.6081C50.2018 97.8487 50.3288 98.0711 50.4953 98.2625C51.2737 99.1454 52.2598 98.3144 52.7268 97.4834C53.7129 95.7176 53.8167 93.5882 53.8686 91.5627C54.0445 90.122 53.9565 88.6612 53.6091 87.2521C53.2912 86.3385 53.0482 85.4006 52.8825 84.4475C52.8768 84.2729 52.8942 84.0982 52.9344 83.9282V83.9282Z" fill="#263238"/>
<path id="Vector_80" d="M63.8326 102.417C63.8845 102.469 63.6769 102.625 63.2618 102.729C62.7118 102.839 62.1407 102.746 61.653 102.469C61.1719 102.197 60.7901 101.779 60.5632 101.275C60.4594 100.859 60.4594 100.6 60.5113 100.6C60.5632 100.6 61.0302 101.483 61.9644 101.95C62.8985 102.417 63.7807 102.262 63.8326 102.417Z" fill="#263238"/>
<path id="Vector_81" d="M68.4515 162.871L47.3296 158.248L33.8365 124.646C33.8365 124.646 15.7246 128.697 12.7146 138.824C10.1198 147.55 4.82635 186.242 16.9182 210.08C18.4663 213.08 20.8119 215.593 23.6964 217.343C26.5809 219.094 29.8923 220.013 33.2656 220H125.538C131.154 220.008 136.576 217.94 140.762 214.192C144.947 210.444 147.602 205.28 148.216 199.693C148.743 195.715 149.021 191.708 149.047 187.696L134.256 176.322L68.4515 162.871Z" fill="#455A64"/>
<g id="Group_7" opacity="0.3">
<path id="Vector_82" d="M124.811 174.608C131.298 183.074 139.186 190.708 148.632 195.694L149.099 184.164L131.661 171.752L124.811 174.608Z" fill="black"/>
</g>
<path id="Vector_83" d="M55.166 118.102C55.166 118.725 59.9924 120.699 62.1201 119.868C65.4415 118.517 65.0263 115.921 65.0263 115.921L66.8427 117.894L85.2141 145.836L98.8628 154.872L77.0144 161.78L54.1281 135.449L55.166 118.102Z" fill="#F5F5F5"/>
<path id="Vector_84" d="M49.4054 108.754L48.9384 109.636L46.7587 113.687L37.6768 119.504L56.3077 141.681L64.8187 161.78L85.214 168.168C85.214 168.168 75.5094 153.263 72.4994 145.628C69.4894 137.993 69.178 138.357 66.4275 132.748C64.5484 128.79 62.8853 124.733 61.4454 120.595L49.4054 108.754Z" fill="#5271FF"/>
<path id="Vector_85" d="M93.1023 148.692L97.0983 152.432L98.1882 154.717L83.3458 147.809L72.6032 132.748C72.6032 132.748 68.7629 124.282 67.4654 121.218C66.168 118.154 65.0263 116.18 65.0263 116.18V113.687L70.4754 118.569L74.9904 119.92L82.5154 131.865L93.1023 148.692Z" fill="#5271FF"/>
<path id="Vector_86" d="M88.4835 134.618C88.4835 134.618 86.6671 130.774 85.214 127.554C81.8926 120.335 74.0563 119.66 74.0563 119.66L82.723 143.654L93.3099 151.185C93.3099 151.185 96.3199 152.224 96.735 151.185C96.735 151.185 98.9147 143.239 98.8628 143.187L91.3378 140.902L88.3278 134.202" fill="#5271FF"/>
<path id="Vector_87" d="M52.7787 144.901L80.699 150.718L87.1861 145.836L91.234 145.368C91.5798 145.343 91.9269 145.395 92.2501 145.521C92.5732 145.647 92.8643 145.843 93.1023 146.095L93.3618 146.355L96.1123 146.926C96.5725 147.028 97.0004 147.242 97.3578 147.55L98.9666 148.952C99.0852 149.026 99.1753 149.138 99.2224 149.27C99.2695 149.402 99.2708 149.546 99.2261 149.679V149.679C99.1223 150.146 98.4995 150.302 97.9806 150.042L96.2161 149.263L93.2061 149.108C93.2061 149.108 94.9706 149.783 94.8668 150.977C94.763 152.172 93.8288 151.86 93.8288 151.86C93.8288 151.86 95.4376 153.314 93.725 154.145C93.725 154.145 95.0744 155.444 92.7909 156.482C91.2859 157.21 81.5813 157.989 81.5813 157.989L48.8865 157.521L52.7787 144.901Z" fill="#FFBF9D"/>
<path id="Vector_88" d="M93.6731 154.145C93.8282 154.201 93.9574 154.312 94.0364 154.457C94.1405 154.632 94.191 154.833 94.1818 155.036C94.1725 155.239 94.104 155.435 93.9845 155.6C93.725 156.067 93.1023 156.327 92.4276 156.586C91.6866 156.862 90.9224 157.071 90.1442 157.21C88.6911 157.507 87.2154 157.681 85.733 157.729C85.0946 157.795 84.4511 157.795 83.8128 157.729L85.6811 157.573C86.8228 157.469 88.3797 157.313 90.0404 157.002C90.8186 156.863 91.5828 156.654 92.3238 156.379C92.8751 156.203 93.3865 155.921 93.8288 155.548C93.9542 155.408 94.0319 155.232 94.0505 155.045C94.0692 154.859 94.0279 154.671 93.9326 154.509C93.8288 154.249 93.6212 154.145 93.6731 154.145Z" fill="#FF9A6C"/>
<path id="Vector_89" d="M93.258 146.407C92.7739 146.466 92.2835 146.448 91.8049 146.355C91.2962 146.353 90.79 146.283 90.2999 146.147C90.2999 146.043 90.9745 146.043 91.753 146.147C92.5314 146.251 93.258 146.303 93.258 146.407Z" fill="#FF9A6C"/>
<path id="Vector_90" d="M96.2161 149.263H94.1402C93.4431 149.262 92.7479 149.192 92.0643 149.056H94.1402C95.2819 149.056 96.2161 149.16 96.2161 149.263Z" fill="#FF9A6C"/>
<path id="Vector_91" d="M92.0644 151.081C92.0125 151.081 92.0125 150.873 92.0125 150.614C92.0125 150.354 91.9087 150.198 91.9606 150.146C92.0125 150.094 92.272 150.354 92.272 150.614C92.272 150.873 92.1682 151.133 92.0644 151.081Z" fill="#FF9A6C"/>
<path id="Vector_92" d="M92.2719 153.834C92.1681 153.782 92.3238 153.522 92.2719 153.107C92.22 152.691 92.1681 152.432 92.22 152.38C92.2719 152.328 92.5833 152.691 92.5833 153.159C92.5833 153.626 92.3238 153.886 92.2719 153.834Z" fill="#FF9A6C"/>
<path id="Vector_93" d="M38.4034 119.037C37.5211 119.556 30.2556 124.542 31.2935 132.696C32.3315 140.85 48.5232 159.287 51.8965 159.651L64.8187 161.78V146.511L58.5911 146.199L50.4434 130.203L38.4034 119.037Z" fill="#5271FF"/>
<path id="Vector_94" d="M64.8187 145.784H63.0542L58.4355 145.888H58.3317L55.0103 141.473L50.0801 134.669L48.5751 132.592C48.3793 132.348 48.2056 132.088 48.0562 131.813C48.2944 132.027 48.5038 132.272 48.6789 132.54L50.2358 134.566L55.2698 141.317L58.5392 145.732H64.8187V145.784Z" fill="#263238"/>
<path id="Vector_95" d="M61.653 122.62C61.5653 122.473 61.4956 122.317 61.4454 122.153C61.1983 121.732 60.9732 121.299 60.7708 120.855H60.9264C60.4551 121.53 60.0386 122.242 59.6809 122.984C59.223 123.995 58.685 124.967 58.0721 125.892L57.9684 125.996L57.8127 125.892C56.9823 124.854 56.0482 123.711 55.0103 122.62C52.7268 120.127 50.599 118.05 49.0422 116.492L47.2258 114.622C46.8106 114.155 46.5511 113.895 46.603 113.895L47.2777 114.518L49.1978 116.336C50.7547 117.842 52.9344 119.92 55.2178 122.413C56.2558 123.555 57.1899 124.646 58.0202 125.685H57.8127C58.4497 124.802 59.0056 123.863 59.4733 122.88C59.8665 122.147 60.2996 121.436 60.7708 120.751L60.8745 120.647V120.751C61.134 121.322 61.2897 121.789 61.4454 122.153C61.6011 122.516 61.7049 122.62 61.653 122.62Z" fill="#263238"/>
<path id="Vector_96" d="M70.5273 118.725C70.6669 118.976 70.7883 119.236 70.8906 119.504C71.0982 120.024 71.3057 120.751 71.5652 121.634L71.7728 122.257L71.3576 121.737C70.7586 121.041 70.1173 120.382 69.4375 119.764C68.8666 119.193 68.2439 118.673 67.7249 118.206H67.9325C67.8668 119.052 67.8495 119.902 67.8806 120.751C67.8287 121.374 67.7768 121.789 67.7249 121.737V120.751C67.6236 119.889 67.6062 119.019 67.673 118.154V117.894L67.8287 118.05L69.5932 119.608C70.2743 120.243 70.9156 120.919 71.5133 121.634L71.2538 121.789C71.1156 121.05 70.9248 120.321 70.683 119.608C70.5792 119.037 70.4754 118.725 70.5273 118.725Z" fill="#263238"/>
<path id="Vector_97" d="M89.262 143.602C89.262 143.654 89.0025 143.447 88.6392 143.031L87.0304 141.421C86.3558 140.746 85.5773 139.967 84.6951 138.98C83.8128 137.993 83.9685 137.889 83.5534 137.37C83.1407 136.777 82.7762 136.152 82.4635 135.5C81.8408 134.15 81.3737 132.8 80.9585 131.605C80.5434 130.411 80.1801 129.32 79.8168 128.437C79.577 127.723 79.282 127.028 78.9346 126.36C78.727 125.84 78.5713 125.633 78.5713 125.581L78.727 125.788C78.8464 125.952 78.9506 126.126 79.0384 126.308C79.4073 126.963 79.7366 127.639 80.0244 128.333C80.3877 129.268 80.8028 130.307 81.218 131.501C81.6469 132.81 82.1493 134.093 82.723 135.345C82.9948 135.99 83.3433 136.6 83.7609 137.162L84.9027 138.824L87.1861 141.265L88.743 142.979L89.262 143.602Z" fill="#263238"/>
<path id="Vector_98" d="M96.7351 152.224L145.673 150.873C146.457 150.83 147.239 150.972 147.957 151.289C149.721 152.068 152.939 153.99 155.119 158.664C158.336 165.415 173.127 193.98 173.127 193.98L158.129 201.667L139.757 167.493L82.9825 162.663L83.6571 158.144L96.7351 152.224Z" fill="#263238"/>
<path id="Vector_99" d="M153.666 195.642L161.502 209.093L162.021 212.469C162.175 213.474 162.719 214.376 163.536 214.98C164.353 215.583 165.376 215.838 166.38 215.689L190.149 212.002C190.432 211.966 190.703 211.867 190.942 211.71C191.18 211.554 191.38 211.345 191.525 211.099C191.67 210.853 191.757 210.577 191.78 210.293C191.802 210.008 191.759 209.722 191.654 209.457C191.542 209.228 191.382 209.026 191.185 208.864C190.988 208.703 190.758 208.586 190.512 208.522C188.54 208.003 173.179 202.394 173.179 202.394L166.743 189.566L153.666 195.642Z" fill="black"/>
<path id="Vector_100" d="M160.256 198.758C159.59 198.098 158.999 197.366 158.492 196.577C157.89 195.875 157.368 195.109 156.935 194.292C157.576 194.956 158.166 195.668 158.699 196.421C159.296 197.145 159.818 197.928 160.256 198.758V198.758Z" fill="#263238"/>
<path id="Vector_101" d="M164.927 196.889C164.261 196.215 163.701 195.445 163.266 194.603C162.488 193.253 162.021 192.11 162.125 192.058C162.228 192.007 162.747 193.149 163.526 194.499C164.304 195.85 164.979 196.837 164.927 196.889Z" fill="#263238"/>
<path id="Vector_102" d="M168.197 215.222C168.145 215.222 167.989 214.754 167.626 214.079C167.201 213.146 166.539 212.34 165.705 211.742C164.915 211.111 163.993 210.667 163.007 210.444C162.228 210.236 161.761 210.236 161.761 210.184C162.188 210.083 162.632 210.083 163.059 210.184C164.098 210.39 165.075 210.835 165.913 211.482C166.745 212.146 167.404 213.002 167.833 213.975C168.012 214.372 168.134 214.791 168.197 215.222V215.222Z" fill="#263238"/>
<path id="Vector_103" d="M184.233 212.937C184.014 212.687 183.87 212.381 183.817 212.054C183.641 211.276 183.695 210.464 183.973 209.717C184.257 208.98 184.66 208.296 185.167 207.691C185.388 207.439 185.651 207.228 185.945 207.068C185.779 207.344 185.588 207.605 185.374 207.847C184.896 208.443 184.512 209.109 184.233 209.821C184.007 210.525 183.954 211.273 184.077 212.002C184.129 212.573 184.284 212.885 184.233 212.937Z" fill="#263238"/>
<path id="Vector_104" d="M81.737 158.923C81.737 158.923 132.284 153.834 134.723 154.041C139.238 154.457 147.594 161.572 162.436 171.544C170.115 176.763 177.244 182.749 183.714 189.41L178.939 200.264C178.939 200.264 145.725 188.163 140.536 183.801C136.176 180.165 128.288 175.024 128.288 175.024L108.827 175.179L94.3478 176.478C90.7757 176.788 87.1829 176.194 83.9001 174.751C80.6172 173.308 77.7497 171.062 75.5613 168.22L69.9565 160.845L81.737 158.923Z" fill="#263238"/>
<path id="Vector_105" d="M128.081 174.868L128.288 175.024L128.963 175.491L131.609 177.309C133.893 178.919 137.214 181.256 141.314 184.372L142.093 184.943L142.923 185.515L144.791 186.397L146.711 187.332L148.787 188.215C151.59 189.462 154.652 190.708 157.869 192.058C164.356 194.655 171.622 197.512 179.458 200.524L179.25 200.628C180.652 197.148 182.105 193.513 183.558 189.721V189.877L177.642 183.853C176.292 182.606 174.787 181.36 173.282 180.113C164.245 172.632 154.784 165.678 144.947 159.287V159.287C143.613 158.144 142.17 157.135 140.639 156.275C139.207 155.426 137.672 154.762 136.073 154.301L134.879 153.99L133.737 153.834L134.931 154.041L136.124 154.301C137.759 154.78 139.328 155.46 140.795 156.327C142.326 157.187 143.769 158.196 145.103 159.339V159.339C154.928 165.729 164.388 172.664 173.438 180.113L177.849 183.853L183.765 189.825V189.929H183.714C182.26 193.72 180.807 197.356 179.406 200.836V200.94H179.302C171.466 197.927 164.2 195.071 157.713 192.422C154.496 191.072 151.434 189.825 148.632 188.579L146.608 187.644L144.635 186.761L142.819 185.826L141.937 185.255L141.158 184.684C137.111 181.567 133.737 179.178 131.506 177.568L128.911 175.647L128.236 175.179L128.081 174.868Z" fill="#455A64"/>
<path id="Vector_106" d="M168.248 197.512L182.209 203.017L184.544 205.562C185.242 206.289 186.194 206.716 187.201 206.755C188.207 206.794 189.189 206.441 189.941 205.77L207.638 189.358C207.843 189.168 208.003 188.934 208.105 188.673C208.208 188.413 208.251 188.133 208.231 187.854C208.211 187.575 208.129 187.304 207.99 187.061C207.852 186.817 207.66 186.609 207.43 186.449C207.21 186.306 206.958 186.217 206.697 186.19C206.435 186.163 206.171 186.198 205.925 186.294C204.005 187.021 188.125 190.968 188.125 190.968L177.486 182.45L168.248 197.512Z" fill="black"/>
<path id="Vector_107" d="M168.248 197.512L168.404 197.252L168.871 196.473L170.688 193.461L177.382 182.398L177.486 182.295H177.538L188.229 190.812H188.125L197.57 188.423L202.604 187.125L205.147 186.449L205.77 186.242L206.444 186.086C206.689 186.069 206.935 186.101 207.167 186.181C207.399 186.262 207.612 186.388 207.794 186.553C208.134 186.902 208.337 187.362 208.365 187.849C208.394 188.335 208.246 188.816 207.949 189.202C207.807 189.371 207.651 189.527 207.482 189.669L207.015 190.137L206.029 191.02L202.293 194.499C199.801 196.785 197.414 198.966 195.183 201.095L191.861 204.16L190.253 205.614L189.422 206.289C189.118 206.48 188.785 206.62 188.436 206.704C187.779 206.901 187.081 206.919 186.414 206.754C185.748 206.59 185.138 206.25 184.648 205.77L182.157 203.069H182.209L171.933 198.966L169.183 197.823L168.456 197.564L168.248 197.46L168.508 197.564L169.234 197.823L172.037 198.914L182.26 202.861H182.312C183.091 203.692 183.921 204.627 184.803 205.51C185.27 205.959 185.847 206.277 186.476 206.432C187.104 206.587 187.763 206.573 188.384 206.393L189.266 205.977C189.564 205.799 189.843 205.59 190.097 205.354L191.654 203.848L194.975 200.784L202.085 194.188L205.873 190.708L206.808 189.825C207.157 189.554 207.471 189.24 207.742 188.89C207.998 188.566 208.125 188.157 208.096 187.744C208.067 187.331 207.885 186.943 207.586 186.657C207.441 186.519 207.27 186.411 207.083 186.339C206.896 186.268 206.696 186.235 206.496 186.242C206.279 186.238 206.064 186.292 205.873 186.397L205.199 186.605L202.656 187.28L197.622 188.579L188.177 190.968H188.073L177.434 182.502H177.59C174.735 187.073 172.4 190.812 170.791 193.461L168.923 196.421L168.404 197.252L168.248 197.512Z" fill="#263238"/>
<path id="Vector_108" d="M191.187 204.367C191.135 204.419 190.772 204.108 190.097 203.692C189.201 203.204 188.209 202.92 187.191 202.861C186.186 202.785 185.177 202.927 184.233 203.277C183.851 203.486 183.452 203.66 183.039 203.796C183.349 203.481 183.72 203.234 184.129 203.069C185.111 202.652 186.178 202.474 187.243 202.55C188.301 202.597 189.325 202.939 190.201 203.536C190.587 203.736 190.924 204.02 191.187 204.367V204.367Z" fill="#263238"/>
<path id="Vector_109" d="M203.175 193.461C203.175 193.513 202.811 193.357 202.396 192.941C201.797 192.42 201.363 191.734 201.151 190.968C200.98 190.2 200.962 189.406 201.099 188.631C201.203 188.008 201.306 187.696 201.358 187.696C201.387 188.008 201.369 188.323 201.306 188.631C201.237 189.379 201.289 190.133 201.462 190.864C201.65 191.589 202.026 192.252 202.552 192.786C202.915 193.201 203.227 193.409 203.175 193.461Z" fill="#263238"/>
<path id="Vector_110" d="M119.466 174.868C118.376 169.726 116.196 164.429 111.785 161.572C108.464 159.339 104.364 158.82 100.42 158.3L17.6448 148.121C16.8663 161.209 22.4712 177.465 28.1798 189.202C29.062 191.02 30.048 192.889 31.7606 194.032C33.4732 195.175 36.4832 195.382 38.9223 195.33C66.7908 194.603 94.6592 193.409 122.32 190.345C120.763 185.359 120.556 180.009 119.466 174.868Z" fill="#455A64"/>
<path id="Vector_111" d="M48.0561 151.86H47.0701L44.4753 151.601L35.7567 150.406L27.09 149.108L24.4432 148.588L23.5091 148.38L24.4951 148.484L27.09 148.9L35.8086 150.146L44.4753 151.341L47.122 151.704L48.0561 151.86Z" fill="#263238"/>
<path id="Vector_112" d="M48.5232 220C48.4713 220 48.4713 219.948 48.4194 219.844L48.1599 219.377C48.0042 218.909 47.6929 218.338 47.3296 217.507L46.7587 216.157L46.0841 214.547C45.6689 213.404 45.098 212.054 44.631 210.548L43.8006 208.211C43.5411 207.38 43.3335 206.497 43.0741 205.614C42.5032 203.848 42.088 201.874 41.621 199.849C40.7015 195.41 40.0602 190.917 39.7008 186.398C39.431 181.865 39.4483 177.32 39.7527 172.79C39.9603 170.713 40.116 168.739 40.3754 166.87C40.5311 165.987 40.6349 165.052 40.7906 164.221L41.2577 161.78C41.5172 160.222 41.8804 158.82 42.1399 157.625C42.3994 156.431 42.4513 156.431 42.5551 155.911C42.6589 155.392 42.8665 154.924 42.9703 154.509C43.0741 154.093 43.4373 153.003 43.5411 152.535C43.6249 152.392 43.6779 152.233 43.6968 152.068C43.7168 151.992 43.7522 151.922 43.8006 151.86C43.7979 151.932 43.7803 152.003 43.7487 152.068L43.6449 152.587C43.4892 153.055 43.3335 153.678 43.0741 154.561C42.8146 155.444 42.8665 155.444 42.7108 155.963C42.5551 156.483 42.4513 157.054 42.2956 157.677C42.1399 158.3 41.6729 160.274 41.4653 161.832C41.2577 163.39 41.1539 163.39 40.9982 164.273C40.8425 165.156 40.7387 165.987 40.6349 166.922C40.3754 168.739 40.2198 170.713 40.0122 172.79C39.7264 177.322 39.7264 181.866 40.0122 186.398C40.3588 190.898 40.9828 195.373 41.8804 199.797C42.3475 201.822 42.7627 203.796 43.2817 205.562L44.0601 208.159C44.3196 208.938 44.5791 209.717 44.7867 210.496C44.9942 211.275 45.8246 213.3 46.2398 214.495C46.6549 215.689 46.6549 215.637 46.8625 216.105L47.4334 217.455L48.2637 219.377C48.3077 219.535 48.3597 219.691 48.4194 219.844L48.5232 220Z" fill="#263238"/>
<path id="Vector_113" d="M47.6409 193.72C46.552 193.783 45.4604 193.783 44.3715 193.72C43.2759 193.689 42.1837 193.585 41.102 193.409C41.102 193.305 42.607 193.305 44.3715 193.409C46.1359 193.513 47.6409 193.617 47.6409 193.72Z" fill="#263238"/>
<path id="Vector_114" d="M46.8625 197.46C46.8625 197.564 45.3056 197.356 43.5411 196.629C42.4442 196.241 41.4249 195.66 40.5311 194.915C40.583 194.811 41.8804 195.642 43.6449 196.317C45.4094 196.992 46.8625 197.408 46.8625 197.46Z" fill="#263238"/>
<path id="Vector_115" d="M39.597 171.492C38.9532 171.88 38.2203 172.094 37.4692 172.115C36.7202 172.247 35.9496 172.175 35.2377 171.907C35.2377 171.804 36.2237 171.959 37.4173 171.855C38.6109 171.752 39.597 171.388 39.597 171.492Z" fill="#263238"/>
<path id="Vector_116" d="M41.2577 170.245C40.4487 170.383 39.6171 170.274 38.8705 169.934C37.6249 169.415 36.9503 168.48 37.0541 168.428C37.6692 168.907 38.3297 169.324 39.0262 169.674C40.1679 170.194 41.2577 170.142 41.2577 170.245Z" fill="#263238"/>
<path id="Vector_117" d="M70.4236 81.2795C70.2138 80.737 69.8787 80.2519 69.4458 79.8637C69.0129 79.4756 68.4943 79.1955 67.9325 79.0462C66.8001 78.7618 65.6093 78.8159 64.5073 79.202L53.7648 81.643C55.3217 82.6817 58.5392 83.6685 60.3556 83.8763C63.0542 84.1359 64.9225 84.1879 66.5313 83.253C66.8946 84.3437 68.3477 84.8111 69.3856 84.2917C69.8684 83.9764 70.2326 83.5091 70.4205 82.9637C70.6085 82.4182 70.6095 81.8256 70.4236 81.2795V81.2795Z" fill="#263238"/>
<path id="Vector_118" d="M177.849 194.136C177.797 194.24 176.344 193.876 174.632 193.201C173.561 192.853 172.533 192.382 171.57 191.799C171.622 191.747 173.023 192.318 174.735 192.941C176.448 193.565 177.849 194.084 177.849 194.136Z" fill="#263238"/>
<path id="Vector_119" d="M180.237 189.566C180.185 189.617 178.991 188.994 177.434 188.267C175.877 187.54 174.684 186.969 174.736 186.917C174.787 186.865 176.033 187.28 177.59 188.007C178.536 188.409 179.426 188.933 180.237 189.566V189.566Z" fill="#263238"/>
<path id="Vector_120" d="M94.5554 156.95L116.248 157.21L142.404 152.016C142.819 151.946 143.202 151.749 143.5 151.451C143.797 151.153 143.995 150.77 144.065 150.354L147.594 126.723C147.627 126.456 147.6 126.185 147.513 125.93C147.425 125.675 147.281 125.443 147.091 125.253C146.9 125.063 146.669 124.918 146.414 124.831C146.16 124.744 145.889 124.716 145.622 124.75L118.843 129.112C118.472 129.175 118.131 129.356 117.869 129.627C117.608 129.898 117.44 130.245 117.39 130.619L114.432 154.613L94.6073 154.509C94.2769 154.509 93.9601 154.64 93.7266 154.874C93.493 155.108 93.3618 155.425 93.3618 155.755V155.755C93.3618 155.912 93.3926 156.068 93.4526 156.213C93.5126 156.357 93.6005 156.489 93.7114 156.6C93.8222 156.711 93.9538 156.799 94.0986 156.859C94.2434 156.919 94.3986 156.95 94.5554 156.95V156.95Z" fill="#E0E0E0"/>
<path id="Vector_121" d="M94.5554 156.95C94.415 156.977 94.2696 156.959 94.1402 156.898C93.9464 156.814 93.775 156.686 93.6398 156.523C93.5046 156.361 93.4094 156.169 93.3618 155.963C93.3157 155.66 93.3704 155.35 93.5175 155.08C93.614 154.926 93.743 154.796 93.8954 154.697C94.0478 154.598 94.2199 154.534 94.3997 154.509H114.432L114.328 154.613C115.158 147.705 116.196 139.499 117.286 130.463C117.35 130.161 117.488 129.879 117.687 129.644C117.886 129.408 118.141 129.226 118.428 129.112L119.31 128.905L120.192 128.801L123.669 128.229L130.883 127.035L138.304 125.84L142.144 125.217L144.065 124.906L145.051 124.75C145.374 124.669 145.704 124.616 146.037 124.594C146.409 124.632 146.762 124.781 147.049 125.022C147.335 125.262 147.543 125.584 147.646 125.944C147.767 126.277 147.785 126.639 147.697 126.983L147.542 128.022L146.919 132.021C146.556 134.669 146.141 137.266 145.777 139.811C145.414 142.356 144.999 144.901 144.636 147.342L144.324 149.16C144.272 149.471 144.272 149.783 144.22 150.094C144.182 150.418 144.095 150.733 143.961 151.029C143.817 151.309 143.612 151.553 143.36 151.742C143.108 151.931 142.817 152.06 142.508 152.12L140.743 152.483L116.248 157.313L100.368 157.054L116.248 157.21H116.196L140.691 152.328L142.404 152.016C142.684 151.951 142.946 151.824 143.171 151.644C143.395 151.465 143.577 151.237 143.701 150.977C143.842 150.72 143.93 150.438 143.961 150.146C144.021 149.856 144.056 149.56 144.065 149.263L144.376 147.394C144.739 144.953 145.103 142.46 145.518 139.863C145.933 137.266 146.296 134.721 146.659 132.073L147.282 128.074L147.438 127.035C147.498 126.724 147.48 126.403 147.386 126.1C147.308 125.797 147.135 125.528 146.892 125.331C146.649 125.135 146.349 125.022 146.037 125.009C145.705 124.995 145.372 125.03 145.051 125.113L144.117 125.269L142.196 125.581L138.356 126.204L130.935 127.398L123.721 128.437L120.244 129.008L119.362 129.164C119.08 129.186 118.802 129.239 118.532 129.32C118.283 129.424 118.063 129.587 117.891 129.795C117.719 130.003 117.601 130.25 117.546 130.515C116.404 139.551 115.366 147.705 114.536 154.613V154.717H114.484L97.2021 154.561H94.3997C94.2292 154.593 94.0672 154.66 93.9242 154.759C93.7812 154.857 93.6604 154.984 93.5694 155.132C93.418 155.381 93.3626 155.676 93.4137 155.963C93.4594 156.156 93.5486 156.336 93.6746 156.489C93.8005 156.642 93.9598 156.764 94.1402 156.846L94.5554 156.95Z" fill="#263238"/>
<path id="Vector_122" d="M119.725 129.891C119.777 129.891 119.051 136.124 118.116 143.862C117.182 151.601 116.3 157.833 116.248 157.833C116.196 157.833 116.871 151.549 117.857 143.81C118.843 136.072 119.621 129.839 119.725 129.891Z" fill="#263238"/>
<path id="Vector_123" d="M131.35 139.603C130.831 140.746 131.091 142.044 132.025 142.46C132.959 142.875 134.101 142.356 134.671 141.213C135.242 140.071 134.931 138.772 133.997 138.357C133.063 137.941 131.921 138.461 131.35 139.603Z" fill="white"/>
<path id="Vector_124" d="M97.254 149.419C97.254 149.419 98.8628 150.302 99.1223 149.887C99.3818 149.471 98.0325 148.484 98.0325 148.484L97.254 149.419Z" fill="#F5F5F5"/>
<path id="Vector_125" d="M96.9945 149.679L97.8249 149.887L98.6033 150.146C98.7071 150.198 98.3957 150.25 97.8767 150.094C97.5545 150.026 97.2525 149.884 96.9945 149.679Z" fill="#FF9A6C"/>
</g>
<g id="Plant">
<path id="Vector_126" d="M329.335 129.839C329.328 129.894 329.311 129.947 329.283 129.995L329.076 130.567L328.349 132.748C327.675 134.618 326.688 137.318 325.391 140.59C322.061 149.204 318.052 157.54 313.403 165.519C312.084 167.783 310.939 170.145 309.978 172.583C309.096 174.879 308.47 177.265 308.11 179.698C307.614 183.803 307.614 187.953 308.11 192.059C308.473 195.59 308.992 198.395 309.303 200.368C309.459 201.303 309.615 202.082 309.718 202.602C309.713 202.797 309.748 202.992 309.822 203.173V203.381C309.815 203.326 309.798 203.273 309.77 203.225C309.718 203.069 309.718 202.861 309.666 202.602L309.199 200.368C308.836 198.447 308.317 195.59 307.902 192.11C307.387 187.973 307.37 183.788 307.85 179.646C308.21 177.213 308.837 174.827 309.718 172.531C310.68 170.076 311.825 167.698 313.143 165.415C317.757 157.42 321.798 149.106 325.235 140.538C326.533 137.214 327.571 134.566 328.245 132.696C328.609 131.761 328.868 131.086 329.024 130.567L329.231 129.995L329.335 129.839Z" fill="#263238"/>
<path id="Vector_127" d="M324.301 160.949C324.353 160.949 324.249 161.053 324.146 161.261L323.627 162.092L321.655 165.156C319.994 167.701 317.555 171.18 315.167 175.179C313.974 177.205 312.884 179.127 312.002 180.944C311.12 182.762 310.393 184.424 309.822 185.878C309.251 187.332 308.836 188.475 308.577 189.254C308.505 189.575 308.401 189.889 308.265 190.189C308.241 190.296 308.206 190.4 308.161 190.5C308.167 190.395 308.185 190.291 308.213 190.189C308.317 189.929 308.369 189.618 308.473 189.254C308.577 188.89 309.147 187.229 309.666 185.774C310.185 184.32 310.912 182.658 311.794 180.84C312.676 179.023 313.714 177.049 314.908 175.024C317.347 171.025 319.786 167.545 321.499 165.052L323.523 162.04C323.742 161.783 323.933 161.505 324.094 161.209L324.301 160.949Z" fill="#263238"/>
<path id="Vector_128" d="M329.283 129.839C329.387 128.541 328.038 127.295 326.844 126.827C325.608 126.462 324.292 126.462 323.056 126.827C315.842 128.437 309.874 134.669 308.628 141.941C311.946 140.284 315.36 138.827 318.852 137.578L318.281 137.734C319.983 137.404 321.591 136.702 322.99 135.678C324.389 134.655 325.546 133.335 326.377 131.813C326.641 131.2 327.01 130.638 327.467 130.151C327.701 129.919 328.001 129.765 328.326 129.709C328.651 129.653 328.985 129.699 329.283 129.839" fill="#455A64"/>
<path id="Vector_129" d="M329.283 129.788C332.607 127.515 336.674 126.604 340.649 127.243C342.61 127.599 344.471 128.379 346.102 129.526C347.733 130.674 349.095 132.163 350.094 133.89C351.034 135.655 351.529 137.623 351.538 139.623C351.547 141.623 351.069 143.595 350.146 145.368C348.277 141.525 346.357 137.578 342.932 135.085C342.102 134.462 341.22 133.942 340.752 133.06C340.285 132.177 340.441 130.774 340.026 129.684C339.611 128.593 337.95 128.022 336.497 127.97C335.044 127.918 330.996 129.164 329.283 129.788" fill="#455A64"/>
<path id="Vector_130" d="M329.18 129.736C332.605 128.749 336.445 130.411 338.728 132.956C341.012 135.5 342.206 138.876 342.621 142.304C343.036 145.732 342.725 149.212 342.361 152.639C339.709 148.662 337.728 144.275 336.497 139.655C335.978 137.526 335.563 135.397 334.577 133.475C334.012 132.489 333.234 131.642 332.301 130.995C331.367 130.348 330.301 129.918 329.18 129.736" fill="#455A64"/>
<path id="Vector_131" d="M317.139 215.897H298.612L295.706 194.448H320.617L317.139 215.897Z" fill="#5271FF"/>
<path id="Vector_132" d="M334.525 168.636C332.657 164.636 327.83 161.988 323.419 162.351C323.896 162.588 324.313 162.931 324.637 163.354C324.961 163.777 325.184 164.269 325.287 164.792C325.495 165.831 325.443 166.922 325.547 167.96C325.962 173.05 329.231 177.413 332.345 181.412C334.577 184.216 336.756 187.073 339.403 189.514C339.092 182.243 338.625 174.608 334.525 168.636Z" fill="#455A64"/>
<path id="Vector_133" d="M323.419 162.403C326.221 160.274 329.854 159.339 333.383 159.339C336.912 159.339 340.441 160.066 343.866 160.897C345.942 161.416 348.018 162.04 349.782 163.234C351.547 164.429 352.948 166.298 353 168.428C350.094 165.26 345.371 164.636 341.219 163.442C338.417 162.611 335.718 161.416 332.812 160.845C329.906 160.274 325.962 160.949 323.419 162.403Z" fill="#455A64"/>
<path id="Vector_134" d="M323.886 161.832C322.692 160.534 323.367 157.521 324.405 156.119C325.443 154.717 327.207 153.886 328.868 153.263C331.086 152.487 333.384 151.964 335.718 151.704C335.432 153.175 334.666 154.509 333.539 155.496C332.446 156.493 331.245 157.364 329.958 158.093L323.886 161.832Z" fill="#455A64"/>
<path id="Vector_135" d="M312.365 160.118C308.836 161.624 306.137 164.533 303.491 167.337C307.389 166.393 311.118 164.852 314.545 162.767C315.894 161.936 317.243 161.001 318.8 160.637C320.357 160.274 322.122 161.001 323.419 162.092C321.239 158.82 315.894 158.56 312.365 160.118Z" fill="#455A64"/>
<path id="Vector_136" d="M310.704 183.126C312.676 178.607 311.846 173.102 314.337 168.895C316.257 165.623 319.786 163.702 323.315 162.351C324.02 164.855 323.799 167.529 322.692 169.882C321.655 172.219 319.994 174.296 318.281 176.218C316.569 178.14 313.299 181.308 310.704 183.749" fill="#455A64"/>
<path id="Vector_137" d="M321.706 194.448H293.994V199.283H321.706V194.448Z" fill="#5271FF"/>
<path id="Vector_138" d="M320.824 199.433C320.824 199.485 314.804 199.589 307.435 199.589C300.066 199.589 293.994 199.485 293.994 199.433C293.994 199.381 300.014 199.278 307.435 199.278C314.856 199.278 320.824 199.381 320.824 199.433Z" fill="#263238"/>
<path id="Vector_139" d="M330.529 129.995C329.633 128.274 328.554 126.655 327.311 125.165C326.105 123.62 324.458 122.479 322.589 121.893C320.098 121.166 317.399 121.738 314.908 122.465C311.995 123.347 309.151 124.44 306.397 125.737C310.032 127.103 314.027 127.177 317.71 125.944C319.631 125.269 321.499 125.373 323.471 125.581C325.443 125.788 328.972 128.126 330.529 129.995Z" fill="#455A64"/>
<g id="Group_8" opacity="0.2">
<path id="Vector_140" d="M334.525 168.636C332.657 164.636 327.83 161.988 323.419 162.351C323.896 162.588 324.313 162.931 324.637 163.354C324.961 163.777 325.184 164.269 325.287 164.792C325.495 165.831 325.443 166.922 325.547 167.96C325.962 173.05 329.231 177.413 332.345 181.412C334.577 184.216 336.756 187.073 339.403 189.514C339.092 182.243 338.625 174.608 334.525 168.636Z" fill="black"/>
<path id="Vector_141" d="M323.419 162.403C326.221 160.274 329.854 159.339 333.383 159.339C336.912 159.339 340.441 160.066 343.866 160.897C345.942 161.416 348.018 162.04 349.782 163.234C351.547 164.429 352.948 166.298 353 168.428C350.094 165.26 345.371 164.636 341.219 163.442C338.417 162.611 335.718 161.416 332.812 160.845C329.906 160.274 325.962 160.949 323.419 162.403Z" fill="black"/>
<path id="Vector_142" d="M323.886 161.832C322.692 160.534 323.367 157.521 324.405 156.119C325.443 154.717 327.207 153.886 328.868 153.263C331.086 152.487 333.384 151.964 335.718 151.704C335.432 153.175 334.666 154.509 333.539 155.496C332.446 156.493 331.245 157.364 329.958 158.093L323.886 161.832Z" fill="black"/>
<path id="Vector_143" d="M312.365 160.118C308.836 161.624 306.137 164.533 303.491 167.337C307.389 166.393 311.118 164.852 314.545 162.767C315.894 161.936 317.243 161.001 318.8 160.637C320.357 160.274 322.122 161.001 323.419 162.092C321.239 158.82 315.894 158.56 312.365 160.118Z" fill="black"/>
<path id="Vector_144" d="M310.704 183.126C312.676 178.607 311.846 173.102 314.337 168.895C316.257 165.623 319.786 163.702 323.315 162.351C324.02 164.855 323.799 167.529 322.692 169.882C321.655 172.219 319.994 174.297 318.281 176.218C316.569 178.14 313.299 181.308 310.704 183.749" fill="black"/>
</g>
</g>
<g id="Speech Bubble">
<path id="Vector_145" d="M141.21 89.2257H91.286C90.5978 89.2257 89.9378 89.4993 89.4512 89.9863C88.9645 90.4733 88.6912 91.1338 88.6912 91.8225V114.57C88.6912 115.259 88.9645 115.92 89.4512 116.407C89.9378 116.894 90.5978 117.167 91.286 117.167H112.2L116.663 122.88L120.4 117.167H141.21C141.894 117.154 142.547 116.876 143.031 116.392C143.514 115.908 143.792 115.255 143.805 114.57V91.8225C143.805 91.4815 143.738 91.1438 143.608 90.8287C143.477 90.5137 143.286 90.2274 143.045 89.9863C142.804 89.7452 142.518 89.5539 142.203 89.4234C141.889 89.2929 141.551 89.2257 141.21 89.2257Z" fill="white"/>
<path id="Vector_146" d="M141.21 89.2257H141.47C141.704 89.218 141.937 89.2717 142.145 89.3815C142.528 89.5127 142.869 89.7461 143.131 90.0567C143.536 90.4349 143.778 90.9567 143.805 91.5109C143.857 94.0038 143.857 97.5874 143.857 102.158C143.857 104.443 143.909 106.988 143.909 109.688V113.947C143.918 114.329 143.9 114.71 143.857 115.09C143.746 115.471 143.589 115.837 143.39 116.18C143.141 116.499 142.827 116.761 142.469 116.949C142.111 117.137 141.718 117.247 141.314 117.271H120.504L116.767 122.984L116.663 123.14L116.56 122.984L112.096 117.271H92.0644C91.7016 117.297 91.3374 117.297 90.9746 117.271C90.5914 117.221 90.2214 117.098 89.8848 116.907C89.5688 116.712 89.2956 116.455 89.0816 116.152C88.8675 115.849 88.7171 115.505 88.6392 115.142C88.5535 114.785 88.5185 114.418 88.5355 114.051V91.8225C88.5488 91.4842 88.6189 91.1506 88.743 90.8357C88.9991 90.2183 89.4563 89.7057 90.0405 89.3815C90.3245 89.2164 90.6461 89.127 90.9746 89.1218V89.1218L90.1442 89.3815C89.618 89.6991 89.2014 90.1703 88.9506 90.7318C88.8447 91.014 88.7919 91.3133 88.7949 91.6147V113.843C88.7755 114.193 88.8105 114.543 88.8987 114.882C88.9665 115.215 89.1031 115.53 89.2997 115.808C89.4963 116.085 89.7486 116.318 90.0405 116.492C90.3495 116.65 90.6828 116.755 91.0265 116.804C91.372 116.83 91.7189 116.83 92.0644 116.804H112.304L116.767 122.517H116.56L120.296 116.856V117.011H141.314C141.691 116.992 142.059 116.888 142.391 116.709C142.723 116.529 143.011 116.278 143.234 115.973C143.454 115.684 143.597 115.345 143.65 114.986C143.694 114.624 143.711 114.26 143.701 113.895V102.158C143.701 97.5874 143.753 94.0038 143.753 91.5109C143.657 90.9763 143.424 90.4755 143.079 90.0567C142.806 89.7819 142.491 89.5538 142.145 89.3815C141.848 89.2617 141.529 89.2085 141.21 89.2257Z" fill="#263238"/>
<path id="Vector_147" d="M102.963 94.1596H98.0325C97.6599 94.1596 97.3578 94.4619 97.3578 94.8348V98.3664C97.3578 98.7393 97.6599 99.0416 98.0325 99.0416H102.963C103.335 99.0416 103.637 98.7393 103.637 98.3664V94.8348C103.637 94.4619 103.335 94.1596 102.963 94.1596Z" fill="#5271FF"/>
<path id="Vector_148" d="M97.4617 94.3154L99.8489 96.8603C99.986 97.026 100.165 97.1516 100.368 97.2238C100.501 97.2474 100.638 97.2359 100.766 97.1904C100.893 97.1448 101.006 97.0669 101.094 96.9641L102.34 95.6138L103.585 94.3154C103.637 94.2635 103.534 94.1596 103.482 94.2115L101.198 96.6525L100.835 97.0161C100.682 97.0925 100.506 97.1082 100.343 97.06C100.179 97.0118 100.04 96.9033 99.9527 96.7564L98.6553 95.4061L97.5655 94.2115C97.5136 94.1596 97.4098 94.2635 97.4617 94.3154V94.3154Z" fill="white"/>
<path id="Vector_149" d="M97.4616 99.0415L99.3818 96.8602L99.6413 96.5486C99.6932 96.4448 99.5894 96.3928 99.5375 96.4448L97.6173 98.6261L97.3578 98.9377C97.3059 98.9896 97.3578 99.0935 97.4616 99.0415Z" fill="white"/>
<path id="Vector_150" d="M103.585 98.8338C102.963 98.1067 102.34 97.4315 101.769 96.7044L101.51 96.3928C101.458 96.3409 101.354 96.4448 101.406 96.4967L103.222 98.6261L103.482 98.8857C103.485 98.8926 103.49 98.8986 103.496 98.9036C103.501 98.9086 103.508 98.9124 103.515 98.9149C103.522 98.9173 103.53 98.9182 103.538 98.9177C103.545 98.9171 103.553 98.9151 103.56 98.9117C103.566 98.9083 103.572 98.9036 103.577 98.8978C103.582 98.8921 103.586 98.8854 103.589 98.8781C103.591 98.8709 103.592 98.8633 103.591 98.8556C103.591 98.848 103.589 98.8406 103.585 98.8338Z" fill="white"/>
<path id="Vector_151" d="M108.308 98.2625V96.6525L107.53 98.0029H107.218L106.44 96.7045V98.2625H105.869V95.5619H106.388L107.374 97.2758L108.36 95.5619H108.879V98.2625H108.308Z" fill="#263238"/>
<path id="Vector_152" d="M111.526 97.4315H109.917C109.953 97.5643 110.036 97.6793 110.151 97.7557C110.265 97.832 110.403 97.8645 110.54 97.847C110.73 97.8324 110.911 97.7599 111.059 97.6393L111.37 97.9509C111.266 98.0813 111.13 98.183 110.976 98.2466C110.821 98.3102 110.653 98.3335 110.488 98.3145C110.34 98.3215 110.193 98.2985 110.055 98.2468C109.916 98.1952 109.79 98.116 109.683 98.014C109.577 97.912 109.492 97.7894 109.434 97.6535C109.376 97.5177 109.346 97.3715 109.346 97.2238C109.346 97.0829 109.374 96.9435 109.43 96.8139C109.485 96.6844 109.566 96.5675 109.668 96.4703C109.77 96.3732 109.891 96.2978 110.023 96.2487C110.155 96.1997 110.295 96.178 110.436 96.1851C110.581 96.1776 110.726 96.2007 110.861 96.2529C110.997 96.3051 111.12 96.3851 111.223 96.488C111.326 96.5908 111.406 96.714 111.458 96.8497C111.51 96.9854 111.533 97.1305 111.526 97.2757V97.4315ZM109.917 97.068H110.955C110.955 96.9303 110.9 96.7982 110.803 96.7008C110.705 96.6034 110.573 96.5486 110.436 96.5486C110.298 96.5486 110.166 96.6034 110.069 96.7008C109.971 96.7982 109.917 96.9303 109.917 97.068Z" fill="#263238"/>
<path id="Vector_153" d="M111.733 98.1067L111.889 97.6393C112.102 97.7855 112.357 97.8584 112.615 97.8471C112.927 97.8471 113.031 97.7951 113.031 97.6913C113.031 97.5874 111.785 97.6913 111.785 96.8603C111.785 96.0293 112.096 96.1851 112.719 96.1851C112.988 96.1712 113.255 96.2247 113.498 96.3409L113.342 96.8083C113.159 96.6844 112.939 96.6292 112.719 96.6525C112.46 96.6525 112.356 96.7045 112.356 96.8083C112.356 96.9122 113.601 96.8603 113.601 97.6393C113.601 98.4184 113.238 98.3145 112.615 98.3145C112.309 98.321 112.005 98.2495 111.733 98.1067Z" fill="#263238"/>
<path id="Vector_154" d="M113.757 98.1067L113.965 97.6393C114.174 97.7931 114.432 97.8667 114.691 97.8471C114.951 97.8471 115.055 97.7951 115.055 97.6913C115.055 97.5874 113.809 97.6913 113.809 96.8603C113.809 96.0293 114.172 96.1851 114.743 96.1851C115.028 96.1764 115.311 96.2296 115.574 96.3409L115.366 96.8083C115.183 96.6844 114.963 96.6292 114.743 96.6525C114.484 96.6525 114.38 96.7045 114.38 96.8083C114.38 96.9122 115.625 96.8603 115.625 97.6393C115.625 98.4184 115.262 98.3145 114.639 98.3145C114.333 98.3129 114.032 98.2418 113.757 98.1067Z" fill="#263238"/>
<path id="Vector_155" d="M117.805 97.1199V98.2625H117.286V98.0028C117.209 98.1069 117.106 98.19 116.988 98.2444C116.87 98.2988 116.741 98.3229 116.611 98.3144C116.144 98.3144 115.885 98.0548 115.885 97.6912C115.885 97.3277 116.144 97.068 116.767 97.068H117.234C117.234 96.8083 117.079 96.6525 116.767 96.6525C116.655 96.6429 116.541 96.6564 116.434 96.6922C116.327 96.7279 116.229 96.7851 116.144 96.8602L115.937 96.4447C116.199 96.2741 116.506 96.1839 116.819 96.1851C117.442 96.1851 117.805 96.4448 117.805 97.1199ZM117.234 97.6393V97.4315H116.819C116.56 97.4315 116.456 97.5354 116.456 97.6393C116.456 97.7431 116.56 97.899 116.767 97.899C116.862 97.9087 116.958 97.889 117.041 97.8426C117.125 97.7961 117.192 97.7252 117.234 97.6393Z" fill="#263238"/>
<path id="Vector_156" d="M120.556 96.1851V97.9509C120.556 98.678 120.089 99.0416 119.362 99.0416C119.016 99.0482 118.674 98.9583 118.376 98.7819L118.584 98.3664C118.807 98.4889 119.055 98.5599 119.31 98.5742C119.725 98.5742 119.933 98.3664 119.933 98.0029V97.899C119.853 97.9974 119.748 98.0732 119.63 98.1188C119.512 98.1643 119.384 98.1781 119.258 98.1587C118.997 98.1587 118.746 98.0547 118.561 97.8697C118.376 97.6846 118.272 97.4336 118.272 97.1719C118.272 96.9102 118.376 96.6592 118.561 96.4741C118.746 96.2891 118.997 96.1851 119.258 96.1851C119.395 96.1807 119.53 96.2064 119.656 96.2602C119.782 96.3141 119.894 96.3948 119.985 96.4967V96.1851H120.556ZM119.933 97.1719C119.941 97.1017 119.934 97.0305 119.91 96.9637C119.887 96.8969 119.849 96.8362 119.799 96.7862C119.749 96.7362 119.689 96.6982 119.622 96.675C119.555 96.6519 119.484 96.6442 119.414 96.6525C119.276 96.6525 119.144 96.7073 119.047 96.8047C118.95 96.9021 118.895 97.0342 118.895 97.1719C118.895 97.3096 118.95 97.4417 119.047 97.5391C119.144 97.6365 119.276 97.6913 119.414 97.6913C119.484 97.6996 119.555 97.6919 119.622 97.6688C119.689 97.6456 119.749 97.6076 119.799 97.5576C119.849 97.5076 119.887 97.4469 119.91 97.3801C119.934 97.3133 119.941 97.2421 119.933 97.1719V97.1719Z" fill="#263238"/>
<path id="Vector_157" d="M123.098 97.4315H121.542C121.567 97.5601 121.64 97.6743 121.746 97.7514C121.851 97.8284 121.982 97.8626 122.112 97.847C122.209 97.8515 122.305 97.8353 122.394 97.7995C122.484 97.7636 122.565 97.709 122.631 97.6393L122.943 97.9509C122.847 98.077 122.72 98.1766 122.575 98.2402C122.429 98.3038 122.27 98.3294 122.112 98.3144C121.961 98.329 121.808 98.3115 121.663 98.2633C121.519 98.215 121.386 98.137 121.274 98.0342C121.161 97.9314 121.072 97.8062 121.011 97.6666C120.949 97.5271 120.918 97.3762 120.919 97.2238C120.918 97.0782 120.948 96.9341 121.006 96.8008C121.065 96.6674 121.151 96.5479 121.259 96.45C121.366 96.3521 121.493 96.2779 121.631 96.2322C121.77 96.1866 121.916 96.1705 122.061 96.1851C122.201 96.1849 122.341 96.2134 122.47 96.2688C122.6 96.3242 122.716 96.4054 122.813 96.5074C122.911 96.6095 122.986 96.7302 123.035 96.8623C123.084 96.9943 123.106 97.135 123.098 97.2757V97.4315ZM121.542 97.068H122.528C122.528 97.0088 122.516 96.9501 122.492 96.896C122.468 96.8419 122.433 96.7935 122.388 96.7542C122.344 96.7148 122.292 96.6854 122.235 96.6679C122.179 96.6503 122.119 96.6451 122.061 96.6525C121.999 96.6453 121.937 96.6504 121.877 96.6674C121.818 96.6844 121.763 96.7131 121.714 96.7517C121.666 96.7904 121.626 96.8382 121.596 96.8925C121.567 96.9468 121.548 97.0065 121.542 97.068V97.068Z" fill="#263238"/>
<path id="Vector_158" d="M123.306 98.1067L123.514 97.6393C123.727 97.7855 123.982 97.8584 124.24 97.8471C124.5 97.8471 124.604 97.7951 124.604 97.6913C124.604 97.5874 123.358 97.6913 123.358 96.8603C123.358 96.0293 123.721 96.1851 124.344 96.1851C124.612 96.1822 124.877 96.2353 125.122 96.3409L124.915 96.8083C124.748 96.6922 124.547 96.6372 124.344 96.6525C124.033 96.6525 123.929 96.7045 123.929 96.8083C123.929 96.9122 125.174 96.8603 125.174 97.6393C125.174 98.4184 124.811 98.3145 124.188 98.3145C123.883 98.3064 123.583 98.2357 123.306 98.1067V98.1067Z" fill="#263238"/>
<path id="Vector_159" d="M126.524 96.9122C126.523 96.7258 126.561 96.5413 126.635 96.3703C126.71 96.1993 126.818 96.0455 126.955 95.9187C127.091 95.7918 127.253 95.6946 127.429 95.6332C127.604 95.5718 127.791 95.5475 127.977 95.5619C128.254 95.5723 128.521 95.6647 128.746 95.8272C128.97 95.9898 129.141 96.2153 129.238 96.4753C129.334 96.7352 129.351 97.0179 129.287 97.2876C129.223 97.5574 129.08 97.802 128.877 97.9907C128.674 98.1794 128.42 98.3036 128.147 98.3476C127.873 98.3916 127.593 98.3535 127.341 98.2381C127.089 98.1227 126.877 97.9351 126.731 97.6991C126.586 97.4631 126.514 97.1893 126.524 96.9122ZM128.859 96.9122C128.859 96.7986 128.836 96.6861 128.791 96.5817C128.746 96.4774 128.68 96.3833 128.598 96.3055C128.515 96.2276 128.417 96.1675 128.311 96.1289C128.204 96.0904 128.09 96.0741 127.977 96.0812C127.866 96.0735 127.754 96.0898 127.65 96.1288C127.546 96.1678 127.451 96.2288 127.373 96.3075C127.294 96.3863 127.233 96.481 127.194 96.5853C127.155 96.6896 127.139 96.8011 127.146 96.9122C127.139 97.0256 127.156 97.1393 127.194 97.2462C127.233 97.3531 127.293 97.4509 127.371 97.5336C127.448 97.6164 127.542 97.6823 127.647 97.7273C127.751 97.7722 127.863 97.7953 127.977 97.7951C128.095 97.8027 128.213 97.7851 128.323 97.7435C128.434 97.7018 128.534 97.637 128.618 97.5535C128.701 97.4699 128.766 97.3695 128.807 97.2589C128.849 97.1483 128.867 97.0301 128.859 96.9122V96.9122Z" fill="#263238"/>
<path id="Vector_160" d="M130.468 96.0812H129.586V95.5619H131.921V96.0812H131.091V98.2625H130.468V96.0812Z" fill="#263238"/>
<path id="Vector_161" d="M134.62 96.5487C134.62 97.1719 134.152 97.5355 133.426 97.5355H132.907V98.2625H132.284V95.5619H133.426C134.152 95.5619 134.62 95.9774 134.62 96.5487ZM133.997 96.5487C133.997 96.289 133.789 96.0812 133.426 96.0812H132.907V97.0161H133.426C133.789 97.0161 133.997 96.8603 133.997 96.5487Z" fill="#263238"/>
<path id="132134" d="M98.832 112H100.596V104.2H99.084L97.02 105.16L97.32 106.528L98.808 105.82H98.832V112ZM103.112 111.58C103.568 111.868 104.42 112.132 105.428 112.132C107.408 112.132 108.62 111.124 108.62 109.744C108.62 108.724 107.864 108.016 106.928 107.848V107.824C107.888 107.488 108.356 106.84 108.356 106.012C108.356 104.944 107.432 104.068 105.764 104.068C104.756 104.068 103.82 104.356 103.352 104.656L103.724 105.976C104.048 105.784 104.72 105.508 105.356 105.508C106.124 105.508 106.508 105.856 106.508 106.324C106.508 106.984 105.728 107.212 105.116 107.224H104.408V108.532H105.152C105.956 108.532 106.724 108.88 106.724 109.648C106.724 110.236 106.244 110.692 105.296 110.692C104.552 110.692 103.808 110.38 103.484 110.212L103.112 111.58ZM115.349 112V110.5H112.409V110.476L113.129 109.876C114.257 108.868 115.205 107.824 115.205 106.516C115.205 105.1 114.233 104.068 112.469 104.068C111.413 104.068 110.501 104.428 109.913 104.872L110.429 106.18C110.837 105.868 111.425 105.532 112.097 105.532C112.997 105.532 113.381 106.036 113.381 106.672C113.357 107.584 112.529 108.46 110.825 109.984L109.817 110.896V112H115.349ZM118.801 112H120.565V104.2H119.053L116.989 105.16L117.289 106.528L118.777 105.82H118.801V112ZM123.081 111.58C123.537 111.868 124.389 112.132 125.397 112.132C127.377 112.132 128.589 111.124 128.589 109.744C128.589 108.724 127.833 108.016 126.897 107.848V107.824C127.857 107.488 128.325 106.84 128.325 106.012C128.325 104.944 127.401 104.068 125.733 104.068C124.725 104.068 123.789 104.356 123.321 104.656L123.693 105.976C124.017 105.784 124.689 105.508 125.325 105.508C126.093 105.508 126.477 105.856 126.477 106.324C126.477 106.984 125.697 107.212 125.085 107.224H124.377V108.532H125.121C125.925 108.532 126.693 108.88 126.693 109.648C126.693 110.236 126.213 110.692 125.265 110.692C124.521 110.692 123.777 110.38 123.453 110.212L123.081 111.58ZM134.741 112V110.14H135.677V108.772H134.741V104.2H132.509L129.557 108.952V110.14H133.013V112H134.741ZM131.261 108.772V108.748L132.305 107.044C132.569 106.552 132.773 106.096 133.025 105.592H133.073C133.037 106.096 133.013 106.576 133.013 107.044V108.772H131.261Z" fill="#455A64"/>
</g>
<g id="wifi" clip-path="url(#clip1_4_12285)">
<path id="Vector_162" d="M266.944 15.394C265.007 13.6017 261.993 13.6023 260.056 15.394C259.983 15.4614 259.981 15.5754 260.052 15.6453L260.426 16.0169C260.493 16.0836 260.602 16.085 260.671 16.021C262.267 14.5589 264.732 14.5586 266.329 16.021C266.399 16.085 266.507 16.0835 266.574 16.0169L266.948 15.6453C267.019 15.5754 267.017 15.4614 266.944 15.394ZM263.5 17.55C263.113 17.55 262.8 17.8633 262.8 18.25C262.8 18.6366 263.113 18.95 263.5 18.95C263.887 18.95 264.2 18.6366 264.2 18.25C264.2 17.8633 263.887 17.55 263.5 17.55ZM265.717 16.6357C264.456 15.5209 262.543 15.5221 261.283 16.6357C261.208 16.7024 261.205 16.8183 261.277 16.8889L261.654 17.2607C261.719 17.3254 261.825 17.3298 261.895 17.2694C262.813 16.4757 264.189 16.4775 265.105 17.2694C265.175 17.3298 265.281 17.3256 265.346 17.2607L265.723 16.8889C265.795 16.8183 265.792 16.7023 265.717 16.6357V16.6357Z" fill="#263238"/>
</g>
</g>
<defs>
<clipPath id="clip0_4_12285">
<rect width="353" height="220" fill="white"/>
</clipPath>
<clipPath id="clip1_4_12285">
<rect width="7" height="7" fill="white" transform="translate(260 13)"/>
</clipPath>
</defs>
</svg>
