<svg width="73" height="616" viewBox="0 0 73 616" fill="none" xmlns="http://www.w3.org/2000/svg">
<path d="M72 574.625L41 598.225H72V615.325H1.8V598.225H32.6L1.8 574.825V554.725L36.2 581.925L72 553.725V574.625ZM72.7 512.399C72.7 518.999 71.1667 525.065 68.1 530.599C65.0333 536.065 60.7667 540.432 55.3 543.699C49.7667 546.899 43.5667 548.499 36.7 548.499C29.8333 548.499 23.6667 546.899 18.2 543.699C12.7333 540.432 8.46667 536.065 5.4 530.599C2.33333 525.065 0.799999 518.999 0.799999 512.399C0.799999 505.799 2.33333 499.765 5.4 494.299C8.46667 488.765 12.7333 484.432 18.2 481.299C23.6667 478.099 29.8333 476.499 36.7 476.499C43.5667 476.499 49.7667 478.099 55.3 481.299C60.7667 484.499 65.0333 488.832 68.1 494.299C71.1667 499.765 72.7 505.799 72.7 512.399ZM57.1 512.399C57.1 506.799 55.2333 502.332 51.5 498.999C47.7667 495.599 42.8333 493.899 36.7 493.899C30.5 493.899 25.5667 495.599 21.9 498.999C18.1667 502.332 16.3 506.799 16.3 512.399C16.3 518.065 18.1333 522.599 21.8 525.999C25.4667 529.332 30.4333 530.999 36.7 530.999C42.9 530.999 47.8667 529.332 51.6 525.999C55.2667 522.599 57.1 518.065 57.1 512.399ZM72 404.186V421.286L28.7 449.886H72V466.986H1.8V449.886L45.3 421.286H1.8V404.186H72ZM72.7 366.39C72.7 371.524 71.8667 376.124 70.2 380.19C68.5333 384.257 66.0667 387.524 62.8 389.99C59.5333 392.39 55.6 393.657 51 393.79V375.59C53.6 375.324 55.6 374.424 57 372.89C58.3333 371.357 59 369.357 59 366.89C59 364.357 58.4333 362.357 57.3 360.89C56.1 359.424 54.4667 358.69 52.4 358.69C50.6667 358.69 49.2333 359.29 48.1 360.49C46.9667 361.624 46.0333 363.057 45.3 364.79C44.5667 366.457 43.7333 368.857 42.8 371.99C41.4 376.524 40 380.224 38.6 383.09C37.2 385.957 35.1333 388.424 32.4 390.49C29.6667 392.557 26.1 393.59 21.7 393.59C15.1667 393.59 10.0667 391.224 6.4 386.49C2.66667 381.757 0.799999 375.59 0.799999 367.99C0.799999 360.257 2.66667 354.024 6.4 349.29C10.0667 344.557 15.2 342.024 21.8 341.69V360.19C19.5333 360.324 17.7667 361.157 16.5 362.69C15.1667 364.224 14.5 366.19 14.5 368.59C14.5 370.657 15.0667 372.324 16.2 373.59C17.2667 374.857 18.8333 375.49 20.9 375.49C23.1667 375.49 24.9333 374.424 26.2 372.29C27.4667 370.157 28.8333 366.824 30.3 362.29C31.8333 357.757 33.3 354.09 34.7 351.29C36.1 348.424 38.1333 345.957 40.8 343.89C43.4667 341.824 46.9 340.79 51.1 340.79C55.1 340.79 58.7333 341.824 62 343.89C65.2667 345.89 67.8667 348.824 69.8 352.69C71.7333 356.557 72.7 361.124 72.7 366.39ZM1.8 313.467H43.8C48 313.467 51.2333 312.433 53.5 310.367C55.7667 308.3 56.9 305.267 56.9 301.267C56.9 297.267 55.7667 294.2 53.5 292.067C51.2333 289.933 48 288.867 43.8 288.867H1.8V271.767H43.7C49.9667 271.767 55.2667 273.1 59.6 275.767C63.9333 278.433 67.2 282.033 69.4 286.567C71.6 291.033 72.7 296.033 72.7 301.567C72.7 307.1 71.6333 312.067 69.5 316.467C67.3 320.8 64.0333 324.233 59.7 326.767C55.3 329.3 49.9667 330.567 43.7 330.567H1.8V313.467ZM58.8 242.659V220.259H72V259.759H1.8V242.659H58.8ZM1.8 161.603H15.5V180.203H72V197.303H15.5V215.903H1.8V161.603ZM59.6 109.321V135.521L72 139.721V157.621L1.8 132.221V112.421L72 87.0207V105.121L59.6 109.321ZM46.4 113.721L20.7 122.421L46.4 131.021V113.721ZM72.7 53.8902C72.7 59.0236 71.8667 63.6236 70.2 67.6902C68.5333 71.7569 66.0667 75.0236 62.8 77.4902C59.5333 79.8902 55.6 81.1569 51 81.2902V63.0902C53.6 62.8236 55.6 61.9236 57 60.3902C58.3333 58.8569 59 56.8569 59 54.3902C59 51.8569 58.4333 49.8569 57.3 48.3902C56.1 46.9236 54.4667 46.1902 52.4 46.1902C50.6667 46.1902 49.2333 46.7902 48.1 47.9902C46.9667 49.1236 46.0333 50.5569 45.3 52.2902C44.5667 53.9569 43.7333 56.3569 42.8 59.4902C41.4 64.0236 40 67.7236 38.6 70.5902C37.2 73.4569 35.1333 75.9236 32.4 77.9902C29.6667 80.0569 26.1 81.0902 21.7 81.0902C15.1667 81.0902 10.0667 78.7236 6.4 73.9902C2.66667 69.2569 0.799999 63.0902 0.799999 55.4902C0.799999 47.7569 2.66667 41.5236 6.4 36.7902C10.0667 32.0569 15.2 29.5236 21.8 29.1902V47.6902C19.5333 47.8236 17.7667 48.6569 16.5 50.1902C15.1667 51.7236 14.5 53.6902 14.5 56.0902C14.5 58.1569 15.0667 59.8236 16.2 61.0902C17.2667 62.3569 18.8333 62.9902 20.9 62.9902C23.1667 62.9902 24.9333 61.9236 26.2 59.7902C27.4667 57.6569 28.8333 54.3236 30.3 49.7902C31.8333 45.2569 33.3 41.5902 34.7 38.7902C36.1 35.9236 38.1333 33.4569 40.8 31.3902C43.4667 29.3236 46.9 28.2902 51.1 28.2902C55.1 28.2902 58.7333 29.3236 62 31.3902C65.2667 33.3902 67.8667 36.3236 69.8 40.1902C71.7333 44.0569 72.7 48.6236 72.7 53.8902ZM1.8 0.666796H72V17.7668H1.8V0.666796Z" fill="#ECECEC"/>
</svg>
